<svg width="318" height="218" viewBox="0 0 318 218" fill="none" xmlns="http://www.w3.org/2000/svg">
<rect width="318" height="218" rx="14" fill="url(#paint0_linear_1522_22251)"/>
<mask id="mask0_1522_22251" style="mask-type:alpha" maskUnits="userSpaceOnUse" x="0" y="0" width="318" height="218">
<rect width="318" height="218" rx="14" fill="#DC1D54"/>
</mask>
<g mask="url(#mask0_1522_22251)">
<g opacity="0.5">
<g clip-path="url(#clip0_1522_22251)">
<path d="M536.5 115L1 -420.5H83.3813C275.383 -204.008 426.423 -25.5081 536.5 115Z" fill="#C11345"/>
<path d="M536.5 115C444.158 -37.7532 320.583 -216.253 165.773 -420.5H248.155C367.121 -226.292 463.236 -47.792 536.5 115Z" fill="#C11345"/>
<path d="M536.5 115C463.244 277.792 367.128 456.292 248.155 650.5H165.773C320.576 446.26 444.151 267.76 536.5 115Z" fill="#C11345"/>
<path d="M536.5 115C426.408 255.515 275.369 434.015 83.3813 650.5H1L536.5 115Z" fill="#C11345"/>
<path d="M536.5 115C395.985 225.085 217.485 376.124 1 568.119V485.727C205.204 330.924 383.704 207.349 536.5 115Z" fill="#C11345"/>
<path d="M536.5 115C373.708 188.256 195.208 284.372 1 403.345V320.964C187.582 236.762 366.082 168.107 536.5 115Z" fill="#C11345"/>
<path d="M536.5 115C360.92 147.173 182.42 188.363 1 238.572V156.191C179.828 139.504 358.328 125.774 536.5 115Z" fill="#C11345"/>
<path d="M536.5 115C358.328 104.226 179.828 90.4955 1 73.8093V-8.57202C182.427 41.6365 360.927 82.8271 536.5 115Z" fill="#C11345"/>
<path d="M536.5 115C366.082 61.8999 187.582 -6.75473 1 -90.9639V-173.345C195.208 -54.3785 373.708 41.7366 536.5 115Z" fill="#C11345"/>
<path d="M536.5 115C383.747 22.6584 205.247 -100.917 1 -255.727V-338.119C217.492 -146.117 395.992 4.92267 536.5 115Z" fill="#C11345"/>
</g>
</g>
<path d="M-8 91.6265C14.5679 95.3001 70.5568 115.171 113.97 165.265C168.236 227.883 344.472 269.461 443.702 210.851C542.932 152.24 593.58 17.9938 765.165 32.0202C819.295 36.4452 855.427 51.4873 883 70.3903" stroke="white" stroke-linejoin="round" stroke-dasharray="5 5"/>
</g>
<path d="M37.776 53V35.96H45C45.784 35.96 46.504 36.12 47.16 36.44C47.816 36.76 48.384 37.192 48.864 37.736C49.36 38.28 49.744 38.888 50.016 39.56C50.288 40.232 50.424 40.92 50.424 41.624C50.424 42.584 50.2 43.496 49.752 44.36C49.304 45.224 48.688 45.928 47.904 46.472C47.12 47.016 46.192 47.288 45.12 47.288H41.088V53H37.776ZM41.088 44.384H44.928C45.328 44.384 45.688 44.272 46.008 44.048C46.328 43.824 46.584 43.504 46.776 43.088C46.968 42.656 47.064 42.168 47.064 41.624C47.064 41.032 46.952 40.528 46.728 40.112C46.52 39.696 46.24 39.384 45.888 39.176C45.552 38.968 45.184 38.864 44.784 38.864H41.088V44.384ZM51.3891 49.28C51.3891 48.464 51.6131 47.752 52.0611 47.144C52.5251 46.52 53.1651 46.04 53.9811 45.704C54.7971 45.368 55.7331 45.2 56.7891 45.2C57.3171 45.2 57.8531 45.24 58.3971 45.32C58.9411 45.4 59.4131 45.528 59.8131 45.704V45.032C59.8131 44.232 59.5731 43.616 59.0931 43.184C58.6291 42.752 57.9331 42.536 57.0051 42.536C56.3171 42.536 55.6611 42.656 55.0371 42.896C54.4131 43.136 53.7571 43.488 53.0691 43.952L52.0371 41.84C52.8691 41.296 53.7171 40.888 54.5811 40.616C55.4611 40.344 56.3811 40.208 57.3411 40.208C59.1331 40.208 60.5251 40.656 61.5171 41.552C62.5251 42.448 63.0291 43.728 63.0291 45.392V49.4C63.0291 49.736 63.0851 49.976 63.1971 50.12C63.3251 50.264 63.5251 50.352 63.7971 50.384V53C63.5091 53.048 63.2451 53.088 63.0051 53.12C62.7811 53.152 62.5891 53.168 62.4291 53.168C61.7891 53.168 61.3011 53.024 60.9651 52.736C60.6451 52.448 60.4451 52.096 60.3651 51.68L60.2931 51.032C59.7491 51.736 59.0691 52.28 58.2531 52.664C57.4371 53.048 56.6051 53.24 55.7571 53.24C54.9251 53.24 54.1731 53.072 53.5011 52.736C52.8451 52.384 52.3251 51.912 51.9411 51.32C51.5731 50.712 51.3891 50.032 51.3891 49.28ZM59.2131 49.928C59.3891 49.736 59.5331 49.544 59.6451 49.352C59.7571 49.16 59.8131 48.984 59.8131 48.824V47.552C59.4291 47.392 59.0131 47.272 58.5651 47.192C58.1171 47.096 57.6931 47.048 57.2931 47.048C56.4611 47.048 55.7731 47.232 55.2291 47.6C54.7011 47.952 54.4371 48.424 54.4371 49.016C54.4371 49.336 54.5251 49.64 54.7011 49.928C54.8771 50.216 55.1331 50.448 55.4691 50.624C55.8051 50.8 56.2051 50.888 56.6691 50.888C57.1491 50.888 57.6211 50.8 58.0851 50.624C58.5491 50.432 58.9251 50.2 59.2131 49.928ZM73.5223 43.208C72.5463 43.208 71.6743 43.4 70.9063 43.784C70.1383 44.152 69.5863 44.688 69.2503 45.392V53H66.0343V40.424H68.9863V43.112C69.4343 42.248 70.0023 41.568 70.6903 41.072C71.3783 40.576 72.1063 40.304 72.8743 40.256C73.0503 40.256 73.1863 40.256 73.2823 40.256C73.3783 40.256 73.4583 40.264 73.5223 40.28V43.208ZM74.3813 49.28C74.3813 48.464 74.6053 47.752 75.0533 47.144C75.5173 46.52 76.1573 46.04 76.9733 45.704C77.7893 45.368 78.7253 45.2 79.7812 45.2C80.3093 45.2 80.8453 45.24 81.3893 45.32C81.9333 45.4 82.4053 45.528 82.8053 45.704V45.032C82.8053 44.232 82.5653 43.616 82.0853 43.184C81.6213 42.752 80.9253 42.536 79.9973 42.536C79.3093 42.536 78.6533 42.656 78.0293 42.896C77.4053 43.136 76.7493 43.488 76.0613 43.952L75.0293 41.84C75.8613 41.296 76.7093 40.888 77.5733 40.616C78.4533 40.344 79.3733 40.208 80.3333 40.208C82.1253 40.208 83.5173 40.656 84.5093 41.552C85.5173 42.448 86.0213 43.728 86.0213 45.392V49.4C86.0213 49.736 86.0773 49.976 86.1893 50.12C86.3173 50.264 86.5173 50.352 86.7893 50.384V53C86.5013 53.048 86.2373 53.088 85.9973 53.12C85.7733 53.152 85.5813 53.168 85.4213 53.168C84.7813 53.168 84.2933 53.024 83.9573 52.736C83.6373 52.448 83.4373 52.096 83.3573 51.68L83.2853 51.032C82.7413 51.736 82.0613 52.28 81.2453 52.664C80.4293 53.048 79.5973 53.24 78.7493 53.24C77.9173 53.24 77.1653 53.072 76.4933 52.736C75.8373 52.384 75.3173 51.912 74.9333 51.32C74.5653 50.712 74.3813 50.032 74.3813 49.28ZM82.2053 49.928C82.3813 49.736 82.5253 49.544 82.6373 49.352C82.7493 49.16 82.8053 48.984 82.8053 48.824V47.552C82.4213 47.392 82.0053 47.272 81.5573 47.192C81.1093 47.096 80.6853 47.048 80.2853 47.048C79.4533 47.048 78.7653 47.232 78.2213 47.6C77.6933 47.952 77.4293 48.424 77.4293 49.016C77.4293 49.336 77.5173 49.64 77.6933 49.928C77.8693 50.216 78.1253 50.448 78.4613 50.624C78.7973 50.8 79.1973 50.888 79.6613 50.888C80.1413 50.888 80.6133 50.8 81.0773 50.624C81.5413 50.432 81.9173 50.2 82.2053 49.928ZM102.328 52.352C102.056 52.464 101.728 52.592 101.344 52.736C100.96 52.88 100.544 52.992 100.096 53.072C99.6641 53.168 99.2241 53.216 98.7761 53.216C98.1841 53.216 97.6401 53.112 97.1441 52.904C96.6481 52.696 96.2481 52.368 95.9441 51.92C95.6561 51.456 95.5121 50.856 95.5121 50.12V42.896H93.8561V40.424H95.5121V36.344H98.7281V40.424H101.368V42.896H98.7281V49.04C98.7441 49.472 98.8641 49.784 99.0881 49.976C99.3121 50.168 99.5921 50.264 99.9281 50.264C100.264 50.264 100.592 50.208 100.912 50.096C101.232 49.984 101.488 49.888 101.68 49.808L102.328 52.352ZM109.671 53.24C108.663 53.24 107.751 53.072 106.935 52.736C106.119 52.384 105.423 51.912 104.847 51.32C104.271 50.712 103.823 50.024 103.503 49.256C103.199 48.472 103.047 47.648 103.047 46.784C103.047 45.584 103.311 44.488 103.839 43.496C104.383 42.504 105.151 41.712 106.143 41.12C107.151 40.512 108.335 40.208 109.695 40.208C111.071 40.208 112.247 40.512 113.223 41.12C114.199 41.712 114.943 42.504 115.455 43.496C115.983 44.472 116.247 45.528 116.247 46.664C116.247 46.856 116.239 47.056 116.223 47.264C116.207 47.456 116.191 47.616 116.175 47.744H106.455C106.519 48.384 106.703 48.944 107.007 49.424C107.327 49.904 107.727 50.272 108.207 50.528C108.703 50.768 109.231 50.888 109.791 50.888C110.431 50.888 111.031 50.736 111.591 50.432C112.167 50.112 112.559 49.696 112.767 49.184L115.527 49.952C115.223 50.592 114.783 51.16 114.207 51.656C113.647 52.152 112.983 52.544 112.215 52.832C111.447 53.104 110.599 53.24 109.671 53.24ZM106.383 45.704H112.959C112.895 45.064 112.711 44.512 112.407 44.048C112.119 43.568 111.735 43.2 111.255 42.944C110.775 42.672 110.239 42.536 109.647 42.536C109.071 42.536 108.543 42.672 108.063 42.944C107.599 43.2 107.215 43.568 106.911 44.048C106.623 44.512 106.447 45.064 106.383 45.704ZM125.694 43.208C124.718 43.208 123.846 43.4 123.078 43.784C122.31 44.152 121.758 44.688 121.422 45.392V53H118.206V40.424H121.158V43.112C121.606 42.248 122.174 41.568 122.862 41.072C123.55 40.576 124.278 40.304 125.046 40.256C125.222 40.256 125.358 40.256 125.454 40.256C125.55 40.256 125.63 40.264 125.694 40.28V43.208ZM137.346 53.24C136.274 53.24 135.25 53.064 134.274 52.712C133.298 52.36 132.458 51.84 131.754 51.152L132.906 49.064C133.658 49.672 134.394 50.12 135.114 50.408C135.85 50.696 136.554 50.84 137.226 50.84C137.85 50.84 138.346 50.728 138.714 50.504C139.098 50.28 139.29 49.944 139.29 49.496C139.29 49.192 139.186 48.96 138.978 48.8C138.77 48.624 138.466 48.472 138.066 48.344C137.682 48.216 137.21 48.072 136.65 47.912C135.722 47.608 134.946 47.312 134.322 47.024C133.698 46.736 133.226 46.376 132.906 45.944C132.602 45.496 132.45 44.928 132.45 44.24C132.45 43.408 132.658 42.696 133.074 42.104C133.506 41.496 134.098 41.024 134.85 40.688C135.618 40.352 136.514 40.184 137.538 40.184C138.434 40.184 139.282 40.328 140.082 40.616C140.882 40.888 141.61 41.336 142.266 41.96L140.97 44C140.33 43.504 139.722 43.144 139.146 42.92C138.57 42.68 137.986 42.56 137.394 42.56C137.058 42.56 136.738 42.6 136.434 42.68C136.146 42.76 135.906 42.896 135.714 43.088C135.538 43.264 135.45 43.52 135.45 43.856C135.45 44.16 135.53 44.4 135.69 44.576C135.866 44.736 136.122 44.88 136.458 45.008C136.81 45.136 137.234 45.28 137.73 45.44C138.738 45.728 139.586 46.024 140.274 46.328C140.978 46.632 141.506 47.008 141.858 47.456C142.21 47.888 142.386 48.488 142.386 49.256C142.386 50.504 141.93 51.48 141.018 52.184C140.106 52.888 138.882 53.24 137.346 53.24ZM144.453 48.296V40.424H147.669V47.6C147.669 48.56 147.845 49.288 148.197 49.784C148.549 50.264 149.069 50.504 149.757 50.504C150.173 50.504 150.581 50.424 150.981 50.264C151.397 50.088 151.773 49.832 152.109 49.496C152.461 49.16 152.757 48.736 152.997 48.224V40.424H156.213V49.4C156.213 49.736 156.269 49.976 156.381 50.12C156.509 50.264 156.709 50.352 156.981 50.384V53C156.661 53.048 156.389 53.08 156.165 53.096C155.957 53.128 155.765 53.144 155.589 53.144C155.013 53.144 154.541 53.016 154.173 52.76C153.821 52.488 153.613 52.12 153.549 51.656L153.477 50.648C152.917 51.496 152.197 52.144 151.317 52.592C150.437 53.024 149.469 53.24 148.413 53.24C147.117 53.24 146.133 52.824 145.461 51.992C144.789 51.144 144.453 49.912 144.453 48.296ZM165.265 53.24C164.241 53.24 163.321 53.072 162.505 52.736C161.689 52.384 160.993 51.904 160.417 51.296C159.841 50.672 159.393 49.968 159.073 49.184C158.769 48.4 158.617 47.576 158.617 46.712C158.617 45.528 158.881 44.448 159.409 43.472C159.953 42.48 160.721 41.688 161.713 41.096C162.705 40.504 163.881 40.208 165.241 40.208C166.601 40.208 167.769 40.504 168.745 41.096C169.721 41.688 170.449 42.464 170.929 43.424L167.785 44.384C167.513 43.92 167.153 43.568 166.705 43.328C166.257 43.072 165.761 42.944 165.217 42.944C164.609 42.944 164.049 43.104 163.537 43.424C163.041 43.728 162.649 44.168 162.361 44.744C162.073 45.304 161.929 45.96 161.929 46.712C161.929 47.448 162.073 48.104 162.361 48.68C162.665 49.24 163.065 49.688 163.561 50.024C164.057 50.344 164.609 50.504 165.217 50.504C165.601 50.504 165.961 50.44 166.297 50.312C166.649 50.184 166.961 50.008 167.233 49.784C167.505 49.56 167.705 49.304 167.833 49.016L170.977 49.976C170.689 50.6 170.265 51.16 169.705 51.656C169.161 52.152 168.513 52.544 167.761 52.832C167.025 53.104 166.193 53.24 165.265 53.24ZM178.671 53.24C177.663 53.24 176.751 53.072 175.935 52.736C175.119 52.384 174.423 51.912 173.847 51.32C173.271 50.712 172.823 50.024 172.503 49.256C172.199 48.472 172.047 47.648 172.047 46.784C172.047 45.584 172.311 44.488 172.839 43.496C173.383 42.504 174.151 41.712 175.143 41.12C176.151 40.512 177.335 40.208 178.695 40.208C180.071 40.208 181.247 40.512 182.223 41.12C183.199 41.712 183.943 42.504 184.455 43.496C184.983 44.472 185.247 45.528 185.247 46.664C185.247 46.856 185.239 47.056 185.223 47.264C185.207 47.456 185.191 47.616 185.175 47.744H175.455C175.519 48.384 175.703 48.944 176.007 49.424C176.327 49.904 176.727 50.272 177.207 50.528C177.703 50.768 178.231 50.888 178.791 50.888C179.431 50.888 180.031 50.736 180.591 50.432C181.167 50.112 181.559 49.696 181.767 49.184L184.527 49.952C184.223 50.592 183.783 51.16 183.207 51.656C182.647 52.152 181.983 52.544 181.215 52.832C180.447 53.104 179.599 53.24 178.671 53.24ZM175.383 45.704H181.959C181.895 45.064 181.711 44.512 181.407 44.048C181.119 43.568 180.735 43.2 180.255 42.944C179.775 42.672 179.239 42.536 178.647 42.536C178.071 42.536 177.543 42.672 177.063 42.944C176.599 43.2 176.215 43.568 175.911 44.048C175.623 44.512 175.447 45.064 175.383 45.704ZM191.838 53.24C190.766 53.24 189.742 53.064 188.766 52.712C187.79 52.36 186.95 51.84 186.246 51.152L187.398 49.064C188.15 49.672 188.886 50.12 189.606 50.408C190.342 50.696 191.046 50.84 191.718 50.84C192.342 50.84 192.838 50.728 193.206 50.504C193.59 50.28 193.782 49.944 193.782 49.496C193.782 49.192 193.678 48.96 193.47 48.8C193.262 48.624 192.958 48.472 192.558 48.344C192.174 48.216 191.702 48.072 191.142 47.912C190.214 47.608 189.438 47.312 188.814 47.024C188.19 46.736 187.718 46.376 187.398 45.944C187.094 45.496 186.942 44.928 186.942 44.24C186.942 43.408 187.15 42.696 187.566 42.104C187.998 41.496 188.59 41.024 189.342 40.688C190.11 40.352 191.006 40.184 192.03 40.184C192.926 40.184 193.774 40.328 194.574 40.616C195.374 40.888 196.102 41.336 196.758 41.96L195.462 44C194.822 43.504 194.214 43.144 193.638 42.92C193.062 42.68 192.478 42.56 191.886 42.56C191.55 42.56 191.23 42.6 190.926 42.68C190.638 42.76 190.398 42.896 190.206 43.088C190.03 43.264 189.942 43.52 189.942 43.856C189.942 44.16 190.022 44.4 190.182 44.576C190.358 44.736 190.614 44.88 190.95 45.008C191.302 45.136 191.726 45.28 192.222 45.44C193.23 45.728 194.078 46.024 194.766 46.328C195.47 46.632 195.998 47.008 196.35 47.456C196.702 47.888 196.878 48.488 196.878 49.256C196.878 50.504 196.422 51.48 195.51 52.184C194.598 52.888 193.374 53.24 191.838 53.24ZM203.698 53.24C202.626 53.24 201.602 53.064 200.626 52.712C199.65 52.36 198.81 51.84 198.106 51.152L199.258 49.064C200.01 49.672 200.746 50.12 201.466 50.408C202.202 50.696 202.906 50.84 203.578 50.84C204.202 50.84 204.698 50.728 205.066 50.504C205.45 50.28 205.642 49.944 205.642 49.496C205.642 49.192 205.538 48.96 205.33 48.8C205.122 48.624 204.818 48.472 204.418 48.344C204.034 48.216 203.562 48.072 203.002 47.912C202.074 47.608 201.298 47.312 200.674 47.024C200.05 46.736 199.578 46.376 199.258 45.944C198.954 45.496 198.802 44.928 198.802 44.24C198.802 43.408 199.01 42.696 199.426 42.104C199.858 41.496 200.45 41.024 201.202 40.688C201.97 40.352 202.866 40.184 203.89 40.184C204.786 40.184 205.634 40.328 206.434 40.616C207.234 40.888 207.962 41.336 208.618 41.96L207.322 44C206.682 43.504 206.074 43.144 205.498 42.92C204.922 42.68 204.338 42.56 203.746 42.56C203.41 42.56 203.09 42.6 202.786 42.68C202.498 42.76 202.258 42.896 202.066 43.088C201.89 43.264 201.802 43.52 201.802 43.856C201.802 44.16 201.882 44.4 202.042 44.576C202.218 44.736 202.474 44.88 202.81 45.008C203.162 45.136 203.586 45.28 204.082 45.44C205.09 45.728 205.938 46.024 206.626 46.328C207.33 46.632 207.858 47.008 208.21 47.456C208.562 47.888 208.738 48.488 208.738 49.256C208.738 50.504 208.282 51.48 207.37 52.184C206.458 52.888 205.234 53.24 203.698 53.24ZM216.733 53.24C215.709 53.24 214.789 53.072 213.973 52.736C213.157 52.384 212.461 51.904 211.885 51.296C211.325 50.688 210.893 49.992 210.589 49.208C210.285 48.424 210.133 47.6 210.133 46.736C210.133 45.856 210.285 45.024 210.589 44.24C210.893 43.456 211.325 42.76 211.885 42.152C212.461 41.544 213.157 41.072 213.973 40.736C214.789 40.384 215.709 40.208 216.733 40.208C217.757 40.208 218.669 40.384 219.469 40.736C220.285 41.072 220.981 41.544 221.557 42.152C222.133 42.76 222.565 43.456 222.853 44.24C223.157 45.024 223.309 45.856 223.309 46.736C223.309 47.6 223.157 48.424 222.853 49.208C222.565 49.992 222.133 50.688 221.557 51.296C220.997 51.904 220.309 52.384 219.493 52.736C218.677 53.072 217.757 53.24 216.733 53.24ZM213.445 46.736C213.445 47.472 213.589 48.128 213.877 48.704C214.165 49.264 214.557 49.704 215.053 50.024C215.549 50.344 216.109 50.504 216.733 50.504C217.341 50.504 217.893 50.344 218.389 50.024C218.885 49.688 219.277 49.24 219.565 48.68C219.869 48.104 220.021 47.448 220.021 46.712C220.021 45.992 219.869 45.344 219.565 44.768C219.277 44.192 218.885 43.744 218.389 43.424C217.893 43.104 217.341 42.944 216.733 42.944C216.109 42.944 215.549 43.112 215.053 43.448C214.557 43.768 214.165 44.216 213.877 44.792C213.589 45.352 213.445 46 213.445 46.736ZM43.296 85.24C42.288 85.24 41.376 85.072 40.56 84.736C39.744 84.384 39.048 83.912 38.472 83.32C37.896 82.712 37.448 82.024 37.128 81.256C36.824 80.472 36.672 79.648 36.672 78.784C36.672 77.584 36.936 76.488 37.464 75.496C38.008 74.504 38.776 73.712 39.768 73.12C40.776 72.512 41.96 72.208 43.32 72.208C44.696 72.208 45.872 72.512 46.848 73.12C47.824 73.712 48.568 74.504 49.08 75.496C49.608 76.472 49.872 77.528 49.872 78.664C49.872 78.856 49.864 79.056 49.848 79.264C49.832 79.456 49.816 79.616 49.8 79.744H40.08C40.144 80.384 40.328 80.944 40.632 81.424C40.952 81.904 41.352 82.272 41.832 82.528C42.328 82.768 42.856 82.888 43.416 82.888C44.056 82.888 44.656 82.736 45.216 82.432C45.792 82.112 46.184 81.696 46.392 81.184L49.152 81.952C48.848 82.592 48.408 83.16 47.832 83.656C47.272 84.152 46.608 84.544 45.84 84.832C45.072 85.104 44.224 85.24 43.296 85.24ZM40.008 77.704H46.584C46.52 77.064 46.336 76.512 46.032 76.048C45.744 75.568 45.36 75.2 44.88 74.944C44.4 74.672 43.864 74.536 43.272 74.536C42.696 74.536 42.168 74.672 41.688 74.944C41.224 75.2 40.84 75.568 40.536 76.048C40.248 76.512 40.072 77.064 40.008 77.704ZM65.0848 75.208C64.1088 75.208 63.2368 75.4 62.4688 75.784C61.7008 76.152 61.1488 76.688 60.8128 77.392V85H57.5968V72.424H60.5488V75.112C60.9968 74.248 61.5648 73.568 62.2528 73.072C62.9408 72.576 63.6688 72.304 64.4368 72.256C64.6128 72.256 64.7488 72.256 64.8448 72.256C64.9408 72.256 65.0208 72.264 65.0848 72.28V75.208ZM72.546 85.24C71.538 85.24 70.626 85.072 69.81 84.736C68.994 84.384 68.298 83.912 67.722 83.32C67.146 82.712 66.698 82.024 66.378 81.256C66.074 80.472 65.922 79.648 65.922 78.784C65.922 77.584 66.186 76.488 66.714 75.496C67.258 74.504 68.026 73.712 69.018 73.12C70.026 72.512 71.21 72.208 72.57 72.208C73.946 72.208 75.122 72.512 76.098 73.12C77.074 73.712 77.818 74.504 78.33 75.496C78.858 76.472 79.122 77.528 79.122 78.664C79.122 78.856 79.114 79.056 79.098 79.264C79.082 79.456 79.066 79.616 79.05 79.744H69.33C69.394 80.384 69.578 80.944 69.882 81.424C70.202 81.904 70.602 82.272 71.082 82.528C71.578 82.768 72.106 82.888 72.666 82.888C73.306 82.888 73.906 82.736 74.466 82.432C75.042 82.112 75.434 81.696 75.642 81.184L78.402 81.952C78.098 82.592 77.658 83.16 77.082 83.656C76.522 84.152 75.858 84.544 75.09 84.832C74.322 85.104 73.474 85.24 72.546 85.24ZM69.258 77.704H75.834C75.77 77.064 75.586 76.512 75.282 76.048C74.994 75.568 74.61 75.2 74.13 74.944C73.65 74.672 73.114 74.536 72.522 74.536C71.946 74.536 71.418 74.672 70.938 74.944C70.474 75.2 70.09 75.568 69.786 76.048C69.498 76.512 69.322 77.064 69.258 77.704ZM85.7132 85.24C84.6412 85.24 83.6172 85.064 82.6412 84.712C81.6652 84.36 80.8252 83.84 80.1212 83.152L81.2732 81.064C82.0252 81.672 82.7612 82.12 83.4812 82.408C84.2172 82.696 84.9212 82.84 85.5932 82.84C86.2172 82.84 86.7132 82.728 87.0812 82.504C87.4652 82.28 87.6572 81.944 87.6572 81.496C87.6572 81.192 87.5532 80.96 87.3452 80.8C87.1372 80.624 86.8332 80.472 86.4332 80.344C86.0492 80.216 85.5772 80.072 85.0172 79.912C84.0892 79.608 83.3132 79.312 82.6892 79.024C82.0652 78.736 81.5932 78.376 81.2732 77.944C80.9692 77.496 80.8172 76.928 80.8172 76.24C80.8172 75.408 81.0252 74.696 81.4412 74.104C81.8732 73.496 82.4652 73.024 83.2172 72.688C83.9852 72.352 84.8812 72.184 85.9052 72.184C86.8012 72.184 87.6492 72.328 88.4492 72.616C89.2492 72.888 89.9772 73.336 90.6332 73.96L89.3372 76C88.6972 75.504 88.0892 75.144 87.5132 74.92C86.9372 74.68 86.3532 74.56 85.7612 74.56C85.4252 74.56 85.1052 74.6 84.8012 74.68C84.5132 74.76 84.2732 74.896 84.0812 75.088C83.9052 75.264 83.8172 75.52 83.8172 75.856C83.8172 76.16 83.8972 76.4 84.0572 76.576C84.2332 76.736 84.4892 76.88 84.8252 77.008C85.1772 77.136 85.6012 77.28 86.0972 77.44C87.1052 77.728 87.9532 78.024 88.6412 78.328C89.3452 78.632 89.8732 79.008 90.2252 79.456C90.5772 79.888 90.7532 80.488 90.7532 81.256C90.7532 82.504 90.2972 83.48 89.3852 84.184C88.4732 84.888 87.2492 85.24 85.7132 85.24ZM92.8206 80.296V72.424H96.0366V79.6C96.0366 80.56 96.2126 81.288 96.5646 81.784C96.9166 82.264 97.4366 82.504 98.1246 82.504C98.5406 82.504 98.9486 82.424 99.3486 82.264C99.7646 82.088 100.141 81.832 100.477 81.496C100.829 81.16 101.125 80.736 101.365 80.224V72.424H104.581V81.4C104.581 81.736 104.637 81.976 104.749 82.12C104.877 82.264 105.077 82.352 105.349 82.384V85C105.029 85.048 104.757 85.08 104.533 85.096C104.325 85.128 104.133 85.144 103.957 85.144C103.381 85.144 102.909 85.016 102.541 84.76C102.189 84.488 101.981 84.12 101.917 83.656L101.845 82.648C101.285 83.496 100.565 84.144 99.6846 84.592C98.8046 85.024 97.8366 85.24 96.7806 85.24C95.4846 85.24 94.5006 84.824 93.8286 83.992C93.1566 83.144 92.8206 81.912 92.8206 80.296ZM107.753 67.48H110.969V80.968C110.969 81.544 111.065 81.936 111.257 82.144C111.449 82.336 111.713 82.432 112.049 82.432C112.305 82.432 112.569 82.4 112.841 82.336C113.113 82.272 113.353 82.192 113.561 82.096L113.993 84.544C113.561 84.752 113.057 84.912 112.48 85.024C111.905 85.136 111.385 85.192 110.921 85.192C109.913 85.192 109.129 84.928 108.569 84.4C108.025 83.856 107.753 83.088 107.753 82.096V67.48ZM122.789 84.352C122.517 84.464 122.189 84.592 121.805 84.736C121.421 84.88 121.005 84.992 120.557 85.072C120.125 85.168 119.685 85.216 119.237 85.216C118.645 85.216 118.101 85.112 117.605 84.904C117.109 84.696 116.709 84.368 116.405 83.92C116.117 83.456 115.973 82.856 115.973 82.12V74.896H114.317V72.424H115.973V68.344H119.189V72.424H121.829V74.896H119.189V81.04C119.205 81.472 119.325 81.784 119.549 81.976C119.773 82.168 120.053 82.264 120.389 82.264C120.725 82.264 121.053 82.208 121.373 82.096C121.693 81.984 121.949 81.888 122.141 81.808L122.789 84.352ZM123.6 81.28C123.6 80.464 123.824 79.752 124.272 79.144C124.736 78.52 125.376 78.04 126.192 77.704C127.008 77.368 127.944 77.2 129 77.2C129.528 77.2 130.064 77.24 130.608 77.32C131.152 77.4 131.624 77.528 132.024 77.704V77.032C132.024 76.232 131.784 75.616 131.304 75.184C130.84 74.752 130.144 74.536 129.216 74.536C128.528 74.536 127.872 74.656 127.248 74.896C126.624 75.136 125.968 75.488 125.28 75.952L124.248 73.84C125.08 73.296 125.928 72.888 126.792 72.616C127.672 72.344 128.592 72.208 129.552 72.208C131.344 72.208 132.736 72.656 133.728 73.552C134.736 74.448 135.24 75.728 135.24 77.392V81.4C135.24 81.736 135.296 81.976 135.408 82.12C135.536 82.264 135.736 82.352 136.008 82.384V85C135.72 85.048 135.456 85.088 135.216 85.12C134.992 85.152 134.8 85.168 134.64 85.168C134 85.168 133.512 85.024 133.176 84.736C132.856 84.448 132.656 84.096 132.576 83.68L132.504 83.032C131.96 83.736 131.28 84.28 130.464 84.664C129.648 85.048 128.816 85.24 127.968 85.24C127.136 85.24 126.384 85.072 125.712 84.736C125.056 84.384 124.536 83.912 124.152 83.32C123.784 82.712 123.6 82.032 123.6 81.28ZM131.424 81.928C131.6 81.736 131.744 81.544 131.856 81.352C131.968 81.16 132.024 80.984 132.024 80.824V79.552C131.64 79.392 131.224 79.272 130.776 79.192C130.328 79.096 129.904 79.048 129.504 79.048C128.672 79.048 127.984 79.232 127.44 79.6C126.912 79.952 126.648 80.424 126.648 81.016C126.648 81.336 126.736 81.64 126.912 81.928C127.088 82.216 127.344 82.448 127.68 82.624C128.016 82.8 128.416 82.888 128.88 82.888C129.36 82.888 129.832 82.8 130.296 82.624C130.76 82.432 131.136 82.2 131.424 81.928ZM137.477 78.712C137.477 77.496 137.717 76.4 138.197 75.424C138.677 74.432 139.341 73.648 140.189 73.072C141.037 72.496 142.005 72.208 143.093 72.208C144.021 72.208 144.853 72.44 145.589 72.904C146.341 73.352 146.925 73.928 147.341 74.632V67.48H150.557V81.4C150.557 81.736 150.613 81.976 150.725 82.12C150.837 82.264 151.029 82.352 151.301 82.384V85C150.741 85.112 150.285 85.168 149.933 85.168C149.357 85.168 148.877 85.024 148.493 84.736C148.125 84.448 147.917 84.072 147.869 83.608L147.821 82.816C147.357 83.6 146.725 84.2 145.925 84.616C145.141 85.032 144.317 85.24 143.453 85.24C142.589 85.24 141.789 85.072 141.053 84.736C140.333 84.4 139.701 83.936 139.157 83.344C138.629 82.752 138.213 82.064 137.909 81.28C137.621 80.48 137.477 79.624 137.477 78.712ZM147.341 80.392V77.392C147.181 76.928 146.925 76.512 146.573 76.144C146.221 75.776 145.829 75.488 145.397 75.28C144.965 75.056 144.533 74.944 144.101 74.944C143.605 74.944 143.157 75.048 142.757 75.256C142.357 75.464 142.005 75.744 141.701 76.096C141.413 76.448 141.189 76.856 141.029 77.32C140.885 77.784 140.813 78.272 140.813 78.784C140.813 79.296 140.893 79.784 141.053 80.248C141.229 80.696 141.477 81.088 141.797 81.424C142.117 81.76 142.485 82.024 142.901 82.216C143.333 82.408 143.797 82.504 144.293 82.504C144.597 82.504 144.901 82.456 145.205 82.36C145.525 82.248 145.821 82.104 146.093 81.928C146.381 81.736 146.629 81.512 146.837 81.256C147.061 80.984 147.229 80.696 147.341 80.392ZM159.522 85.24C158.498 85.24 157.578 85.072 156.762 84.736C155.946 84.384 155.25 83.904 154.674 83.296C154.114 82.688 153.682 81.992 153.378 81.208C153.074 80.424 152.922 79.6 152.922 78.736C152.922 77.856 153.074 77.024 153.378 76.24C153.682 75.456 154.114 74.76 154.674 74.152C155.25 73.544 155.946 73.072 156.762 72.736C157.578 72.384 158.498 72.208 159.522 72.208C160.546 72.208 161.458 72.384 162.258 72.736C163.074 73.072 163.77 73.544 164.346 74.152C164.922 74.76 165.354 75.456 165.642 76.24C165.946 77.024 166.098 77.856 166.098 78.736C166.098 79.6 165.946 80.424 165.642 81.208C165.354 81.992 164.922 82.688 164.346 83.296C163.786 83.904 163.098 84.384 162.282 84.736C161.466 85.072 160.546 85.24 159.522 85.24ZM156.234 78.736C156.234 79.472 156.378 80.128 156.666 80.704C156.954 81.264 157.346 81.704 157.842 82.024C158.338 82.344 158.898 82.504 159.522 82.504C160.13 82.504 160.682 82.344 161.178 82.024C161.674 81.688 162.066 81.24 162.354 80.68C162.658 80.104 162.81 79.448 162.81 78.712C162.81 77.992 162.658 77.344 162.354 76.768C162.066 76.192 161.674 75.744 161.178 75.424C160.682 75.104 160.13 74.944 159.522 74.944C158.898 74.944 158.338 75.112 157.842 75.448C157.346 75.768 156.954 76.216 156.666 76.792C156.378 77.352 156.234 78 156.234 78.736ZM168.299 87.76L168.947 84.904H167.939V81.544H170.723V84.904L169.739 87.76H168.299Z" fill="white"/>
<path d="M191.043 85H187.827V77.944C187.827 76.936 187.651 76.2 187.299 75.736C186.947 75.272 186.459 75.04 185.835 75.04C185.403 75.04 184.963 75.152 184.515 75.376C184.083 75.6 183.691 75.912 183.339 76.312C182.987 76.696 182.731 77.144 182.571 77.656V85H179.355V72.424H182.259V74.752C182.579 74.208 182.987 73.752 183.483 73.384C183.979 73 184.547 72.712 185.187 72.52C185.843 72.312 186.531 72.208 187.251 72.208C188.035 72.208 188.675 72.352 189.171 72.64C189.683 72.912 190.067 73.288 190.323 73.768C190.595 74.232 190.779 74.76 190.875 75.352C190.987 75.944 191.043 76.544 191.043 77.152V85ZM192.975 81.28C192.975 80.464 193.199 79.752 193.647 79.144C194.111 78.52 194.751 78.04 195.567 77.704C196.383 77.368 197.319 77.2 198.375 77.2C198.903 77.2 199.439 77.24 199.983 77.32C200.527 77.4 200.999 77.528 201.399 77.704V77.032C201.399 76.232 201.159 75.616 200.679 75.184C200.215 74.752 199.519 74.536 198.591 74.536C197.903 74.536 197.247 74.656 196.623 74.896C195.999 75.136 195.343 75.488 194.655 75.952L193.623 73.84C194.455 73.296 195.303 72.888 196.167 72.616C197.047 72.344 197.967 72.208 198.927 72.208C200.719 72.208 202.111 72.656 203.103 73.552C204.111 74.448 204.615 75.728 204.615 77.392V81.4C204.615 81.736 204.671 81.976 204.783 82.12C204.911 82.264 205.111 82.352 205.383 82.384V85C205.095 85.048 204.831 85.088 204.591 85.12C204.367 85.152 204.175 85.168 204.015 85.168C203.375 85.168 202.887 85.024 202.551 84.736C202.231 84.448 202.031 84.096 201.951 83.68L201.879 83.032C201.335 83.736 200.655 84.28 199.839 84.664C199.023 85.048 198.191 85.24 197.343 85.24C196.511 85.24 195.759 85.072 195.087 84.736C194.431 84.384 193.911 83.912 193.527 83.32C193.159 82.712 192.975 82.032 192.975 81.28ZM200.799 81.928C200.975 81.736 201.119 81.544 201.231 81.352C201.343 81.16 201.399 80.984 201.399 80.824V79.552C201.015 79.392 200.599 79.272 200.151 79.192C199.703 79.096 199.279 79.048 198.879 79.048C198.047 79.048 197.359 79.232 196.815 79.6C196.287 79.952 196.023 80.424 196.023 81.016C196.023 81.336 196.111 81.64 196.287 81.928C196.463 82.216 196.719 82.448 197.055 82.624C197.391 82.8 197.791 82.888 198.255 82.888C198.735 82.888 199.207 82.8 199.671 82.624C200.135 82.432 200.511 82.2 200.799 81.928ZM200.463 70.552C199.983 70.552 199.567 70.464 199.215 70.288C198.879 70.096 198.567 69.912 198.279 69.736C197.991 69.56 197.671 69.472 197.319 69.472C196.967 69.472 196.703 69.568 196.527 69.76C196.367 69.936 196.263 70.12 196.215 70.312C196.183 70.504 196.167 70.608 196.167 70.624H194.391C194.391 70.48 194.439 70.24 194.535 69.904C194.631 69.568 194.783 69.224 194.991 68.872C195.215 68.504 195.503 68.192 195.855 67.936C196.223 67.68 196.671 67.552 197.199 67.552C197.695 67.552 198.103 67.648 198.423 67.84C198.743 68.032 199.047 68.224 199.335 68.416C199.639 68.592 199.983 68.68 200.367 68.68C200.751 68.68 201.031 68.584 201.207 68.392C201.383 68.2 201.495 68.008 201.543 67.816C201.607 67.624 201.639 67.512 201.639 67.48H203.415C203.415 67.592 203.367 67.808 203.271 68.128C203.175 68.448 203.007 68.8 202.767 69.184C202.543 69.552 202.239 69.872 201.855 70.144C201.487 70.416 201.023 70.552 200.463 70.552ZM213.428 85.24C212.404 85.24 211.484 85.072 210.668 84.736C209.852 84.384 209.156 83.904 208.58 83.296C208.02 82.688 207.588 81.992 207.284 81.208C206.98 80.424 206.828 79.6 206.828 78.736C206.828 77.856 206.98 77.024 207.284 76.24C207.588 75.456 208.02 74.76 208.58 74.152C209.156 73.544 209.852 73.072 210.668 72.736C211.484 72.384 212.404 72.208 213.428 72.208C214.452 72.208 215.364 72.384 216.164 72.736C216.98 73.072 217.676 73.544 218.252 74.152C218.828 74.76 219.26 75.456 219.548 76.24C219.852 77.024 220.004 77.856 220.004 78.736C220.004 79.6 219.852 80.424 219.548 81.208C219.26 81.992 218.828 82.688 218.252 83.296C217.692 83.904 217.004 84.384 216.188 84.736C215.372 85.072 214.452 85.24 213.428 85.24ZM210.14 78.736C210.14 79.472 210.284 80.128 210.572 80.704C210.86 81.264 211.252 81.704 211.748 82.024C212.244 82.344 212.804 82.504 213.428 82.504C214.036 82.504 214.588 82.344 215.084 82.024C215.58 81.688 215.972 81.24 216.26 80.68C216.564 80.104 216.716 79.448 216.716 78.712C216.716 77.992 216.564 77.344 216.26 76.768C215.972 76.192 215.58 75.744 215.084 75.424C214.588 75.104 214.036 74.944 213.428 74.944C212.804 74.944 212.244 75.112 211.748 75.448C211.252 75.768 210.86 76.216 210.572 76.792C210.284 77.352 210.14 78 210.14 78.736ZM43.296 117.24C42.288 117.24 41.376 117.072 40.56 116.736C39.744 116.384 39.048 115.912 38.472 115.32C37.896 114.712 37.448 114.024 37.128 113.256C36.824 112.472 36.672 111.648 36.672 110.784C36.672 109.584 36.936 108.488 37.464 107.496C38.008 106.504 38.776 105.712 39.768 105.12C40.776 104.512 41.96 104.208 43.32 104.208C44.696 104.208 45.872 104.512 46.848 105.12C47.824 105.712 48.568 106.504 49.08 107.496C49.608 108.472 49.872 109.528 49.872 110.664C49.872 110.856 49.864 111.056 49.848 111.264C49.832 111.456 49.816 111.616 49.8 111.744H40.08C40.144 112.384 40.328 112.944 40.632 113.424C40.952 113.904 41.352 114.272 41.832 114.528C42.328 114.768 42.856 114.888 43.416 114.888C44.056 114.888 44.656 114.736 45.216 114.432C45.792 114.112 46.184 113.696 46.392 113.184L49.152 113.952C48.848 114.592 48.408 115.16 47.832 115.656C47.272 116.152 46.608 116.544 45.84 116.832C45.072 117.104 44.224 117.24 43.296 117.24ZM40.008 109.704H46.584C46.52 109.064 46.336 108.512 46.032 108.048C45.744 107.568 45.36 107.2 44.88 106.944C44.4 106.672 43.864 106.536 43.272 106.536C42.696 106.536 42.168 106.672 41.688 106.944C41.224 107.2 40.84 107.568 40.536 108.048C40.248 108.512 40.072 109.064 40.008 109.704ZM53.4264 104.424L56.0664 108.36L56.2584 108.792L56.4984 108.36L59.1144 104.424H62.4984L58.1304 110.688L62.5704 117H59.1864L56.4744 113.088L56.2584 112.68L56.0664 113.088L53.3784 117H49.9944L54.4344 110.76L50.0664 104.424H53.4264ZM64.1124 117V104.424H67.3284V117H64.1124ZM64.1124 102.672V99.48H67.3284V102.672H64.1124ZM74.8616 117.24C73.7896 117.24 72.7656 117.064 71.7896 116.712C70.8136 116.36 69.9736 115.84 69.2696 115.152L70.4216 113.064C71.1736 113.672 71.9096 114.12 72.6296 114.408C73.3656 114.696 74.0696 114.84 74.7416 114.84C75.3656 114.84 75.8616 114.728 76.2296 114.504C76.6136 114.28 76.8056 113.944 76.8056 113.496C76.8056 113.192 76.7016 112.96 76.4936 112.8C76.2856 112.624 75.9816 112.472 75.5816 112.344C75.1976 112.216 74.7256 112.072 74.1656 111.912C73.2376 111.608 72.4616 111.312 71.8376 111.024C71.2136 110.736 70.7416 110.376 70.4216 109.944C70.1176 109.496 69.9656 108.928 69.9656 108.24C69.9656 107.408 70.1736 106.696 70.5896 106.104C71.0216 105.496 71.6136 105.024 72.3656 104.688C73.1336 104.352 74.0296 104.184 75.0536 104.184C75.9496 104.184 76.7976 104.328 77.5976 104.616C78.3976 104.888 79.1256 105.336 79.7816 105.96L78.4856 108C77.8456 107.504 77.2376 107.144 76.6616 106.92C76.0856 106.68 75.5016 106.56 74.9096 106.56C74.5736 106.56 74.2536 106.6 73.9496 106.68C73.6616 106.76 73.4216 106.896 73.2296 107.088C73.0536 107.264 72.9656 107.52 72.9656 107.856C72.9656 108.16 73.0456 108.4 73.2056 108.576C73.3816 108.736 73.6376 108.88 73.9736 109.008C74.3256 109.136 74.7496 109.28 75.2456 109.44C76.2536 109.728 77.1016 110.024 77.7896 110.328C78.4936 110.632 79.0216 111.008 79.3736 111.456C79.7256 111.888 79.9016 112.488 79.9016 113.256C79.9016 114.504 79.4456 115.48 78.5336 116.184C77.6216 116.888 76.3976 117.24 74.8616 117.24ZM89.5547 116.352C89.2827 116.464 88.9547 116.592 88.5707 116.736C88.1867 116.88 87.7707 116.992 87.3227 117.072C86.8907 117.168 86.4507 117.216 86.0027 117.216C85.4107 117.216 84.8667 117.112 84.3707 116.904C83.8747 116.696 83.4747 116.368 83.1707 115.92C82.8827 115.456 82.7387 114.856 82.7387 114.12V106.896H81.0827V104.424H82.7387V100.344H85.9547V104.424H88.5947V106.896H85.9547V113.04C85.9707 113.472 86.0907 113.784 86.3147 113.976C86.5387 114.168 86.8187 114.264 87.1547 114.264C87.4907 114.264 87.8187 114.208 88.1387 114.096C88.4587 113.984 88.7147 113.888 88.9067 113.808L89.5547 116.352ZM96.8976 117.24C95.8896 117.24 94.9776 117.072 94.1616 116.736C93.3456 116.384 92.6496 115.912 92.0736 115.32C91.4976 114.712 91.0496 114.024 90.7296 113.256C90.4256 112.472 90.2736 111.648 90.2736 110.784C90.2736 109.584 90.5376 108.488 91.0656 107.496C91.6096 106.504 92.3776 105.712 93.3696 105.12C94.3776 104.512 95.5616 104.208 96.9216 104.208C98.2976 104.208 99.4736 104.512 100.45 105.12C101.426 105.712 102.17 106.504 102.682 107.496C103.21 108.472 103.474 109.528 103.474 110.664C103.474 110.856 103.466 111.056 103.45 111.264C103.434 111.456 103.418 111.616 103.402 111.744H93.6816C93.7456 112.384 93.9296 112.944 94.2336 113.424C94.5536 113.904 94.9536 114.272 95.4336 114.528C95.9296 114.768 96.4576 114.888 97.0176 114.888C97.6576 114.888 98.2576 114.736 98.8176 114.432C99.3936 114.112 99.7856 113.696 99.9936 113.184L102.754 113.952C102.45 114.592 102.01 115.16 101.434 115.656C100.874 116.152 100.21 116.544 99.4416 116.832C98.6736 117.104 97.8256 117.24 96.8976 117.24ZM93.6096 109.704H100.186C100.122 109.064 99.9376 108.512 99.6336 108.048C99.3456 107.568 98.9616 107.2 98.4816 106.944C98.0016 106.672 97.4656 106.536 96.8736 106.536C96.2976 106.536 95.7696 106.672 95.2896 106.944C94.8256 107.2 94.4416 107.568 94.1376 108.048C93.8496 108.512 93.6736 109.064 93.6096 109.704ZM110.334 113.28C110.334 112.464 110.558 111.752 111.006 111.144C111.47 110.52 112.11 110.04 112.926 109.704C113.742 109.368 114.678 109.2 115.734 109.2C116.262 109.2 116.798 109.24 117.342 109.32C117.886 109.4 118.358 109.528 118.758 109.704V109.032C118.758 108.232 118.518 107.616 118.038 107.184C117.574 106.752 116.878 106.536 115.95 106.536C115.262 106.536 114.606 106.656 113.982 106.896C113.358 107.136 112.702 107.488 112.014 107.952L110.982 105.84C111.814 105.296 112.662 104.888 113.526 104.616C114.406 104.344 115.326 104.208 116.286 104.208C118.078 104.208 119.47 104.656 120.462 105.552C121.47 106.448 121.974 107.728 121.974 109.392V113.4C121.974 113.736 122.03 113.976 122.142 114.12C122.27 114.264 122.47 114.352 122.742 114.384V117C122.454 117.048 122.19 117.088 121.95 117.12C121.726 117.152 121.534 117.168 121.374 117.168C120.734 117.168 120.246 117.024 119.91 116.736C119.59 116.448 119.39 116.096 119.31 115.68L119.238 115.032C118.694 115.736 118.014 116.28 117.198 116.664C116.382 117.048 115.55 117.24 114.702 117.24C113.87 117.24 113.118 117.072 112.446 116.736C111.79 116.384 111.27 115.912 110.886 115.32C110.518 114.712 110.334 114.032 110.334 113.28ZM118.158 113.928C118.334 113.736 118.478 113.544 118.59 113.352C118.702 113.16 118.758 112.984 118.758 112.824V111.552C118.374 111.392 117.958 111.272 117.51 111.192C117.062 111.096 116.638 111.048 116.238 111.048C115.406 111.048 114.718 111.232 114.174 111.6C113.646 111.952 113.382 112.424 113.382 113.016C113.382 113.336 113.47 113.64 113.646 113.928C113.822 114.216 114.078 114.448 114.414 114.624C114.75 114.8 115.15 114.888 115.614 114.888C116.094 114.888 116.566 114.8 117.03 114.624C117.494 114.432 117.87 114.2 118.158 113.928ZM132.398 116.352C132.126 116.464 131.798 116.592 131.414 116.736C131.03 116.88 130.614 116.992 130.166 117.072C129.734 117.168 129.294 117.216 128.846 117.216C128.254 117.216 127.71 117.112 127.214 116.904C126.718 116.696 126.318 116.368 126.014 115.92C125.726 115.456 125.582 114.856 125.582 114.12V106.896H123.926V104.424H125.582V100.344H128.798V104.424H131.438V106.896H128.798V113.04C128.814 113.472 128.934 113.784 129.158 113.976C129.382 114.168 129.662 114.264 129.998 114.264C130.334 114.264 130.662 114.208 130.982 114.096C131.302 113.984 131.558 113.888 131.75 113.808L132.398 116.352ZM133.209 113.28C133.209 112.464 133.433 111.752 133.881 111.144C134.345 110.52 134.985 110.04 135.801 109.704C136.617 109.368 137.553 109.2 138.609 109.2C139.137 109.2 139.673 109.24 140.217 109.32C140.761 109.4 141.233 109.528 141.633 109.704V109.032C141.633 108.232 141.393 107.616 140.913 107.184C140.449 106.752 139.753 106.536 138.825 106.536C138.137 106.536 137.481 106.656 136.857 106.896C136.233 107.136 135.577 107.488 134.889 107.952L133.857 105.84C134.689 105.296 135.537 104.888 136.401 104.616C137.281 104.344 138.201 104.208 139.161 104.208C140.953 104.208 142.345 104.656 143.337 105.552C144.345 106.448 144.849 107.728 144.849 109.392V113.4C144.849 113.736 144.905 113.976 145.017 114.12C145.145 114.264 145.345 114.352 145.617 114.384V117C145.329 117.048 145.065 117.088 144.825 117.12C144.601 117.152 144.409 117.168 144.249 117.168C143.609 117.168 143.121 117.024 142.785 116.736C142.465 116.448 142.265 116.096 142.185 115.68L142.113 115.032C141.569 115.736 140.889 116.28 140.073 116.664C139.257 117.048 138.425 117.24 137.577 117.24C136.745 117.24 135.993 117.072 135.321 116.736C134.665 116.384 134.145 115.912 133.761 115.32C133.393 114.712 133.209 114.032 133.209 113.28ZM141.033 113.928C141.209 113.736 141.353 113.544 141.465 113.352C141.577 113.16 141.633 112.984 141.633 112.824V111.552C141.249 111.392 140.833 111.272 140.385 111.192C139.937 111.096 139.513 111.048 139.113 111.048C138.281 111.048 137.593 111.232 137.049 111.6C136.521 111.952 136.257 112.424 136.257 113.016C136.257 113.336 136.345 113.64 136.521 113.928C136.697 114.216 136.953 114.448 137.289 114.624C137.625 114.8 138.025 114.888 138.489 114.888C138.969 114.888 139.441 114.8 139.905 114.624C140.369 114.432 140.745 114.2 141.033 113.928ZM147.831 99.48H151.047V112.968C151.047 113.544 151.143 113.936 151.335 114.144C151.527 114.336 151.791 114.432 152.127 114.432C152.383 114.432 152.647 114.4 152.919 114.336C153.191 114.272 153.431 114.192 153.639 114.096L154.071 116.544C153.639 116.752 153.135 116.912 152.559 117.024C151.983 117.136 151.463 117.192 150.999 117.192C149.991 117.192 149.207 116.928 148.647 116.4C148.103 115.856 147.831 115.088 147.831 114.096V99.48ZM167.16 117H163.944V109.944C163.944 108.968 163.752 108.24 163.368 107.76C163 107.28 162.488 107.04 161.832 107.04C161.448 107.04 161.04 107.152 160.608 107.376C160.176 107.6 159.784 107.912 159.432 108.312C159.096 108.696 158.848 109.144 158.688 109.656V117H155.472V99.48H158.688V106.752C159.152 105.952 159.784 105.328 160.584 104.88C161.384 104.432 162.256 104.208 163.2 104.208C164.016 104.208 164.68 104.352 165.192 104.64C165.704 104.912 166.104 105.288 166.392 105.768C166.68 106.232 166.88 106.76 166.992 107.352C167.104 107.928 167.16 108.528 167.16 109.152V117ZM175.764 117.24C174.74 117.24 173.82 117.072 173.004 116.736C172.188 116.384 171.492 115.904 170.916 115.296C170.356 114.688 169.924 113.992 169.62 113.208C169.316 112.424 169.164 111.6 169.164 110.736C169.164 109.856 169.316 109.024 169.62 108.24C169.924 107.456 170.356 106.76 170.916 106.152C171.492 105.544 172.188 105.072 173.004 104.736C173.82 104.384 174.74 104.208 175.764 104.208C176.788 104.208 177.7 104.384 178.5 104.736C179.316 105.072 180.012 105.544 180.588 106.152C181.164 106.76 181.596 107.456 181.884 108.24C182.188 109.024 182.34 109.856 182.34 110.736C182.34 111.6 182.188 112.424 181.884 113.208C181.596 113.992 181.164 114.688 180.588 115.296C180.028 115.904 179.34 116.384 178.524 116.736C177.708 117.072 176.788 117.24 175.764 117.24ZM172.476 110.736C172.476 111.472 172.62 112.128 172.908 112.704C173.196 113.264 173.588 113.704 174.084 114.024C174.58 114.344 175.14 114.504 175.764 114.504C176.372 114.504 176.924 114.344 177.42 114.024C177.916 113.688 178.308 113.24 178.596 112.68C178.9 112.104 179.052 111.448 179.052 110.712C179.052 109.992 178.9 109.344 178.596 108.768C178.308 108.192 177.916 107.744 177.42 107.424C176.924 107.104 176.372 106.944 175.764 106.944C175.14 106.944 174.58 107.112 174.084 107.448C173.588 107.768 173.196 108.216 172.908 108.792C172.62 109.352 172.476 110 172.476 110.736ZM184.181 117V113.544H186.821V117H184.181Z" fill="#E8AE29"/>
<defs>
<linearGradient id="paint0_linear_1522_22251" x1="10.3825" y1="32.7001" x2="363.969" y2="55.2567" gradientUnits="userSpaceOnUse">
<stop stop-color="#DC1D54"/>
<stop offset="1" stop-color="#C11345"/>
</linearGradient>
<clipPath id="clip0_1522_22251">
<rect width="1071" height="1071" fill="white" transform="translate(1 -420.5)"/>
</clipPath>
</defs>
</svg>
