<svg width="1072" height="210" viewBox="0 0 1072 210" fill="none" xmlns="http://www.w3.org/2000/svg">
<rect width="1072" height="210" rx="24" fill="url(#paint0_linear_13_775)"/>
<mask id="mask0_13_775" style="mask-type:alpha" maskUnits="userSpaceOnUse" x="0" y="0" width="1072" height="210">
<rect width="1072" height="210" rx="24" fill="#DC1D54"/>
</mask>
<g mask="url(#mask0_13_775)">
<g opacity="0.5">
<g clip-path="url(#clip0_13_775)">
<path d="M536.5 115L1 -420.5H83.3813C275.383 -204.008 426.423 -25.5081 536.5 115Z" fill="#C11345"/>
<path d="M536.5 115C444.158 -37.7532 320.583 -216.253 165.773 -420.5H248.155C367.121 -226.292 463.236 -47.792 536.5 115Z" fill="#C11345"/>
<path d="M536.5 115C483.4 -55.4175 414.745 -233.918 330.536 -420.5H412.928C463.137 -239.073 504.327 -60.5726 536.5 115Z" fill="#C11345"/>
<path d="M536.5 115C525.726 -63.1716 511.996 -241.672 495.309 -420.5H577.691C561.004 -241.672 547.274 -63.1716 536.5 115Z" fill="#C11345"/>
<path d="M536.5 115C568.673 -60.5797 609.863 -239.08 660.072 -420.5H742.464C658.262 -233.918 589.607 -55.4175 536.5 115Z" fill="#C11345"/>
<path d="M536.5 115C609.756 -47.792 705.871 -226.292 824.845 -420.5H907.227C752.424 -216.296 628.849 -37.796 536.5 115Z" fill="#C11345"/>
<path d="M536.5 115C646.585 -25.5152 797.624 -204.015 989.619 -420.5H1072L536.5 115Z" fill="#C11345"/>
<path d="M536.5 115C677.015 4.90839 855.515 -146.131 1072 -338.119V-255.727C867.76 -100.924 689.26 22.6513 536.5 115Z" fill="#C11345"/>
<path d="M536.5 115C699.292 41.7436 877.792 -54.3715 1072 -173.345V-90.964C885.425 -6.76198 706.925 61.8927 536.5 115Z" fill="#C11345"/>
<path d="M536.5 115C712.08 82.8272 890.58 41.6365 1072 -8.57199V73.8093C893.179 90.4955 714.679 104.226 536.5 115Z" fill="#C11345"/>
<path d="M536.5 115C714.672 125.774 893.172 139.504 1072 156.191V238.572C890.573 188.363 712.073 147.173 536.5 115Z" fill="#C11345"/>
<path d="M536.5 115C706.918 168.1 885.418 236.755 1072 320.964V403.345C877.792 284.379 699.292 188.264 536.5 115Z" fill="#C11345"/>
<path d="M536.5 115C689.253 207.342 867.753 330.917 1072 485.727V568.119C855.508 376.117 677.008 225.077 536.5 115Z" fill="#C11345"/>
<path d="M536.5 115L1072 650.5H989.619C797.617 434.008 646.577 255.508 536.5 115Z" fill="#C11345"/>
<path d="M536.5 115C628.842 267.753 752.417 446.253 907.227 650.5H824.845C705.879 456.292 609.764 277.792 536.5 115Z" fill="#C11345"/>
<path d="M536.5 115C589.6 285.418 658.255 463.918 742.464 650.5H660.072C609.863 469.073 568.673 290.573 536.5 115Z" fill="#C11345"/>
<path d="M536.5 115C547.274 293.172 561.004 471.672 577.691 650.5H495.309C511.996 471.679 525.726 293.179 536.5 115Z" fill="#C11345"/>
<path d="M536.5 115C504.327 290.58 463.137 469.08 412.928 650.5H330.536C414.738 463.925 483.393 285.425 536.5 115Z" fill="#C11345"/>
<path d="M536.5 115C463.244 277.792 367.128 456.292 248.155 650.5H165.773C320.576 446.26 444.151 267.76 536.5 115Z" fill="#C11345"/>
<path d="M536.5 115C426.408 255.515 275.369 434.015 83.3813 650.5H1L536.5 115Z" fill="#C11345"/>
<path d="M536.5 115C395.985 225.085 217.485 376.124 1 568.119V485.727C205.204 330.924 383.704 207.349 536.5 115Z" fill="#C11345"/>
<path d="M536.5 115C373.708 188.256 195.208 284.372 1 403.345V320.964C187.582 236.762 366.082 168.107 536.5 115Z" fill="#C11345"/>
<path d="M536.5 115C360.92 147.173 182.42 188.363 1 238.572V156.191C179.828 139.504 358.328 125.774 536.5 115Z" fill="#C11345"/>
<path d="M536.5 115C358.328 104.226 179.828 90.4955 1 73.8093V-8.57199C182.427 41.6365 360.927 82.8272 536.5 115Z" fill="#C11345"/>
<path d="M536.5 115C366.082 61.8998 187.582 -6.75485 1 -90.964V-173.345C195.208 -54.3786 373.708 41.7365 536.5 115Z" fill="#C11345"/>
<path d="M536.5 115C383.747 22.6584 205.247 -100.917 1 -255.727V-338.119C217.492 -146.117 395.992 4.92267 536.5 115Z" fill="#C11345"/>
</g>
</g>
<path d="M-8 91.6265C14.5679 95.3001 70.5568 115.171 113.97 165.265C168.236 227.883 344.472 269.461 443.702 210.851C542.932 152.24 593.58 17.9938 765.165 32.0202C819.295 36.4452 855.427 51.4873 883 70.3903" stroke="white" stroke-linejoin="round" stroke-dasharray="5 5"/>
<rect x="529" y="27" width="12" height="183" rx="2" fill="#B59888"/>
<path d="M523.829 82.6566C523.829 84.0373 524.949 85.1566 526.329 85.1566H604.39C605.244 85.1566 606.04 84.7199 606.499 83.9988L618.25 65.533C618.787 64.6892 618.769 63.6067 618.205 62.7809L606.454 45.574C605.988 44.8919 605.216 44.4839 604.39 44.4839H526.329C524.949 44.4839 523.829 45.6032 523.829 46.9839V82.6566Z" fill="#329FBA" stroke="white" stroke-width="5" stroke-linecap="round" stroke-linejoin="round"/>
<path d="M523.829 190.763C523.829 192.144 524.949 193.263 526.329 193.263H627.735C628.475 193.263 629.177 192.935 629.652 192.367L644.918 174.118C645.715 173.165 645.691 171.77 644.86 170.844L629.595 153.84C629.121 153.312 628.445 153.01 627.735 153.01H526.329C524.949 153.01 523.829 154.129 523.829 155.51V190.763Z" fill="#E8AE29" stroke="white" stroke-width="5" stroke-linecap="round" stroke-linejoin="round"/>
<path d="M548.135 137.08C548.135 138.461 547.015 139.58 545.635 139.58H448.606C447.847 139.58 447.129 139.235 446.655 138.643L432.048 120.394C431.297 119.455 431.32 118.115 432.104 117.203L446.71 100.198C447.185 99.6454 447.877 99.3273 448.606 99.3273H545.635C547.015 99.3273 548.135 100.447 548.135 101.827V137.08Z" fill="#E02E3F" stroke="white" stroke-width="5" stroke-linecap="round" stroke-linejoin="round"/>
</g>
<path d="M125.499 82.3307V60.5169H134.901C135.966 60.5169 136.949 60.7422 137.85 61.1928C138.751 61.6229 139.519 62.1965 140.154 62.9133C140.81 63.6098 141.322 64.4188 141.691 65.3405C142.059 66.2418 142.244 67.1532 142.244 68.0749C142.244 69.0376 142.069 69.9798 141.721 70.9015C141.373 71.8027 140.881 72.6118 140.247 73.3287C139.632 74.0251 138.874 74.5884 137.973 75.0185C137.092 75.4281 136.119 75.633 135.054 75.633H131.49V82.3307H125.499ZM131.49 70.4099H134.655C135.023 70.4099 135.361 70.2461 135.669 69.9184C135.996 69.5702 136.16 68.9557 136.16 68.0749C136.16 67.1737 135.976 66.5592 135.607 66.2315C135.239 65.9038 134.87 65.7399 134.501 65.7399H131.49V70.4099ZM148.764 82.638C147.965 82.638 147.218 82.5049 146.521 82.2386C145.825 81.9723 145.221 81.6139 144.709 81.1632C144.217 80.6922 143.828 80.1391 143.541 79.5042C143.254 78.8692 143.111 78.183 143.111 77.4457C143.111 76.6264 143.285 75.8788 143.633 75.2028C143.982 74.5269 144.463 73.9432 145.077 73.4516C145.692 72.96 146.419 72.5811 147.259 72.3148C148.119 72.0485 149.061 71.9154 150.085 71.9154C151.396 71.9154 152.482 72.1202 153.342 72.5299V72.0383C153.342 71.2804 153.117 70.7172 152.666 70.3485C152.236 69.9798 151.529 69.7955 150.546 69.7955C149.624 69.7955 148.774 69.9491 147.996 70.2563C147.218 70.5431 146.398 70.9732 145.538 71.5467L143.848 67.9213C145.979 66.549 148.406 65.8628 151.13 65.8628C153.711 65.8628 155.698 66.4363 157.09 67.5834C158.483 68.7304 159.18 70.4509 159.18 72.7449V75.8788C159.18 76.4318 159.261 76.821 159.425 77.0463C159.589 77.2511 159.876 77.374 160.286 77.415V82.3307C159.815 82.4332 159.364 82.5049 158.934 82.5458C158.524 82.6073 158.155 82.638 157.828 82.638C156.783 82.638 155.984 82.4536 155.431 82.085C154.899 81.6958 154.551 81.1325 154.387 80.3952L154.264 79.8114C153.547 80.7331 152.717 81.4398 151.775 81.9313C150.833 82.4024 149.829 82.638 148.764 82.638ZM150.515 78.4596C150.864 78.4596 151.222 78.4084 151.591 78.3059C151.959 78.183 152.287 78.0294 152.574 77.8451C152.799 77.6812 152.984 77.5071 153.127 77.3228C153.27 77.118 153.342 76.9131 153.342 76.7083V75.5101C152.994 75.3872 152.615 75.2848 152.205 75.2028C151.796 75.1209 151.427 75.0799 151.099 75.0799C150.382 75.0799 149.788 75.254 149.317 75.6023C148.846 75.9505 148.611 76.3908 148.611 76.9234C148.611 77.374 148.785 77.7427 149.133 78.0294C149.502 78.3162 149.962 78.4596 150.515 78.4596ZM173.363 71.1473C172.236 71.1473 171.212 71.2702 170.29 71.516C169.369 71.7618 168.682 72.1714 168.232 72.7449V82.3307H162.394V66.1701H167.74V69.2424C168.314 68.1569 169.02 67.3273 169.86 66.7538C170.72 66.1598 171.642 65.8628 172.625 65.8628C173.014 65.8628 173.26 65.8731 173.363 65.8935V71.1473ZM179.758 82.638C178.959 82.638 178.212 82.5049 177.515 82.2386C176.819 81.9723 176.215 81.6139 175.702 81.1632C175.211 80.6922 174.822 80.1391 174.535 79.5042C174.248 78.8692 174.105 78.183 174.105 77.4457C174.105 76.6264 174.279 75.8788 174.627 75.2028C174.975 74.5269 175.457 73.9432 176.071 73.4516C176.686 72.96 177.413 72.5811 178.253 72.3148C179.113 72.0485 180.055 71.9154 181.079 71.9154C182.39 71.9154 183.476 72.1202 184.336 72.5299V72.0383C184.336 71.2804 184.111 70.7172 183.66 70.3485C183.23 69.9798 182.523 69.7955 181.54 69.7955C180.618 69.7955 179.768 69.9491 178.99 70.2563C178.212 70.5431 177.392 70.9732 176.532 71.5467L174.842 67.9213C176.972 66.549 179.4 65.8628 182.124 65.8628C184.704 65.8628 186.691 66.4363 188.084 67.5834C189.477 68.7304 190.173 70.4509 190.173 72.7449V75.8788C190.173 76.4318 190.255 76.821 190.419 77.0463C190.583 77.2511 190.87 77.374 191.279 77.415V82.3307C190.808 82.4332 190.358 82.5049 189.928 82.5458C189.518 82.6073 189.149 82.638 188.821 82.638C187.777 82.638 186.978 82.4536 186.425 82.085C185.892 81.6958 185.544 81.1325 185.38 80.3952L185.258 79.8114C184.541 80.7331 183.711 81.4398 182.769 81.9313C181.827 82.4024 180.823 82.638 179.758 82.638ZM181.509 78.4596C181.857 78.4596 182.216 78.4084 182.585 78.3059C182.953 78.183 183.281 78.0294 183.568 77.8451C183.793 77.6812 183.977 77.5071 184.121 77.3228C184.264 77.118 184.336 76.9131 184.336 76.7083V75.5101C183.988 75.3872 183.609 75.2848 183.199 75.2028C182.789 75.1209 182.421 75.0799 182.093 75.0799C181.376 75.0799 180.782 75.254 180.311 75.6023C179.84 75.9505 179.604 76.3908 179.604 76.9234C179.604 77.374 179.778 77.7427 180.127 78.0294C180.495 78.3162 180.956 78.4596 181.509 78.4596ZM211.626 81.4398C210.807 81.788 209.926 82.085 208.984 82.3307C208.062 82.5561 207.151 82.6687 206.249 82.6687C205.594 82.6687 204.969 82.5868 204.375 82.4229C203.781 82.2591 203.259 81.9928 202.808 81.6241C202.378 81.2554 202.03 80.7741 201.764 80.1801C201.518 79.5861 201.395 78.8487 201.395 77.968V70.5636H199.398V66.1701H201.395V61.1006H207.232V66.1701H210.397V70.5636H207.232V75.9095C207.232 76.442 207.345 76.821 207.57 77.0463C207.796 77.2511 208.103 77.3535 208.492 77.3535C208.779 77.3535 209.107 77.3125 209.475 77.2306C209.844 77.1282 210.213 76.9951 210.581 76.8312L211.626 81.4398ZM221.058 82.638C219.645 82.638 218.385 82.4229 217.279 81.9928C216.173 81.5422 215.241 80.9379 214.483 80.1801C213.746 79.4222 213.182 78.5517 212.793 77.5686C212.404 76.5854 212.209 75.551 212.209 74.4655C212.209 73.298 212.394 72.1919 212.762 71.1473C213.152 70.1027 213.715 69.1912 214.452 68.4129C215.21 67.6346 216.132 67.0201 217.217 66.5695C218.323 66.0984 219.604 65.8628 221.058 65.8628C222.492 65.8628 223.762 66.0984 224.868 66.5695C225.974 67.0201 226.895 67.6346 227.633 68.4129C228.391 69.1707 228.954 70.0617 229.323 71.0859C229.712 72.0895 229.906 73.1444 229.906 74.2504C229.906 74.5576 229.886 74.8751 229.845 75.2028C229.824 75.5101 229.794 75.7866 229.753 76.0324H218.416C218.477 76.8926 218.795 77.5174 219.368 77.9065C219.942 78.2752 220.566 78.4596 221.242 78.4596C221.877 78.4596 222.471 78.3162 223.024 78.0294C223.598 77.7427 223.977 77.3433 224.161 76.8312L229.108 78.2445C228.452 79.5349 227.438 80.5897 226.066 81.409C224.714 82.2283 223.045 82.638 221.058 82.638ZM223.639 72.5299C223.536 71.7515 223.25 71.1371 222.778 70.6865C222.307 70.2358 221.703 70.0105 220.966 70.0105C220.228 70.0105 219.624 70.2358 219.153 70.6865C218.682 71.1371 218.395 71.7515 218.293 72.5299H223.639ZM242.791 71.1473C241.665 71.1473 240.64 71.2702 239.719 71.516C238.797 71.7618 238.111 72.1714 237.66 72.7449V82.3307H231.823V66.1701H237.169V69.2424C237.742 68.1569 238.449 67.3273 239.289 66.7538C240.149 66.1598 241.071 65.8628 242.054 65.8628C242.443 65.8628 242.689 65.8731 242.791 65.8935V71.1473ZM257.572 82.638C256.159 82.638 254.776 82.4127 253.424 81.9621C252.073 81.491 250.926 80.815 249.983 79.9343L251.98 76.4318C252.984 77.1077 253.947 77.63 254.868 77.9987C255.811 78.3674 256.671 78.5517 257.449 78.5517C258.268 78.5517 258.678 78.2957 258.678 77.7836C258.678 77.4969 258.514 77.2511 258.187 77.0463C257.879 76.8414 257.265 76.6059 256.343 76.3396C255.196 76.0119 254.233 75.6944 253.455 75.3872C252.697 75.0595 252.073 74.7113 251.581 74.3426C251.11 73.9739 250.772 73.5642 250.567 73.1136C250.362 72.663 250.26 72.1305 250.26 71.516C250.26 70.6967 250.424 69.9388 250.751 69.2424C251.079 68.546 251.53 67.9418 252.103 67.4297C252.697 66.9177 253.394 66.5285 254.192 66.2622C255.012 65.9755 255.903 65.8321 256.865 65.8321C258.053 65.8321 259.18 65.9857 260.245 66.293C261.331 66.6002 262.416 67.2249 263.502 68.1671L261.29 71.6696C260.286 71.0142 259.446 70.5533 258.77 70.287C258.094 70.0003 257.459 69.8569 256.865 69.8569C256.517 69.8569 256.23 69.9286 256.005 70.072C255.78 70.1949 255.667 70.3997 255.667 70.6865C255.667 70.9937 255.831 71.2497 256.159 71.4545C256.487 71.6389 257.132 71.854 258.094 72.0997C259.262 72.407 260.245 72.7347 261.044 73.0829C261.843 73.4106 262.478 73.7793 262.949 74.189C263.44 74.5781 263.789 75.0287 263.993 75.5408C264.198 76.0324 264.301 76.6059 264.301 77.2613C264.301 78.1011 264.147 78.8487 263.84 79.5042C263.532 80.1596 263.082 80.7229 262.488 81.194C261.914 81.6651 261.208 82.0235 260.368 82.2693C259.549 82.5151 258.617 82.638 257.572 82.638ZM271.182 82.638C269.543 82.638 268.294 82.1464 267.434 81.1632C266.573 80.1596 266.143 78.7053 266.143 76.8005V66.1701H271.981V75.4794C271.981 76.1962 272.134 76.7493 272.442 77.1384C272.769 77.5276 273.21 77.7222 273.763 77.7222C274.213 77.7222 274.674 77.6198 275.145 77.415C275.616 77.2101 276.088 76.7595 276.559 76.0631V66.1701H282.396V75.8788C282.396 76.4318 282.478 76.821 282.642 77.0463C282.806 77.2511 283.093 77.374 283.502 77.415V82.3307C282.499 82.5356 281.679 82.638 281.044 82.638C279.058 82.638 277.91 81.8904 277.603 80.3952L277.48 79.8114C276.723 80.815 275.821 81.5422 274.777 81.9928C273.732 82.4229 272.534 82.638 271.182 82.638ZM284.998 74.2504C284.998 73.1444 285.193 72.0895 285.582 71.0859C285.971 70.0617 286.534 69.1707 287.272 68.4129C288.03 67.6346 288.962 67.0201 290.068 66.5695C291.174 66.0984 292.444 65.8628 293.877 65.8628C295.844 65.8628 297.482 66.2725 298.793 67.0918C300.125 67.9111 301.118 68.9659 301.773 70.2563L296.09 71.9768C295.537 71.178 294.789 70.7786 293.847 70.7786C293.048 70.7786 292.372 71.0859 291.819 71.7003C291.266 72.2943 290.989 73.1444 290.989 74.2504C290.989 75.3565 291.266 76.2167 291.819 76.8312C292.372 77.4252 293.048 77.7222 293.847 77.7222C294.789 77.7222 295.537 77.3228 296.09 76.524L301.773 78.2445C301.118 79.5349 300.125 80.5897 298.793 81.409C297.482 82.2283 295.844 82.638 293.877 82.638C292.444 82.638 291.174 82.4127 290.068 81.9621C288.962 81.491 288.03 80.8765 287.272 80.1186C286.534 79.3403 285.971 78.4493 285.582 77.4457C285.193 76.4216 284.998 75.3565 284.998 74.2504ZM311.429 82.638C310.016 82.638 308.756 82.4229 307.65 81.9928C306.544 81.5422 305.612 80.9379 304.854 80.1801C304.117 79.4222 303.553 78.5517 303.164 77.5686C302.775 76.5854 302.58 75.551 302.58 74.4655C302.58 73.298 302.765 72.1919 303.133 71.1473C303.523 70.1027 304.086 69.1912 304.823 68.4129C305.581 67.6346 306.503 67.0201 307.588 66.5695C308.694 66.0984 309.975 65.8628 311.429 65.8628C312.863 65.8628 314.133 66.0984 315.239 66.5695C316.345 67.0201 317.266 67.6346 318.004 68.4129C318.762 69.1707 319.325 70.0617 319.694 71.0859C320.083 72.0895 320.277 73.1444 320.277 74.2504C320.277 74.5576 320.257 74.8751 320.216 75.2028C320.195 75.5101 320.165 75.7866 320.124 76.0324H308.787C308.848 76.8926 309.166 77.5174 309.739 77.9065C310.313 78.2752 310.937 78.4596 311.613 78.4596C312.248 78.4596 312.842 78.3162 313.395 78.0294C313.969 77.7427 314.348 77.3433 314.532 76.8312L319.479 78.2445C318.823 79.5349 317.809 80.5897 316.437 81.409C315.085 82.2283 313.416 82.638 311.429 82.638ZM314.01 72.5299C313.907 71.7515 313.621 71.1371 313.149 70.6865C312.678 70.2358 312.074 70.0105 311.337 70.0105C310.599 70.0105 309.995 70.2358 309.524 70.6865C309.053 71.1371 308.766 71.7515 308.664 72.5299H314.01ZM328.861 82.638C327.447 82.638 326.065 82.4127 324.713 81.9621C323.361 81.491 322.214 80.815 321.272 79.9343L323.269 76.4318C324.273 77.1077 325.235 77.63 326.157 77.9987C327.099 78.3674 327.96 78.5517 328.738 78.5517C329.557 78.5517 329.967 78.2957 329.967 77.7836C329.967 77.4969 329.803 77.2511 329.475 77.0463C329.168 76.8414 328.554 76.6059 327.632 76.3396C326.485 76.0119 325.522 75.6944 324.744 75.3872C323.986 75.0595 323.361 74.7113 322.87 74.3426C322.399 73.9739 322.061 73.5642 321.856 73.1136C321.651 72.663 321.549 72.1305 321.549 71.516C321.549 70.6967 321.712 69.9388 322.04 69.2424C322.368 68.546 322.818 67.9418 323.392 67.4297C323.986 66.9177 324.682 66.5285 325.481 66.2622C326.3 65.9755 327.191 65.8321 328.154 65.8321C329.342 65.8321 330.469 65.9857 331.534 66.293C332.619 66.6002 333.705 67.2249 334.79 68.1671L332.578 71.6696C331.575 71.0142 330.735 70.5533 330.059 70.287C329.383 70.0003 328.748 69.8569 328.154 69.8569C327.806 69.8569 327.519 69.9286 327.294 70.072C327.069 70.1949 326.956 70.3997 326.956 70.6865C326.956 70.9937 327.12 71.2497 327.447 71.4545C327.775 71.6389 328.42 71.854 329.383 72.0997C330.551 72.407 331.534 72.7347 332.333 73.0829C333.131 73.4106 333.766 73.7793 334.237 74.189C334.729 74.5781 335.077 75.0287 335.282 75.5408C335.487 76.0324 335.589 76.6059 335.589 77.2613C335.589 78.1011 335.436 78.8487 335.128 79.5042C334.821 80.1596 334.371 80.7229 333.777 81.194C333.203 81.6651 332.496 82.0235 331.657 82.2693C330.837 82.5151 329.905 82.638 328.861 82.638ZM344.253 82.638C342.839 82.638 341.457 82.4127 340.105 81.9621C338.753 81.491 337.606 80.815 336.664 79.9343L338.661 76.4318C339.665 77.1077 340.627 77.63 341.549 77.9987C342.491 78.3674 343.351 78.5517 344.13 78.5517C344.949 78.5517 345.359 78.2957 345.359 77.7836C345.359 77.4969 345.195 77.2511 344.867 77.0463C344.56 76.8414 343.945 76.6059 343.024 76.3396C341.877 76.0119 340.914 75.6944 340.136 75.3872C339.378 75.0595 338.753 74.7113 338.262 74.3426C337.79 73.9739 337.452 73.5642 337.248 73.1136C337.043 72.663 336.94 72.1305 336.94 71.516C336.94 70.6967 337.104 69.9388 337.432 69.2424C337.76 68.546 338.21 67.9418 338.784 67.4297C339.378 66.9177 340.074 66.5285 340.873 66.2622C341.692 65.9755 342.583 65.8321 343.546 65.8321C344.734 65.8321 345.861 65.9857 346.926 66.293C348.011 66.6002 349.097 67.2249 350.182 68.1671L347.97 71.6696C346.967 71.0142 346.127 70.5533 345.451 70.287C344.775 70.0003 344.14 69.8569 343.546 69.8569C343.198 69.8569 342.911 69.9286 342.686 70.072C342.46 70.1949 342.348 70.3997 342.348 70.6865C342.348 70.9937 342.512 71.2497 342.839 71.4545C343.167 71.6389 343.812 71.854 344.775 72.0997C345.942 72.407 346.926 72.7347 347.724 73.0829C348.523 73.4106 349.158 73.7793 349.629 74.189C350.121 74.5781 350.469 75.0287 350.674 75.5408C350.879 76.0324 350.981 76.6059 350.981 77.2613C350.981 78.1011 350.828 78.8487 350.52 79.5042C350.213 80.1596 349.762 80.7229 349.168 81.194C348.595 81.6651 347.888 82.0235 347.048 82.2693C346.229 82.5151 345.297 82.638 344.253 82.638ZM360.935 82.638C359.481 82.638 358.2 82.4127 357.094 81.9621C356.009 81.491 355.087 80.8765 354.329 80.1186C353.592 79.3403 353.029 78.4493 352.639 77.4457C352.271 76.4216 352.086 75.3565 352.086 74.2504C352.086 73.1444 352.271 72.0895 352.639 71.0859C353.029 70.0617 353.592 69.1707 354.329 68.4129C355.087 67.6346 356.009 67.0201 357.094 66.5695C358.2 66.0984 359.481 65.8628 360.935 65.8628C362.369 65.8628 363.639 66.0984 364.745 66.5695C365.851 67.0201 366.772 67.6346 367.51 68.4129C368.268 69.1707 368.831 70.0617 369.2 71.0859C369.589 72.0895 369.783 73.1444 369.783 74.2504C369.783 75.3565 369.589 76.4216 369.2 77.4457C368.831 78.4493 368.268 79.3403 367.51 80.1186C366.772 80.8765 365.851 81.491 364.745 81.9621C363.639 82.4127 362.369 82.638 360.935 82.638ZM358.078 74.2504C358.078 75.336 358.344 76.186 358.876 76.8005C359.409 77.415 360.095 77.7222 360.935 77.7222C361.775 77.7222 362.461 77.415 362.993 76.8005C363.526 76.186 363.792 75.336 363.792 74.2504C363.792 73.1648 363.526 72.3148 362.993 71.7003C362.461 71.0859 361.775 70.7786 360.935 70.7786C360.095 70.7786 359.409 71.0859 358.876 71.7003C358.344 72.3148 358.078 73.1648 358.078 74.2504ZM134.212 118.638C132.799 118.638 131.539 118.423 130.433 117.993C129.327 117.542 128.395 116.938 127.637 116.18C126.9 115.422 126.337 114.552 125.948 113.569C125.558 112.585 125.364 111.551 125.364 110.465C125.364 109.298 125.548 108.192 125.917 107.147C126.306 106.103 126.869 105.191 127.607 104.413C128.365 103.635 129.286 103.02 130.372 102.569C131.478 102.098 132.758 101.863 134.212 101.863C135.646 101.863 136.916 102.098 138.022 102.569C139.128 103.02 140.05 103.635 140.787 104.413C141.545 105.171 142.108 106.062 142.477 107.086C142.866 108.09 143.061 109.144 143.061 110.25C143.061 110.558 143.04 110.875 142.999 111.203C142.979 111.51 142.948 111.787 142.907 112.032H131.57C131.632 112.893 131.949 113.517 132.523 113.907C133.096 114.275 133.721 114.46 134.397 114.46C135.032 114.46 135.626 114.316 136.179 114.029C136.752 113.743 137.131 113.343 137.315 112.831L142.262 114.244C141.606 115.535 140.593 116.59 139.22 117.409C137.868 118.228 136.199 118.638 134.212 118.638ZM136.793 108.53C136.691 107.752 136.404 107.137 135.933 106.686C135.462 106.236 134.858 106.011 134.12 106.011C133.383 106.011 132.779 106.236 132.307 106.686C131.836 107.137 131.55 107.752 131.447 108.53H136.793ZM162.846 107.147C161.72 107.147 160.696 107.27 159.774 107.516C158.852 107.762 158.166 108.171 157.715 108.745V118.331H151.878V102.17H157.224V105.242C157.797 104.157 158.504 103.327 159.344 102.754C160.204 102.16 161.126 101.863 162.109 101.863C162.498 101.863 162.744 101.873 162.846 101.894V107.147ZM172.617 118.638C171.204 118.638 169.944 118.423 168.838 117.993C167.732 117.542 166.8 116.938 166.042 116.18C165.305 115.422 164.741 114.552 164.352 113.569C163.963 112.585 163.769 111.551 163.769 110.465C163.769 109.298 163.953 108.192 164.322 107.147C164.711 106.103 165.274 105.191 166.011 104.413C166.769 103.635 167.691 103.02 168.777 102.569C169.883 102.098 171.163 101.863 172.617 101.863C174.051 101.863 175.321 102.098 176.427 102.569C177.533 103.02 178.455 103.635 179.192 104.413C179.95 105.171 180.513 106.062 180.882 107.086C181.271 108.09 181.465 109.144 181.465 110.25C181.465 110.558 181.445 110.875 181.404 111.203C181.383 111.51 181.353 111.787 181.312 112.032H169.975C170.036 112.893 170.354 113.517 170.927 113.907C171.501 114.275 172.125 114.46 172.801 114.46C173.436 114.46 174.03 114.316 174.583 114.029C175.157 113.743 175.536 113.343 175.72 112.831L180.667 114.244C180.011 115.535 178.997 116.59 177.625 117.409C176.273 118.228 174.604 118.638 172.617 118.638ZM175.198 108.53C175.095 107.752 174.809 107.137 174.338 106.686C173.866 106.236 173.262 106.011 172.525 106.011C171.787 106.011 171.183 106.236 170.712 106.686C170.241 107.137 169.954 107.752 169.852 108.53H175.198ZM190.049 118.638C188.636 118.638 187.253 118.413 185.901 117.962C184.549 117.491 183.402 116.815 182.46 115.934L184.457 112.432C185.461 113.108 186.423 113.63 187.345 113.999C188.287 114.367 189.148 114.552 189.926 114.552C190.745 114.552 191.155 114.296 191.155 113.784C191.155 113.497 190.991 113.251 190.663 113.046C190.356 112.841 189.742 112.606 188.82 112.34C187.673 112.012 186.71 111.694 185.932 111.387C185.174 111.059 184.549 110.711 184.058 110.343C183.587 109.974 183.249 109.564 183.044 109.114C182.839 108.663 182.737 108.13 182.737 107.516C182.737 106.697 182.9 105.939 183.228 105.242C183.556 104.546 184.007 103.942 184.58 103.43C185.174 102.918 185.87 102.529 186.669 102.262C187.489 101.975 188.38 101.832 189.342 101.832C190.53 101.832 191.657 101.986 192.722 102.293C193.807 102.6 194.893 103.225 195.979 104.167L193.766 107.67C192.763 107.014 191.923 106.553 191.247 106.287C190.571 106 189.936 105.857 189.342 105.857C188.994 105.857 188.707 105.929 188.482 106.072C188.257 106.195 188.144 106.4 188.144 106.686C188.144 106.994 188.308 107.25 188.636 107.455C188.963 107.639 189.608 107.854 190.571 108.1C191.739 108.407 192.722 108.735 193.521 109.083C194.319 109.411 194.954 109.779 195.426 110.189C195.917 110.578 196.265 111.029 196.47 111.541C196.675 112.032 196.777 112.606 196.777 113.261C196.777 114.101 196.624 114.849 196.317 115.504C196.009 116.16 195.559 116.723 194.965 117.194C194.391 117.665 193.685 118.024 192.845 118.269C192.025 118.515 191.093 118.638 190.049 118.638ZM203.659 118.638C202.02 118.638 200.771 118.146 199.91 117.163C199.05 116.16 198.62 114.705 198.62 112.8V102.17H204.458V111.479C204.458 112.196 204.611 112.749 204.918 113.138C205.246 113.528 205.687 113.722 206.24 113.722C206.69 113.722 207.151 113.62 207.622 113.415C208.093 113.21 208.564 112.76 209.035 112.063V102.17H214.873V111.879C214.873 112.432 214.955 112.821 215.119 113.046C215.283 113.251 215.569 113.374 215.979 113.415V118.331C214.975 118.536 214.156 118.638 213.521 118.638C211.534 118.638 210.387 117.89 210.08 116.395L209.957 115.811C209.199 116.815 208.298 117.542 207.253 117.993C206.209 118.423 205.011 118.638 203.659 118.638ZM218.243 95.9024H224.081V111.909C224.081 113.138 224.583 113.753 225.586 113.753C225.832 113.753 226.098 113.712 226.385 113.63C226.672 113.548 226.938 113.435 227.184 113.292L227.921 117.593C227.225 117.921 226.436 118.177 225.555 118.361C224.695 118.546 223.876 118.638 223.098 118.638C221.541 118.638 220.343 118.239 219.503 117.44C218.663 116.641 218.243 115.484 218.243 113.968V95.9024ZM240.204 117.44C239.385 117.788 238.504 118.085 237.562 118.331C236.64 118.556 235.729 118.669 234.828 118.669C234.172 118.669 233.548 118.587 232.954 118.423C232.36 118.259 231.837 117.993 231.387 117.624C230.957 117.255 230.608 116.774 230.342 116.18C230.096 115.586 229.973 114.849 229.973 113.968V106.564H227.976V102.17H229.973V97.1006H235.811V102.17H238.975V106.564H235.811V111.909C235.811 112.442 235.924 112.821 236.149 113.046C236.374 113.251 236.681 113.354 237.071 113.354C237.357 113.354 237.685 113.313 238.054 113.231C238.422 113.128 238.791 112.995 239.16 112.831L240.204 117.44ZM246.621 118.638C245.822 118.638 245.075 118.505 244.378 118.239C243.682 117.972 243.078 117.614 242.566 117.163C242.074 116.692 241.685 116.139 241.398 115.504C241.111 114.869 240.968 114.183 240.968 113.446C240.968 112.626 241.142 111.879 241.49 111.203C241.838 110.527 242.32 109.943 242.934 109.452C243.549 108.96 244.276 108.581 245.116 108.315C245.976 108.049 246.918 107.915 247.942 107.915C249.253 107.915 250.339 108.12 251.199 108.53V108.038C251.199 107.28 250.974 106.717 250.523 106.348C250.093 105.98 249.386 105.795 248.403 105.795C247.481 105.795 246.631 105.949 245.853 106.256C245.075 106.543 244.255 106.973 243.395 107.547L241.705 103.921C243.835 102.549 246.263 101.863 248.987 101.863C251.568 101.863 253.554 102.436 254.947 103.583C256.34 104.73 257.036 106.451 257.036 108.745V111.879C257.036 112.432 257.118 112.821 257.282 113.046C257.446 113.251 257.733 113.374 258.143 113.415V118.331C257.671 118.433 257.221 118.505 256.791 118.546C256.381 118.607 256.012 118.638 255.685 118.638C254.64 118.638 253.841 118.454 253.288 118.085C252.756 117.696 252.407 117.133 252.244 116.395L252.121 115.811C251.404 116.733 250.574 117.44 249.632 117.931C248.69 118.402 247.686 118.638 246.621 118.638ZM248.372 114.46C248.721 114.46 249.079 114.408 249.448 114.306C249.816 114.183 250.144 114.029 250.431 113.845C250.656 113.681 250.84 113.507 250.984 113.323C251.127 113.118 251.199 112.913 251.199 112.708V111.51C250.851 111.387 250.472 111.285 250.062 111.203C249.653 111.121 249.284 111.08 248.956 111.08C248.239 111.08 247.645 111.254 247.174 111.602C246.703 111.95 246.467 112.391 246.467 112.923C246.467 113.374 246.642 113.743 246.99 114.029C247.358 114.316 247.819 114.46 248.372 114.46ZM267.01 118.638C265.904 118.638 264.88 118.433 263.938 118.024C263.016 117.614 262.217 117.04 261.542 116.303C260.866 115.545 260.333 114.654 259.944 113.63C259.575 112.585 259.391 111.449 259.391 110.22C259.391 109.032 259.565 107.926 259.913 106.902C260.261 105.877 260.743 104.997 261.357 104.259C261.992 103.501 262.74 102.918 263.6 102.508C264.46 102.078 265.413 101.863 266.457 101.863C267.502 101.863 268.454 102.098 269.315 102.569C270.195 103.041 270.871 103.706 271.342 104.567V95.9024H277.18V111.879C277.18 112.432 277.262 112.821 277.426 113.046C277.59 113.251 277.876 113.374 278.286 113.415V118.331C277.282 118.536 276.463 118.638 275.828 118.638C273.841 118.638 272.694 117.89 272.387 116.395L272.264 115.811C271.711 116.795 270.964 117.511 270.021 117.962C269.079 118.413 268.075 118.638 267.01 118.638ZM268.608 113.722C269.673 113.722 270.595 113.169 271.373 112.063V109.175C271.086 108.458 270.667 107.885 270.113 107.455C269.56 107.004 268.977 106.779 268.362 106.779C267.932 106.779 267.533 106.871 267.164 107.055C266.816 107.239 266.509 107.496 266.242 107.823C265.997 108.151 265.792 108.53 265.628 108.96C265.484 109.39 265.413 109.851 265.413 110.343C265.413 111.367 265.7 112.186 266.273 112.8C266.867 113.415 267.645 113.722 268.608 113.722ZM288.641 118.638C287.187 118.638 285.907 118.413 284.801 117.962C283.715 117.491 282.793 116.876 282.036 116.119C281.298 115.34 280.735 114.449 280.346 113.446C279.977 112.422 279.793 111.356 279.793 110.25C279.793 109.144 279.977 108.09 280.346 107.086C280.735 106.062 281.298 105.171 282.036 104.413C282.793 103.635 283.715 103.02 284.801 102.569C285.907 102.098 287.187 101.863 288.641 101.863C290.075 101.863 291.345 102.098 292.451 102.569C293.557 103.02 294.479 103.635 295.216 104.413C295.974 105.171 296.537 106.062 296.906 107.086C297.295 108.09 297.49 109.144 297.49 110.25C297.49 111.356 297.295 112.422 296.906 113.446C296.537 114.449 295.974 115.34 295.216 116.119C294.479 116.876 293.557 117.491 292.451 117.962C291.345 118.413 290.075 118.638 288.641 118.638ZM285.784 110.25C285.784 111.336 286.05 112.186 286.583 112.8C287.115 113.415 287.801 113.722 288.641 113.722C289.481 113.722 290.167 113.415 290.7 112.8C291.232 112.186 291.498 111.336 291.498 110.25C291.498 109.165 291.232 108.315 290.7 107.7C290.167 107.086 289.481 106.779 288.641 106.779C287.801 106.779 287.115 107.086 286.583 107.7C286.05 108.315 285.784 109.165 285.784 110.25ZM300.263 123.154L301.369 118.331H299.617V112.678H304.441V118.331L302.782 123.154H300.263Z" fill="white"/>
<path d="M330.601 118.331H324.763V109.237C324.763 108.438 324.579 107.864 324.21 107.516C323.862 107.147 323.452 106.963 322.981 106.963C322.49 106.963 321.967 107.178 321.414 107.608C320.861 108.038 320.452 108.591 320.185 109.267V118.331H314.348V102.17H319.602V104.567C320.175 103.686 320.974 103.02 321.998 102.569C323.043 102.098 324.272 101.863 325.685 101.863C326.791 101.863 327.661 102.068 328.296 102.477C328.952 102.866 329.443 103.358 329.771 103.952C330.119 104.546 330.345 105.181 330.447 105.857C330.549 106.533 330.601 107.147 330.601 107.7V118.331ZM338.192 118.638C337.393 118.638 336.646 118.505 335.949 118.239C335.253 117.972 334.649 117.614 334.137 117.163C333.645 116.692 333.256 116.139 332.969 115.504C332.682 114.869 332.539 114.183 332.539 113.446C332.539 112.626 332.713 111.879 333.061 111.203C333.41 110.527 333.891 109.943 334.505 109.452C335.12 108.96 335.847 108.581 336.687 108.315C337.547 108.049 338.489 107.915 339.513 107.915C340.824 107.915 341.91 108.12 342.77 108.53V108.038C342.77 107.28 342.545 106.717 342.094 106.348C341.664 105.98 340.957 105.795 339.974 105.795C339.053 105.795 338.202 105.949 337.424 106.256C336.646 106.543 335.827 106.973 334.966 107.547L333.276 103.921C335.407 102.549 337.834 101.863 340.558 101.863C343.139 101.863 345.126 102.436 346.518 103.583C347.911 104.73 348.608 106.451 348.608 108.745V111.879C348.608 112.432 348.69 112.821 348.853 113.046C349.017 113.251 349.304 113.374 349.714 113.415V118.331C349.243 118.433 348.792 118.505 348.362 118.546C347.952 118.607 347.583 118.638 347.256 118.638C346.211 118.638 345.412 118.454 344.859 118.085C344.327 117.696 343.979 117.133 343.815 116.395L343.692 115.811C342.975 116.733 342.145 117.44 341.203 117.931C340.261 118.402 339.257 118.638 338.192 118.638ZM339.943 114.46C340.292 114.46 340.65 114.408 341.019 114.306C341.388 114.183 341.715 114.029 342.002 113.845C342.227 113.681 342.412 113.507 342.555 113.323C342.698 113.118 342.77 112.913 342.77 112.708V111.51C342.422 111.387 342.043 111.285 341.633 111.203C341.224 111.121 340.855 111.08 340.527 111.08C339.81 111.08 339.216 111.254 338.745 111.602C338.274 111.95 338.039 112.391 338.039 112.923C338.039 113.374 338.213 113.743 338.561 114.029C338.93 114.316 339.39 114.46 339.943 114.46ZM342.524 100.757C342.053 100.757 341.633 100.685 341.265 100.542C340.916 100.378 340.589 100.204 340.281 100.019C339.974 99.8351 339.667 99.6712 339.36 99.5278C339.073 99.364 338.756 99.282 338.407 99.282C338.059 99.282 337.793 99.3537 337.608 99.4971C337.424 99.6405 337.281 99.8043 337.178 99.9887C337.096 100.173 337.045 100.347 337.025 100.511C337.004 100.654 336.994 100.736 336.994 100.757H333.891C333.891 100.49 333.963 100.091 334.106 99.5585C334.27 99.0055 334.526 98.4627 334.874 97.9302C335.222 97.3976 335.663 96.9265 336.195 96.5169C336.728 96.1072 337.383 95.9024 338.162 95.9024C338.653 95.9024 339.083 95.9843 339.452 96.1482C339.821 96.3121 340.159 96.4964 340.466 96.7012C340.773 96.8856 341.07 97.0597 341.357 97.2235C341.644 97.3874 341.961 97.4693 342.309 97.4693C342.637 97.4693 342.903 97.3976 343.108 97.2543C343.313 97.0904 343.466 96.9163 343.569 96.732C343.692 96.5271 343.763 96.3428 343.784 96.1789C343.825 96.0151 343.845 95.9229 343.845 95.9024H346.918C346.918 96.0868 346.836 96.4452 346.672 96.9778C346.508 97.4898 346.252 98.0326 345.904 98.6061C345.556 99.1591 345.105 99.661 344.552 100.112C343.999 100.542 343.323 100.757 342.524 100.757ZM359.78 118.638C358.325 118.638 357.045 118.413 355.939 117.962C354.854 117.491 353.932 116.876 353.174 116.119C352.437 115.34 351.874 114.449 351.484 113.446C351.116 112.422 350.931 111.356 350.931 110.25C350.931 109.144 351.116 108.09 351.484 107.086C351.874 106.062 352.437 105.171 353.174 104.413C353.932 103.635 354.854 103.02 355.939 102.569C357.045 102.098 358.325 101.863 359.78 101.863C361.214 101.863 362.483 102.098 363.589 102.569C364.696 103.02 365.617 103.635 366.355 104.413C367.112 105.171 367.676 106.062 368.044 107.086C368.434 108.09 368.628 109.144 368.628 110.25C368.628 111.356 368.434 112.422 368.044 113.446C367.676 114.449 367.112 115.34 366.355 116.119C365.617 116.876 364.696 117.491 363.589 117.962C362.483 118.413 361.214 118.638 359.78 118.638ZM356.922 110.25C356.922 111.336 357.189 112.186 357.721 112.8C358.254 113.415 358.94 113.722 359.78 113.722C360.62 113.722 361.306 113.415 361.838 112.8C362.371 112.186 362.637 111.336 362.637 110.25C362.637 109.165 362.371 108.315 361.838 107.7C361.306 107.086 360.62 106.779 359.78 106.779C358.94 106.779 358.254 107.086 357.721 107.7C357.189 108.315 356.922 109.165 356.922 110.25ZM154.54 153.638C153.127 153.638 151.867 153.423 150.761 152.993C149.655 152.542 148.723 151.938 147.965 151.18C147.228 150.422 146.664 149.552 146.275 148.569C145.886 147.585 145.691 146.551 145.691 145.465C145.691 144.298 145.876 143.192 146.244 142.147C146.634 141.103 147.197 140.191 147.934 139.413C148.692 138.635 149.614 138.02 150.699 137.569C151.805 137.098 153.086 136.863 154.54 136.863C155.974 136.863 157.243 137.098 158.35 137.569C159.456 138.02 160.377 138.635 161.115 139.413C161.873 140.171 162.436 141.062 162.804 142.086C163.194 143.09 163.388 144.144 163.388 145.25C163.388 145.558 163.368 145.875 163.327 146.203C163.306 146.51 163.276 146.787 163.235 147.032H151.898C151.959 147.893 152.276 148.517 152.85 148.907C153.423 149.275 154.048 149.46 154.724 149.46C155.359 149.46 155.953 149.316 156.506 149.029C157.08 148.743 157.459 148.343 157.643 147.831L162.589 149.244C161.934 150.535 160.92 151.59 159.548 152.409C158.196 153.228 156.527 153.638 154.54 153.638ZM157.121 143.53C157.018 142.752 156.731 142.137 156.26 141.686C155.789 141.236 155.185 141.011 154.448 141.011C153.71 141.011 153.106 141.236 152.635 141.686C152.164 142.137 151.877 142.752 151.775 143.53H157.121ZM169.069 137.17L171.373 141.133L171.68 141.779L171.988 141.133L174.292 137.17H180.221L174.814 145.25L180.375 153.331H174.445L171.957 149.367L171.68 148.753L171.404 149.367L168.915 153.331H162.985L168.546 145.25L163.139 137.17H169.069ZM181.657 153.331V137.17H187.494V153.331H181.657ZM181.657 135.818V130.902H187.494V135.818H181.657ZM197.115 153.638C195.701 153.638 194.319 153.413 192.967 152.962C191.615 152.491 190.468 151.815 189.526 150.934L191.523 147.432C192.527 148.108 193.489 148.63 194.411 148.999C195.353 149.367 196.213 149.552 196.992 149.552C197.811 149.552 198.221 149.296 198.221 148.784C198.221 148.497 198.057 148.251 197.729 148.046C197.422 147.841 196.807 147.606 195.886 147.34C194.739 147.012 193.776 146.694 192.998 146.387C192.24 146.059 191.615 145.711 191.124 145.343C190.653 144.974 190.315 144.564 190.11 144.114C189.905 143.663 189.802 143.13 189.802 142.516C189.802 141.697 189.966 140.939 190.294 140.242C190.622 139.546 191.072 138.942 191.646 138.43C192.24 137.918 192.936 137.529 193.735 137.262C194.554 136.975 195.445 136.832 196.408 136.832C197.596 136.832 198.723 136.986 199.788 137.293C200.873 137.6 201.959 138.225 203.044 139.167L200.832 142.67C199.829 142.014 198.989 141.553 198.313 141.287C197.637 141 197.002 140.857 196.408 140.857C196.06 140.857 195.773 140.929 195.548 141.072C195.323 141.195 195.21 141.4 195.21 141.686C195.21 141.994 195.374 142.25 195.701 142.455C196.029 142.639 196.674 142.854 197.637 143.1C198.805 143.407 199.788 143.735 200.587 144.083C201.385 144.411 202.02 144.779 202.491 145.189C202.983 145.578 203.331 146.029 203.536 146.541C203.741 147.032 203.843 147.606 203.843 148.261C203.843 149.101 203.69 149.849 203.382 150.504C203.075 151.16 202.625 151.723 202.031 152.194C201.457 152.665 200.75 153.024 199.911 153.269C199.091 153.515 198.159 153.638 197.115 153.638ZM216.997 152.44C216.177 152.788 215.297 153.085 214.354 153.331C213.433 153.556 212.521 153.669 211.62 153.669C210.964 153.669 210.34 153.587 209.746 153.423C209.152 153.259 208.629 152.993 208.179 152.624C207.749 152.255 207.401 151.774 207.134 151.18C206.888 150.586 206.766 149.849 206.766 148.968V141.564H204.769V137.17H206.766V132.101H212.603V137.17H215.768V141.564H212.603V146.909C212.603 147.442 212.716 147.821 212.941 148.046C213.166 148.251 213.474 148.354 213.863 148.354C214.15 148.354 214.477 148.313 214.846 148.231C215.215 148.128 215.583 147.995 215.952 147.831L216.997 152.44ZM226.429 153.638C225.015 153.638 223.756 153.423 222.65 152.993C221.543 152.542 220.612 151.938 219.854 151.18C219.116 150.422 218.553 149.552 218.164 148.569C217.775 147.585 217.58 146.551 217.58 145.465C217.58 144.298 217.764 143.192 218.133 142.147C218.522 141.103 219.086 140.191 219.823 139.413C220.581 138.635 221.503 138.02 222.588 137.569C223.694 137.098 224.974 136.863 226.429 136.863C227.862 136.863 229.132 137.098 230.238 137.569C231.344 138.02 232.266 138.635 233.003 139.413C233.761 140.171 234.325 141.062 234.693 142.086C235.082 143.09 235.277 144.144 235.277 145.25C235.277 145.558 235.256 145.875 235.216 146.203C235.195 146.51 235.164 146.787 235.123 147.032H223.786C223.848 147.893 224.165 148.517 224.739 148.907C225.312 149.275 225.937 149.46 226.613 149.46C227.248 149.46 227.842 149.316 228.395 149.029C228.968 148.743 229.347 148.343 229.532 147.831L234.478 149.244C233.823 150.535 232.809 151.59 231.437 152.409C230.085 153.228 228.415 153.638 226.429 153.638ZM229.009 143.53C228.907 142.752 228.62 142.137 228.149 141.686C227.678 141.236 227.074 141.011 226.336 141.011C225.599 141.011 224.995 141.236 224.524 141.686C224.053 142.137 223.766 142.752 223.663 143.53H229.009ZM248.856 153.638C248.058 153.638 247.31 153.505 246.614 153.239C245.917 152.972 245.313 152.614 244.801 152.163C244.309 151.692 243.92 151.139 243.633 150.504C243.347 149.869 243.203 149.183 243.203 148.446C243.203 147.626 243.377 146.879 243.726 146.203C244.074 145.527 244.555 144.943 245.17 144.452C245.784 143.96 246.511 143.581 247.351 143.315C248.211 143.049 249.153 142.915 250.178 142.915C251.488 142.915 252.574 143.12 253.434 143.53V143.038C253.434 142.28 253.209 141.717 252.758 141.348C252.328 140.98 251.622 140.795 250.638 140.795C249.717 140.795 248.867 140.949 248.088 141.256C247.31 141.543 246.491 141.973 245.63 142.547L243.941 138.921C246.071 137.549 248.498 136.863 251.222 136.863C253.803 136.863 255.79 137.436 257.183 138.583C258.575 139.73 259.272 141.451 259.272 143.745V146.879C259.272 147.432 259.354 147.821 259.518 148.046C259.681 148.251 259.968 148.374 260.378 148.415V153.331C259.907 153.433 259.456 153.505 259.026 153.546C258.616 153.607 258.248 153.638 257.92 153.638C256.875 153.638 256.076 153.454 255.523 153.085C254.991 152.696 254.643 152.133 254.479 151.395L254.356 150.811C253.639 151.733 252.81 152.44 251.867 152.931C250.925 153.402 249.921 153.638 248.856 153.638ZM250.608 149.46C250.956 149.46 251.314 149.408 251.683 149.306C252.052 149.183 252.379 149.029 252.666 148.845C252.891 148.681 253.076 148.507 253.219 148.323C253.363 148.118 253.434 147.913 253.434 147.708V146.51C253.086 146.387 252.707 146.285 252.297 146.203C251.888 146.121 251.519 146.08 251.191 146.08C250.475 146.08 249.881 146.254 249.409 146.602C248.938 146.95 248.703 147.391 248.703 147.923C248.703 148.374 248.877 148.743 249.225 149.029C249.594 149.316 250.055 149.46 250.608 149.46ZM273.643 152.44C272.824 152.788 271.943 153.085 271.001 153.331C270.08 153.556 269.168 153.669 268.267 153.669C267.611 153.669 266.987 153.587 266.393 153.423C265.799 153.259 265.276 152.993 264.826 152.624C264.396 152.255 264.047 151.774 263.781 151.18C263.535 150.586 263.412 149.849 263.412 148.968V141.564H261.415V137.17H263.412V132.101H269.25V137.17H272.415V141.564H269.25V146.909C269.25 147.442 269.363 147.821 269.588 148.046C269.813 148.251 270.12 148.354 270.51 148.354C270.796 148.354 271.124 148.313 271.493 148.231C271.862 148.128 272.23 147.995 272.599 147.831L273.643 152.44ZM280.06 153.638C279.261 153.638 278.514 153.505 277.817 153.239C277.121 152.972 276.517 152.614 276.005 152.163C275.513 151.692 275.124 151.139 274.837 150.504C274.55 149.869 274.407 149.183 274.407 148.446C274.407 147.626 274.581 146.879 274.929 146.203C275.278 145.527 275.759 144.943 276.373 144.452C276.988 143.96 277.715 143.581 278.555 143.315C279.415 143.049 280.357 142.915 281.381 142.915C282.692 142.915 283.778 143.12 284.638 143.53V143.038C284.638 142.28 284.413 141.717 283.962 141.348C283.532 140.98 282.825 140.795 281.842 140.795C280.92 140.795 280.07 140.949 279.292 141.256C278.514 141.543 277.694 141.973 276.834 142.547L275.144 138.921C277.275 137.549 279.702 136.863 282.426 136.863C285.007 136.863 286.994 137.436 288.386 138.583C289.779 139.73 290.476 141.451 290.476 143.745V146.879C290.476 147.432 290.557 147.821 290.721 148.046C290.885 148.251 291.172 148.374 291.582 148.415V153.331C291.11 153.433 290.66 153.505 290.23 153.546C289.82 153.607 289.451 153.638 289.124 153.638C288.079 153.638 287.28 153.454 286.727 153.085C286.195 152.696 285.846 152.133 285.683 151.395L285.56 150.811C284.843 151.733 284.013 152.44 283.071 152.931C282.129 153.402 281.125 153.638 280.06 153.638ZM281.811 149.46C282.16 149.46 282.518 149.408 282.887 149.306C283.255 149.183 283.583 149.029 283.87 148.845C284.095 148.681 284.28 148.507 284.423 148.323C284.566 148.118 284.638 147.913 284.638 147.708V146.51C284.29 146.387 283.911 146.285 283.501 146.203C283.092 146.121 282.723 146.08 282.395 146.08C281.678 146.08 281.084 146.254 280.613 146.602C280.142 146.95 279.907 147.391 279.907 147.923C279.907 148.374 280.081 148.743 280.429 149.029C280.798 149.316 281.258 149.46 281.811 149.46ZM293.567 130.902H299.405V146.909C299.405 148.138 299.907 148.753 300.91 148.753C301.156 148.753 301.422 148.712 301.709 148.63C301.996 148.548 302.262 148.435 302.508 148.292L303.245 152.593C302.549 152.921 301.76 153.177 300.88 153.361C300.019 153.546 299.2 153.638 298.422 153.638C296.865 153.638 295.667 153.239 294.827 152.44C293.987 151.641 293.567 150.484 293.567 148.968V130.902ZM320.864 153.331H315.027V144.237C315.027 143.438 314.843 142.864 314.474 142.516C314.126 142.147 313.685 141.963 313.153 141.963C312.968 141.963 312.743 142.024 312.477 142.147C312.231 142.25 311.975 142.403 311.709 142.608C311.463 142.793 311.227 143.028 311.002 143.315C310.777 143.602 310.592 143.919 310.449 144.267V153.331H304.612V130.902H310.449V139.567C311.023 138.686 311.77 138.02 312.692 137.569C313.614 137.098 314.648 136.863 315.795 136.863C316.922 136.863 317.823 137.057 318.499 137.447C319.175 137.836 319.687 138.327 320.035 138.921C320.383 139.495 320.608 140.12 320.711 140.795C320.813 141.471 320.864 142.106 320.864 142.7V153.331ZM331.651 153.638C330.197 153.638 328.917 153.413 327.811 152.962C326.725 152.491 325.804 151.876 325.046 151.119C324.308 150.34 323.745 149.449 323.356 148.446C322.987 147.422 322.803 146.356 322.803 145.25C322.803 144.144 322.987 143.09 323.356 142.086C323.745 141.062 324.308 140.171 325.046 139.413C325.804 138.635 326.725 138.02 327.811 137.569C328.917 137.098 330.197 136.863 331.651 136.863C333.085 136.863 334.355 137.098 335.461 137.569C336.567 138.02 337.489 138.635 338.226 139.413C338.984 140.171 339.547 141.062 339.916 142.086C340.305 143.09 340.5 144.144 340.5 145.25C340.5 146.356 340.305 147.422 339.916 148.446C339.547 149.449 338.984 150.34 338.226 151.119C337.489 151.876 336.567 152.491 335.461 152.962C334.355 153.413 333.085 153.638 331.651 153.638ZM328.794 145.25C328.794 146.336 329.06 147.186 329.593 147.8C330.125 148.415 330.812 148.722 331.651 148.722C332.491 148.722 333.177 148.415 333.71 147.8C334.242 147.186 334.509 146.336 334.509 145.25C334.509 144.165 334.242 143.315 333.71 142.7C333.177 142.086 332.491 141.779 331.651 141.779C330.812 141.779 330.125 142.086 329.593 142.7C329.06 143.315 328.794 144.165 328.794 145.25ZM342.628 153.331V147.678H347.359V153.331H342.628Z" fill="#E8AE29"/>
<defs>
<linearGradient id="paint0_linear_13_775" x1="35" y1="31.5001" x2="1175" y2="286" gradientUnits="userSpaceOnUse">
<stop stop-color="#DC1D54"/>
<stop offset="1" stop-color="#C11345"/>
</linearGradient>
<clipPath id="clip0_13_775">
<rect width="1071" height="1071" fill="white" transform="translate(1 -420.5)"/>
</clipPath>
</defs>
</svg>
