<?xml version="1.0" encoding="UTF-8" standalone="no"?>
<svg
   width="73"
   height="73"
   viewBox="0 0 73 73"
   fill="none"
   version="1.1"
   id="svg100"
   sodipodi:docname="Avatar.svg"
   inkscape:version="1.1.2 (0a00cf5339, 2022-02-04)"
   xmlns:inkscape="http://www.inkscape.org/namespaces/inkscape"
   xmlns:sodipodi="http://sodipodi.sourceforge.net/DTD/sodipodi-0.dtd"
   xmlns="http://www.w3.org/2000/svg"
   xmlns:svg="http://www.w3.org/2000/svg">
  <sodipodi:namedview
     id="namedview102"
     pagecolor="#ffffff"
     bordercolor="#666666"
     borderopacity="1.0"
     inkscape:pageshadow="2"
     inkscape:pageopacity="0.0"
     inkscape:pagecheckerboard="0"
     showgrid="false"
     inkscape:zoom="11.561644"
     inkscape:cx="36.456754"
     inkscape:cy="53.495853"
     inkscape:window-width="1920"
     inkscape:window-height="1016"
     inkscape:window-x="0"
     inkscape:window-y="27"
     inkscape:window-maximized="1"
     inkscape:current-layer="svg100" />
  <rect
     width="72.999901"
     height="72.999901"
     rx="0"
     fill="#e8ae29"
     id="rect2"
     style="stroke-width:0.8;stroke-miterlimit:4;stroke-dasharray:none"
     x="0"
     y="0" />
  <g
     clip-path="url(#clip0_953_35641)"
     id="g72">
    <mask
       id="mask0_953_35641"
       style="mask-type:alpha"
       maskUnits="userSpaceOnUse"
       x="0"
       y="0"
       width="73"
       height="73">
      <rect
         width="72.9999"
         height="72.9999"
         rx="6"
         fill="#F3F6F9"
         id="rect4" />
    </mask>
    <g
       mask="url(#mask0_953_35641)"
       id="g70">
      <g
         clip-path="url(#clip1_953_35641)"
         id="g22">
        <path
           d="M21.1892 59.1669C21.7694 53.9805 26.1545 50.0586 31.3731 50.0586H46.1472C51.3659 50.0586 55.7509 53.9805 56.3311 59.1669L57.8785 73.0006H19.6418L21.1892 59.1669Z"
           fill="#FFD4C7"
           id="path7" />
        <mask
           id="mask1_953_35641"
           style="mask-type:alpha"
           maskUnits="userSpaceOnUse"
           x="19"
           y="50"
           width="39"
           height="23">
          <path
             d="M21.1892 59.1669C21.7694 53.9805 26.1545 50.0586 31.3731 50.0586H46.1472C51.3659 50.0586 55.7509 53.9805 56.3311 59.1669L57.8785 73.0006H19.6418L21.1892 59.1669Z"
             fill="#00D355"
             id="path9" />
        </mask>
        <g
           mask="url(#mask1_953_35641)"
           id="g16">
          <path
             d="M22.107 59.1669C22.6871 53.9805 27.0722 50.0586 32.2909 50.0586H47.0649C52.2836 50.0586 56.6687 53.9805 57.2488 59.1669L58.7962 73.0006H20.5596L22.107 59.1669Z"
             fill="#FFB7A0"
             id="path12" />
          <path
             d="M23.0246 59.1669C23.6047 53.9805 27.9898 50.0586 33.2085 50.0586H47.9825C53.2012 50.0586 57.5863 53.9805 58.1664 59.1669L59.7138 73.0006H21.4772L23.0246 59.1669Z"
             fill="url(#paint0_linear_953_35641)"
             id="path14" />
        </g>
        <path
           fill-rule="evenodd"
           clip-rule="evenodd"
           d="M28.2069 63.8242C28.4603 63.8242 28.6657 64.0296 28.6657 64.2831V73.001C28.6657 73.2544 28.4603 73.4598 28.2069 73.4598C27.9535 73.4598 27.748 73.2544 27.748 73.001V64.2831C27.748 64.0296 27.9535 63.8242 28.2069 63.8242Z"
           fill="url(#paint1_linear_953_35641)"
           id="path18" />
        <path
           fill-rule="evenodd"
           clip-rule="evenodd"
           d="M48.3956 63.8242C48.649 63.8242 48.8544 64.0296 48.8544 64.2831V73.001C48.8544 73.2544 48.649 73.4598 48.3956 73.4598C48.1422 73.4598 47.9368 73.2544 47.9368 73.001V64.2831C47.9368 64.0296 48.1422 63.8242 48.3956 63.8242Z"
           fill="url(#paint2_linear_953_35641)"
           id="path20" />
      </g>
      <g
         clip-path="url(#clip2_953_35641)"
         id="g60">
        <path
           d="M36.3247 41.6992H40.3554L41.4166 49.9442C41.6554 51.7993 40.2104 53.4422 38.34 53.4422C36.4696 53.4422 35.0246 51.7993 35.2634 49.9442L36.3247 41.6992Z"
           fill="#FBC6D7"
           id="path24" />
        <mask
           id="mask2_953_35641"
           style="mask-type:alpha"
           maskUnits="userSpaceOnUse"
           x="35"
           y="41"
           width="7"
           height="13">
          <path
             d="M36.3246 41.6992H40.3553L41.4165 49.9442C41.6553 51.7993 40.2103 53.4422 38.3399 53.4422C36.4695 53.4422 35.0245 51.7993 35.2633 49.9442L36.3246 41.6992Z"
             fill="#FF7CA6"
             id="path26" />
        </mask>
        <g
           mask="url(#mask2_953_35641)"
           id="g31">
          <path
             d="M36.4924 41.6992H40.5231L41.0269 44.3833C39.6525 46.516 37.8359 46.7319 35.1488 47.4029L36.4924 41.6992Z"
             fill="#FF7CA6"
             id="path29" />
        </g>
        <path
           d="M29.1383 31.525C29.5316 32.7615 29.0622 34.0133 28.0899 34.3209C27.1175 34.6286 26.0104 33.8757 25.6171 32.6392C25.2238 31.4027 25.6932 30.151 26.6655 29.8433C27.6379 29.5356 28.745 30.2886 29.1383 31.525Z"
           fill="#FBC6D7"
           id="path33" />
        <path
           d="M28.7381 31.6645C28.9943 32.4709 28.6577 33.2971 27.9862 33.5098C27.3147 33.7225 26.5626 33.2412 26.3063 32.4348C26.05 31.6284 26.3867 30.8022 27.0582 30.5895C27.7297 30.3768 28.4818 30.8581 28.7381 31.6645Z"
           fill="#FF7CA6"
           id="path35" />
        <path
           d="M47.7841 32.195C47.3907 33.4314 47.8601 34.6832 48.8325 34.9909C49.8048 35.2985 50.9119 34.5456 51.3053 33.3091C51.6986 32.0727 51.2292 30.8209 50.2568 30.5132C49.2845 30.2055 48.1774 30.9585 47.7841 32.195Z"
           fill="#FBC6D7"
           id="path37" />
        <path
           d="M48.1843 32.3344C47.928 33.1409 48.2646 33.967 48.9362 34.1797C49.6077 34.3924 50.3598 33.9111 50.6161 33.1047C50.8723 32.2983 50.5357 31.4721 49.8642 31.2594C49.1927 31.0467 48.4405 31.528 48.1843 32.3344Z"
           fill="#FF7CA6"
           id="path39" />
        <path
           d="M48.4171 32.9753C48.4171 39.4608 43.9055 44.7183 38.3403 44.7183C32.7751 44.7183 28.2635 39.4608 28.2635 32.9753C28.2635 26.4899 32.7751 21.2324 38.3403 21.2324C43.9055 21.2324 48.4171 26.4899 48.4171 32.9753Z"
           fill="#FBC6D7"
           id="path41" />
        <mask
           id="mask3_953_35641"
           style="mask-type:alpha"
           maskUnits="userSpaceOnUse"
           x="28"
           y="21"
           width="21"
           height="24">
          <path
             d="M48.4173 32.9753C48.4173 39.4608 43.9058 44.7183 38.3405 44.7183C32.7753 44.7183 28.2638 39.4608 28.2638 32.9753C28.2638 26.4899 32.7753 21.2324 38.3405 21.2324C43.9058 21.2324 48.4173 26.4899 48.4173 32.9753Z"
             fill="#FBC6D7"
             id="path43" />
        </mask>
        <g
           mask="url(#mask3_953_35641)"
           id="g50">
          <path
             d="M48.3986 38.13C48.3986 39.6505 47.166 40.883 45.6455 40.883C44.125 40.883 42.8925 39.6505 42.8925 38.13C42.8925 36.6095 44.125 35.377 45.6455 35.377C47.166 35.377 48.3986 36.6095 48.3986 38.13Z"
             fill="#FF5E5E"
             id="path46" />
          <path
             d="M34.1747 38.13C34.1747 39.6505 32.9421 40.883 31.4216 40.883C29.9012 40.883 28.6686 39.6505 28.6686 38.13C28.6686 36.6095 29.9012 35.377 31.4216 35.377C32.9421 35.377 34.1747 36.6095 34.1747 38.13Z"
             fill="#FF5E5E"
             id="path48" />
        </g>
        <path
           fill-rule="evenodd"
           clip-rule="evenodd"
           d="M40.4018 40.7256C40.4883 40.8707 40.4407 41.0585 40.2956 41.1449C39.6267 41.5433 39.0568 41.7902 38.4614 41.7995C37.8607 41.809 37.2868 41.5766 36.6084 41.1392C36.4664 41.0476 36.4256 40.8583 36.5171 40.7163C36.6087 40.5744 36.798 40.5335 36.94 40.625C37.5762 41.0352 38.0273 41.1945 38.4518 41.1878C38.8815 41.1811 39.3366 41.0041 39.9825 40.6193C40.1276 40.5329 40.3154 40.5804 40.4018 40.7256Z"
           fill="#FF7FA8"
           id="path52" />
        <path
           d="M34.4805 32.9293C34.4805 33.6895 34.1381 34.3058 33.7158 34.3058C33.2934 34.3058 32.951 33.6895 32.951 32.9293C32.951 32.169 33.2934 31.5527 33.7158 31.5527C34.1381 31.5527 34.4805 32.169 34.4805 32.9293Z"
           fill="#3B2144"
           id="path54" />
        <path
           d="M43.6572 32.9293C43.6572 33.6895 43.3148 34.3058 42.8924 34.3058C42.4701 34.3058 42.1277 33.6895 42.1277 32.9293C42.1277 32.169 42.4701 31.5527 42.8924 31.5527C43.3148 31.5527 43.6572 32.169 43.6572 32.9293Z"
           fill="#3B2144"
           id="path56" />
        <path
           fill-rule="evenodd"
           clip-rule="evenodd"
           d="M37.9216 32.0879C38.0906 32.0879 38.2275 32.2248 38.2275 32.3938V36.6185L39.6281 36.3749C39.7945 36.346 39.9529 36.4574 39.9819 36.6239C40.0108 36.7903 39.8994 36.9487 39.7329 36.9777L37.974 37.2836C37.8851 37.299 37.7938 37.2744 37.7247 37.2163C37.6556 37.1582 37.6157 37.0725 37.6157 36.9822V32.3938C37.6157 32.2248 37.7527 32.0879 37.9216 32.0879Z"
           fill="#FF7FA8"
           id="path58" />
      </g>
      <path
         fill-rule="evenodd"
         clip-rule="evenodd"
         d="M42.9004 29.3383C42.3747 29.3779 41.8821 29.684 41.5482 30.1549C41.4749 30.2582 41.3317 30.2826 41.2283 30.2093C41.125 30.136 41.1006 29.9928 41.1739 29.8894C41.5738 29.3256 42.183 28.9322 42.8659 28.8807C43.5565 28.8287 44.2827 29.129 44.9024 29.8756C44.9833 29.9731 44.9699 30.1177 44.8724 30.1987C44.7749 30.2796 44.6303 30.2662 44.5493 30.1687C44.0078 29.5163 43.4185 29.2992 42.9004 29.3383Z"
         fill="#FF7FA8"
         id="path62" />
      <path
         fill-rule="evenodd"
         clip-rule="evenodd"
         d="M32.9586 29.6449C32.433 29.6845 31.9404 29.9906 31.6064 30.4615C31.5331 30.5648 31.3899 30.5892 31.2865 30.5159C31.1832 30.4426 31.1588 30.2994 31.2321 30.196C31.632 29.6322 32.2412 29.2388 32.9242 29.1874C33.6147 29.1353 34.3409 29.4357 34.9606 30.1822C35.0416 30.2797 35.0281 30.4244 34.9306 30.5053C34.8331 30.5862 34.6885 30.5728 34.6076 30.4753C34.0661 29.8229 33.4767 29.6059 32.9586 29.6449Z"
         fill="#FF7FA8"
         id="path64" />
      <path
         fill-rule="evenodd"
         clip-rule="evenodd"
         d="M33.3457 43.1883C30.9142 41.563 29.1386 38.7538 28.5965 35.4343L28.5765 35.4307L28.5471 35.425C28.3493 37.5293 28.6337 38.4377 28.8033 38.9794C28.8668 39.1822 28.9142 39.3335 28.9142 39.477C26.8631 37.4259 26.8812 35.9409 27.4586 34.8113C27.3935 34.7357 27.3323 34.6527 27.2749 34.5618C26.6581 34.3389 26.1065 33.7519 25.8556 32.961C25.5423 31.9734 25.7952 30.9755 26.4199 30.4859C25.1841 24.8885 28.0004 17.7502 36.9353 17.7502C37.3941 17.6981 37.8378 17.6622 38.2667 17.6417C37.2419 16.5692 35.9176 15.7156 34.2675 15.1394C27.5886 13.5104 22.2755 16.7165 19.2807 24.9134C18.158 27.9863 18.8158 31.9146 19.5103 36.0629C20.6685 42.9798 21.929 50.5081 15.2083 55.7014C18.3515 55.7014 22.5387 54.8869 24.3306 50.3257C24.3306 51.6666 22.3898 53.9251 21.8413 54.5634C21.6568 54.7781 21.6298 54.8095 21.8871 54.5611C30.2834 54.028 30.9889 50.769 31.5507 48.1739C31.6755 47.5971 31.7933 47.053 31.9869 46.579C32.3391 45.3659 32.8051 44.2485 33.3457 43.1883ZM27.9453 30.313L27.9453 30.3126C27.5989 30.1654 27.2275 30.1331 26.8744 30.2451L26.8739 30.2453C27.2272 30.1332 27.5987 30.1656 27.9453 30.313Z"
         fill="#3D0525"
         id="path66" />
      <path
         fill-rule="evenodd"
         clip-rule="evenodd"
         d="M28.5659 35.2351C28.5758 35.3019 28.5861 35.3685 28.597 35.4349C28.5802 35.4319 28.5636 35.4287 28.547 35.4254C28.3492 37.5298 28.6336 38.4382 28.8032 38.9799C28.8667 39.1826 28.9141 39.334 28.9141 39.4775C26.863 37.4264 26.8811 35.9414 27.4585 34.8118C27.3933 34.736 27.332 34.6529 27.2746 34.5618C27.3665 34.5951 27.4598 34.6203 27.5539 34.6368C27.7565 34.2864 28.0086 33.9714 28.2602 33.6848C27.8207 33.183 27.8641 32.2025 27.9182 30.981C27.9277 30.7654 27.9376 30.5424 27.9452 30.3131C27.5988 30.1659 27.2274 30.1336 26.8743 30.2456C26.7068 30.2988 26.5546 30.3808 26.4198 30.4866C25.1839 24.8891 28.0002 17.7507 36.9352 17.7507C49.8396 16.2855 50.7177 27.6627 48.9153 30.8851C48.666 30.9522 48.4243 31.079 48.2052 31.2555C48.1729 31.4862 48.14 31.7165 48.1072 31.9458C48.0434 32.3916 47.9802 32.8336 47.923 33.2681L47.9597 33.3081C49.1011 34.5498 50.7646 36.3596 47.6467 39.4775C47.6467 39.334 47.6941 39.1826 47.7576 38.9799C47.9612 38.3295 48.3303 37.1505 47.8317 34.008L47.8218 34.0958C47.3331 30.5121 43.4235 23.6703 40.98 23.6703C39.0252 23.6703 38.6451 28.2315 38.6994 30.0234C37.1356 29.2415 36.5275 25.1364 36.4189 23.6703C34.2034 24.7128 33.3238 29.4804 33.1609 30.8379C31.8577 30.056 32.6179 25.788 33.1609 24.6477C31.9448 24.3437 30.3543 28.9455 29.3241 31.9263L29.3241 31.9263L29.3241 31.9264C29.1517 32.425 28.9951 32.8783 28.8585 33.2556C28.7194 34.0094 28.6254 34.6642 28.5659 35.2351Z"
         fill="#4C062E"
         id="path68" />
    </g>
  </g>
  <defs
     id="defs98">
    <linearGradient
       id="paint0_linear_953_35641"
       x1="40.5955"
       y1="50.0586"
       x2="40.5955"
       y2="63.3649"
       gradientUnits="userSpaceOnUse">
      <stop
         stop-color="#FFAF8D"
         id="stop74" />
      <stop
         offset="1"
         stop-color="#FFB672"
         id="stop76" />
    </linearGradient>
    <linearGradient
       id="paint1_linear_953_35641"
       x1="28.2834"
       y1="64.2831"
       x2="28.2834"
       y2="73.001"
       gradientUnits="userSpaceOnUse">
      <stop
         stop-color="#ECAA48"
         stop-opacity="0"
         id="stop79" />
      <stop
         offset="1"
         stop-color="#FF9D43"
         id="stop81" />
    </linearGradient>
    <linearGradient
       id="paint2_linear_953_35641"
       x1="48.4721"
       y1="64.2831"
       x2="48.4721"
       y2="73.001"
       gradientUnits="userSpaceOnUse">
      <stop
         stop-color="#ECAA48"
         stop-opacity="0"
         id="stop84" />
      <stop
         offset="1"
         stop-color="#FF9D43"
         id="stop86" />
    </linearGradient>
    <clipPath
       id="clip0_953_35641">
      <rect
         width="72.9999"
         height="72.9999"
         rx="20"
         fill="white"
         id="rect89" />
    </clipPath>
    <clipPath
       id="clip1_953_35641">
      <rect
         width="38.2366"
         height="22.942"
         fill="white"
         transform="translate(19.6418 50.0586)"
         id="rect92" />
    </clipPath>
    <clipPath
       id="clip2_953_35641">
      <rect
         width="27.1127"
         height="32.2092"
         fill="white"
         transform="translate(24.9049 21.2324)"
         id="rect95" />
    </clipPath>
  </defs>
</svg>
