<svg width="22" height="25" viewBox="0 0 22 25" fill="none" xmlns="http://www.w3.org/2000/svg">
<path fill-rule="evenodd" clip-rule="evenodd" d="M8.27158 22.2075C8.52176 22.0003 8.89258 22.0351 9.09983 22.2853C9.36055 22.6 9.66406 22.8424 9.98945 23.0051C10.3143 23.1675 10.6572 23.2488 10.9998 23.2488C11.3424 23.2488 11.6853 23.1675 12.0101 23.0051C12.3355 22.8424 12.639 22.6 12.8997 22.2853C13.107 22.0351 13.4778 22.0003 13.728 22.2075C13.9782 22.4148 14.013 22.7856 13.8057 23.0358C13.4484 23.467 13.0183 23.8163 12.5363 24.0574C12.0536 24.2987 11.5311 24.4252 10.9998 24.4252C10.4684 24.4252 9.94594 24.2987 9.46332 24.0574C8.98127 23.8163 8.55113 23.467 8.19386 23.0358C7.98661 22.7856 8.0214 22.4148 8.27158 22.2075Z" fill="#485558" stroke="#485558" stroke-linecap="round" stroke-linejoin="round"/>
<path fill-rule="evenodd" clip-rule="evenodd" d="M11.0003 1.16309C11.3252 1.16309 11.5886 1.42645 11.5886 1.75132V2.92779C11.5886 3.25267 11.3252 3.51603 11.0003 3.51603C10.6755 3.51603 10.4121 3.25267 10.4121 2.92779V1.75132C10.4121 1.42645 10.6755 1.16309 11.0003 1.16309Z" fill="#485558" stroke="#485558" stroke-linecap="round" stroke-linejoin="round"/>
<path fill-rule="evenodd" clip-rule="evenodd" d="M3.35294 9.98641C3.35294 5.76306 6.77665 2.33936 11 2.33936C15.2234 2.33936 18.6471 5.76306 18.6471 9.98641V14.5534C18.6471 15.1367 18.9766 15.67 19.4984 15.9309L19.871 16.1172C20.5629 16.4631 21 17.1704 21 17.944C21 19.072 20.0856 19.9864 18.9576 19.9864H3.04243C1.91443 19.9864 1 19.072 1 17.944C1 17.1704 1.43709 16.4631 2.12903 16.1172L2.50164 15.9309C3.02337 15.67 3.35294 15.1367 3.35294 14.5534V9.98641ZM11 3.51583C7.42639 3.51583 4.52941 6.41281 4.52941 9.98641V14.5534C4.52941 15.5824 3.94808 16.523 3.02777 16.9831L2.65516 17.1694C2.36179 17.3161 2.17647 17.616 2.17647 17.944C2.17647 18.4222 2.56418 18.8099 3.04243 18.8099H18.9576C19.4358 18.8099 19.8235 18.4222 19.8235 17.944C19.8235 17.616 19.6382 17.3161 19.3448 17.1694L18.9722 16.9831C18.0519 16.523 17.4706 15.5824 17.4706 14.5534V9.98641C17.4706 6.41281 14.5736 3.51583 11 3.51583Z" fill="#485558" stroke="#485558" stroke-linecap="round" stroke-linejoin="round"/>
</svg>
