<svg width="31" height="31" viewBox="0 0 31 31" fill="none" xmlns="http://www.w3.org/2000/svg">
<path d="M3.87498 0H20.3369L29.0624 8.69165V29.0625C29.0624 30.1329 28.1945 31 27.125 31H3.87498C2.80545 31 1.9375 30.1329 1.9375 29.0625V1.93748C1.9375 0.86705 2.80555 0 3.87498 0Z" fill="#A03CEF"/>
<path d="M29.0344 8.7189H22.2812C21.2117 8.7189 20.3438 7.85095 20.3438 6.78142V0.0195312L29.0344 8.7189Z" fill="#8A21DC"/>
<path d="M8.69082 20.2734V14.5934H11.0748C11.3308 14.5934 11.5655 14.6468 11.7788 14.7534C11.9975 14.8601 12.1842 15.0014 12.3388 15.1774C12.4935 15.3481 12.6135 15.5454 12.6988 15.7694C12.7895 15.9881 12.8348 16.2121 12.8348 16.4414C12.8348 16.6814 12.7922 16.9134 12.7068 17.1374C12.6268 17.3561 12.5122 17.5534 12.3628 17.7294C12.2135 17.9001 12.0322 18.0388 11.8188 18.1454C11.6108 18.2468 11.3788 18.2974 11.1228 18.2974H9.58682V20.2734H8.69082ZM9.58682 17.5054H11.0668C11.1948 17.5054 11.3095 17.4788 11.4108 17.4254C11.5175 17.3721 11.6082 17.2974 11.6828 17.2014C11.7575 17.1054 11.8162 16.9934 11.8588 16.8654C11.9015 16.7374 11.9228 16.5961 11.9228 16.4414C11.9228 16.2814 11.8988 16.1374 11.8508 16.0094C11.8028 15.8814 11.7362 15.7721 11.6508 15.6814C11.5655 15.5854 11.4668 15.5134 11.3548 15.4654C11.2481 15.4121 11.1361 15.3854 11.0188 15.3854H9.58682V17.5054ZM13.6752 20.2734V14.5934H16.0592C16.3152 14.5934 16.5499 14.6468 16.7632 14.7534C16.9819 14.8601 17.1685 15.0014 17.3232 15.1774C17.4779 15.3481 17.5979 15.5454 17.6832 15.7694C17.7739 15.9881 17.8192 16.2121 17.8192 16.4414C17.8192 16.6814 17.7765 16.9134 17.6912 17.1374C17.6112 17.3561 17.4965 17.5534 17.3472 17.7294C17.1979 17.9001 17.0165 18.0388 16.8032 18.1454C16.5952 18.2468 16.3632 18.2974 16.1072 18.2974H14.5712V20.2734H13.6752ZM14.5712 17.5054H16.0512C16.1792 17.5054 16.2939 17.4788 16.3952 17.4254C16.5019 17.3721 16.5925 17.2974 16.6672 17.2014C16.7419 17.1054 16.8005 16.9934 16.8432 16.8654C16.8859 16.7374 16.9072 16.5961 16.9072 16.4414C16.9072 16.2814 16.8832 16.1374 16.8352 16.0094C16.7872 15.8814 16.7205 15.7721 16.6352 15.6814C16.5499 15.5854 16.4512 15.5134 16.3392 15.4654C16.2325 15.4121 16.1205 15.3854 16.0032 15.3854H14.5712V17.5054ZM22.8276 15.3854H20.9396V20.2734H20.0356V15.3854H18.1396V14.5934H22.8276V15.3854Z" fill="white"/>
</svg>
