<svg width="31" height="31" viewBox="0 0 31 31" fill="none" xmlns="http://www.w3.org/2000/svg">
<path d="M3.87498 0H20.3369L29.0624 8.69165V29.0625C29.0624 30.1329 28.1945 31 27.125 31H3.87498C2.80545 31 1.9375 30.1329 1.9375 29.0625V1.93748C1.9375 0.86705 2.80555 0 3.87498 0Z" fill="#E2574C"/>
<path d="M29.0344 8.7189H22.2812C21.2117 8.7189 20.3438 7.85095 20.3438 6.78142V0.0195312L29.0344 8.7189Z" fill="#B53629"/>
<path d="M21.7949 14.6893C22.1195 14.6893 22.2783 14.4064 22.2783 14.1322C22.2783 13.8484 22.1126 13.5742 21.7949 13.5742H19.9465C19.5852 13.5742 19.3837 13.8735 19.3837 14.2039V18.7463C19.3837 19.1513 19.6142 19.376 19.9262 19.376C20.2362 19.376 20.4677 19.1513 20.4677 18.7463V17.4996H21.5857C21.9325 17.4996 22.1059 17.2157 22.1059 16.9339C22.1059 16.6578 21.9325 16.3836 21.5857 16.3836H20.4677V14.6893C20.4677 14.6893 21.7949 14.6893 21.7949 14.6893ZM15.5474 13.5742H14.195C13.8278 13.5742 13.5672 13.8261 13.5672 14.2V18.7503C13.5672 19.2143 13.9421 19.3596 14.2105 19.3596H15.6297C17.3095 19.3596 18.4187 18.2543 18.4187 16.5483C18.4178 14.7445 17.3735 13.5742 15.5474 13.5742ZM15.6124 18.2378H14.7879V14.6961H15.531C16.6557 14.6961 17.1449 15.4508 17.1449 16.4921C17.1449 17.4667 16.6644 18.2378 15.6124 18.2378ZM10.6582 13.5742H9.31839C8.93959 13.5742 8.72839 13.8241 8.72839 14.2039V18.7463C8.72839 19.1513 8.97057 19.376 9.29603 19.376C9.6215 19.376 9.86368 19.1513 9.86368 18.7463V17.4201H10.7036C11.7401 17.4201 12.5955 16.6858 12.5955 15.5049C12.5956 14.3493 11.7703 13.5742 10.6582 13.5742ZM10.6359 16.3546H9.86378V14.6408H10.6359C11.1125 14.6408 11.4157 15.0128 11.4157 15.4982C11.4147 15.9826 11.1125 16.3546 10.6359 16.3546Z" fill="white"/>
</svg>
