<svg width="14" height="14" viewBox="0 0 14 14" fill="none" xmlns="http://www.w3.org/2000/svg">
<path fill-rule="evenodd" clip-rule="evenodd" d="M8.03543 1.85971C6.93909 1.60255 5.79816 1.60255 4.70187 1.85971C3.29169 2.19049 2.19061 3.29157 1.85983 4.70175C1.60267 5.79804 1.60267 6.93897 1.85983 8.0353C2.19061 9.4455 3.29169 10.5466 4.70187 10.8773C5.79816 11.1345 6.93909 11.1345 8.03543 10.8773C9.44563 10.5466 10.5467 9.4455 10.8774 8.0353C11.1346 6.93897 11.1346 5.79804 10.8774 4.70175C10.5467 3.29157 9.44563 2.19049 8.03543 1.85971ZM4.39725 0.561596C5.69383 0.257463 7.04323 0.257463 8.33976 0.561596C10.243 1.00803 11.729 2.49406 12.1754 4.39725C12.4796 5.69383 12.4796 7.04323 12.1754 8.33976C12.005 9.0661 11.6833 9.73163 11.2447 10.3019L13.4716 12.5288C13.7319 12.7891 13.7319 13.2112 13.4716 13.4716C13.2112 13.7319 12.7891 13.7319 12.5288 13.4716L10.3019 11.2447C9.73163 11.6833 9.0661 12.005 8.33976 12.1754C7.04323 12.4796 5.69383 12.4796 4.39725 12.1754C2.49406 11.729 1.00803 10.243 0.561596 8.33976C0.257463 7.04323 0.257463 5.69383 0.561596 4.39725C1.00803 2.49406 2.49406 1.00803 4.39725 0.561596Z" fill="white"/>
</svg>
