<svg width="28" height="28" viewBox="0 0 28 28" fill="none" xmlns="http://www.w3.org/2000/svg">
<path fill-rule="evenodd" clip-rule="evenodd" d="M11.6088 4.95143C13.1939 4.57197 14.8394 4.57197 16.4246 4.95143L16.6848 5.01371C19.5079 5.68948 21.7631 7.99966 22.4586 11.0257C22.8503 12.7293 22.847 14.526 22.4547 16.2329C21.7319 19.3774 19.6118 21.965 16.8113 23.1623L16.6734 23.2213C15.9565 23.5279 15.0609 23.1838 14.7205 22.3137C14.4033 21.5025 13.6245 20.9148 12.7048 20.9148H11.4665C8.67879 20.9148 6.1925 18.9037 5.51537 15.9579C5.16245 14.422 5.16245 12.8194 5.51537 11.2835L5.61908 10.8325C6.28747 7.92483 8.45397 5.70659 11.1641 5.05786L11.6088 4.95143ZM16.9678 2.6822C15.0255 2.21726 13.0078 2.21726 11.0656 2.6822L10.6209 2.78864C7.00088 3.65517 4.20053 6.58785 3.34502 10.3098L3.24142 10.7608C2.80928 12.6406 2.80928 14.6008 3.24142 16.4806C4.14535 20.4131 7.51853 23.2481 11.4665 23.2481H12.5816C13.3938 25.1948 15.599 26.2183 17.5907 25.3668L17.7285 25.3078C21.2534 23.8009 23.8486 20.5847 24.7287 16.7556C25.1994 14.7079 25.2041 12.5538 24.7327 10.503C23.8499 6.66267 20.961 3.63806 17.228 2.74449L16.9678 2.6822ZM19.0217 10.5677C19.0217 9.92342 18.4993 9.40108 17.855 9.40108H10.8181C10.1738 9.40108 9.65144 9.92342 9.65144 10.5677C9.65144 11.2121 10.1738 11.7344 10.8181 11.7344H17.855C18.4993 11.7344 19.0217 11.2121 19.0217 10.5677ZM19.0217 14.5999C19.0217 13.9556 18.4993 13.4333 17.855 13.4333H13.377C12.7326 13.4333 12.2103 13.9556 12.2103 14.5999C12.2103 15.2443 12.7326 15.7666 13.377 15.7666H17.855C18.4993 15.7666 19.0217 15.2443 19.0217 14.5999Z" fill="#485558"/>
</svg>
