<svg width="15" height="16" viewBox="0 0 15 16" fill="none" xmlns="http://www.w3.org/2000/svg">
<path d="M10.625 2.00004C10.7892 1.82494 10.984 1.68605 11.1985 1.59129C11.413 1.49653 11.6429 1.44775 11.875 1.44775C12.1071 1.44775 12.337 1.49653 12.5515 1.59129C12.766 1.68605 12.9608 1.82494 13.125 2.00004C13.2892 2.17513 13.4194 2.383 13.5082 2.61178C13.597 2.84055 13.6428 3.08575 13.6428 3.33337C13.6428 3.581 13.597 3.82619 13.5082 4.05497C13.4194 4.28374 13.2892 4.49161 13.125 4.66671L4.6875 13.6667L1.25 14.6667L2.1875 11L10.625 2.00004Z" stroke="white" stroke-width="1.5" stroke-linecap="round" stroke-linejoin="round"/>
</svg>
