<svg width="17" height="17" viewBox="0 0 17 17" fill="none" xmlns="http://www.w3.org/2000/svg">
<path d="M2.125 4.25H3.54167H14.875" stroke="white" stroke-width="1.5" stroke-linecap="round" stroke-linejoin="round"/>
<path d="M5.66699 4.24984V2.83317C5.66699 2.45745 5.81625 2.09711 6.08192 1.83144C6.3476 1.56576 6.70794 1.4165 7.08366 1.4165H9.91699C10.2927 1.4165 10.6531 1.56576 10.9187 1.83144C11.1844 2.09711 11.3337 2.45745 11.3337 2.83317V4.24984M13.4587 4.24984V14.1665C13.4587 14.5422 13.3094 14.9026 13.0437 15.1682C12.7781 15.4339 12.4177 15.5832 12.042 15.5832H4.95866C4.58294 15.5832 4.2226 15.4339 3.95692 15.1682C3.69125 14.9026 3.54199 14.5422 3.54199 14.1665V4.24984H13.4587Z" stroke="white" stroke-width="1.5" stroke-linecap="round" stroke-linejoin="round"/>
<path d="M7.08301 7.7915V12.0415" stroke="white" stroke-width="1.5" stroke-linecap="round" stroke-linejoin="round"/>
<path d="M9.91699 7.7915V12.0415" stroke="white" stroke-width="1.5" stroke-linecap="round" stroke-linejoin="round"/>
</svg>
