<svg width="25" height="25" viewBox="0 0 25 25" fill="none" xmlns="http://www.w3.org/2000/svg">
<g clip-path="url(#clip0_1379_27585)">
<path d="M17.9941 21.8677V19.8677C17.9941 18.8068 17.5727 17.7894 16.8226 17.0392C16.0724 16.2891 15.055 15.8677 13.9941 15.8677H5.99414C4.93327 15.8677 3.91586 16.2891 3.16571 17.0392C2.41557 17.7894 1.99414 18.8068 1.99414 19.8677V21.8677" stroke="#8C9497" stroke-width="2" stroke-linecap="round" stroke-linejoin="round"/>
<path d="M9.99414 11.8677C12.2033 11.8677 13.9941 10.0768 13.9941 7.86768C13.9941 5.65854 12.2033 3.86768 9.99414 3.86768C7.785 3.86768 5.99414 5.65854 5.99414 7.86768C5.99414 10.0768 7.785 11.8677 9.99414 11.8677Z" stroke="#8C9497" stroke-width="2" stroke-linecap="round" stroke-linejoin="round"/>
<path d="M23.9941 21.8676V19.8676C23.9935 18.9813 23.6985 18.1203 23.1555 17.4199C22.6125 16.7194 21.8523 16.2191 20.9941 15.9976" stroke="#8C9497" stroke-width="2" stroke-linecap="round" stroke-linejoin="round"/>
<path d="M16.9941 3.99756C17.8546 4.21786 18.6172 4.71826 19.1618 5.41987C19.7064 6.12148 20.002 6.98439 20.002 7.87256C20.002 8.76073 19.7064 9.62364 19.1618 10.3252C18.6172 11.0269 17.8546 11.5273 16.9941 11.7476" stroke="#8C9497" stroke-width="2" stroke-linecap="round" stroke-linejoin="round"/>
</g>
<defs>
<clipPath id="clip0_1379_27585">
<rect width="24" height="24" fill="white" transform="translate(0.994141 0.867676)"/>
</clipPath>
</defs>
</svg>
