<svg width="21" height="21" viewBox="0 0 21 21" fill="none" xmlns="http://www.w3.org/2000/svg">
<g clip-path="url(#clip0_2910_23514)">
<path d="M5.64627 18.2597C5.1019 17.9217 2.44811 19.882 2.03983 19.4088C1.63156 19.0032 3.40075 16.2318 3.06052 15.7586C1.97179 14.2715 1.35938 12.4465 1.35938 10.4862C1.35938 5.48416 5.44213 1.36084 10.5456 1.36084C15.649 1.36084 19.7318 5.48416 19.7318 10.4862C19.7318 15.4883 15.649 19.6116 10.5456 19.6116C9.86512 19.6116 9.25271 19.544 8.64029 19.4088" stroke="white" stroke-miterlimit="10" stroke-linecap="round" stroke-linejoin="round"/>
<path d="M8.6411 5.88926L9.45765 7.91712C9.5257 8.05231 9.45765 8.1875 9.32156 8.25509C8.98133 8.45788 8.50501 8.93105 9.04937 9.67459C9.72983 10.6209 11.5671 12.9868 13.0641 11.4321C13.1321 11.3645 13.2682 11.2969 13.4043 11.3645L15.5818 12.3108C15.7179 12.3784 15.7859 12.5812 15.7179 12.7164C15.2416 13.6627 13.4043 16.1637 8.84524 12.2432C4.21811 8.25509 7.21213 6.29483 8.23282 5.82166C8.36892 5.61887 8.57305 5.68647 8.6411 5.88926Z" stroke="white" stroke-miterlimit="10" stroke-linecap="round" stroke-linejoin="round"/>
</g>
<defs>
<clipPath id="clip0_2910_23514">
<rect width="20.4138" height="20.4138" fill="white"/>
</clipPath>
</defs>
</svg>
