<svg width="25" height="25" viewBox="0 0 25 25" fill="none" xmlns="http://www.w3.org/2000/svg">
<g clip-path="url(#clip0_4945_32278)">
<path d="M12.5 25C5.5975 25 0 19.4025 0 12.5C0 5.5975 5.5975 0 12.5 0C19.4025 0 25 5.5975 25 12.5C25 19.4025 19.4025 25 12.5 25Z" fill="#25D366"/>
<path fill-rule="evenodd" clip-rule="evenodd" d="M18.3479 6.68002C16.7979 5.12752 14.7329 4.27252 12.5354 4.27002C8.00793 4.27002 4.32043 7.95502 4.32043 12.485C4.32043 13.9325 4.69793 15.3475 5.41793 16.5925L4.25293 20.85L8.60793 19.7075C9.80793 20.3625 11.1579 20.7075 12.5329 20.7075H12.5354C17.0629 20.7075 20.7479 17.0225 20.7504 12.4925C20.7529 10.2975 19.9004 8.23252 18.3479 6.68002ZM12.5379 19.32H12.5354C11.3104 19.32 10.1079 18.99 9.06043 18.3675L8.81043 18.22L6.22543 18.8975L6.91543 16.3775L6.75293 16.12C6.07043 15.0325 5.70793 13.7775 5.70793 12.485C5.71043 8.72002 8.77293 5.65752 12.5404 5.65752C14.3654 5.65752 16.0779 6.37002 17.3679 7.66002C18.6579 8.95002 19.3679 10.6675 19.3654 12.49C19.3654 16.2575 16.3004 19.32 12.5379 19.32ZM16.2829 14.205C16.0779 14.1025 15.0679 13.605 14.8804 13.5375C14.6929 13.47 14.5554 13.435 14.4179 13.64C14.2804 13.845 13.8879 14.3075 13.7679 14.445C13.6479 14.5825 13.5279 14.6 13.3229 14.4975C13.1179 14.395 12.4554 14.1775 11.6729 13.4775C11.0629 12.9325 10.6504 12.26 10.5304 12.055C10.4104 11.85 10.5179 11.7375 10.6204 11.635C10.7129 11.5425 10.8254 11.395 10.9279 11.275C11.0304 11.155 11.0654 11.07 11.1329 10.9325C11.2004 10.795 11.1679 10.675 11.1154 10.5725C11.0629 10.47 10.6529 9.46002 10.4829 9.04752C10.3154 8.64752 10.1479 8.70252 10.0204 8.69502C9.90043 8.69002 9.76293 8.68752 9.62793 8.68752C9.49043 8.68752 9.26793 8.74002 9.08043 8.94502C8.89293 9.15002 8.36293 9.64752 8.36293 10.6575C8.36293 11.6675 9.09793 12.645 9.20043 12.78C9.30293 12.9175 10.6479 14.99 12.7079 15.88C13.1979 16.0925 13.5804 16.2175 13.8779 16.3125C14.3704 16.47 14.8179 16.4475 15.1704 16.395C15.5654 16.335 16.3854 15.8975 16.5554 15.42C16.7254 14.94 16.7254 14.53 16.6754 14.445C16.6254 14.36 16.4879 14.31 16.2829 14.205Z" fill="white"/>
</g>
<defs>
<clipPath id="clip0_4945_32278">
<rect width="25" height="25" fill="white"/>
</clipPath>
</defs>
</svg>
