<svg width="24" height="15" viewBox="0 0 24 15" fill="none" xmlns="http://www.w3.org/2000/svg">
<path d="M9.99834 5.89056C9.59053 5.89056 9.1874 5.92069 8.79834 5.98096C8.72334 6.16676 8.6624 6.35759 8.61084 6.55344C9.06084 6.46807 9.5249 6.42287 9.99834 6.42287C12.0515 6.42287 13.9218 7.25146 15.3374 8.61236C15.3937 8.42153 15.4358 8.22066 15.464 8.01979C13.9874 6.69405 12.0796 5.89056 9.99834 5.89056Z" fill="white"/>
<path fill-rule="evenodd" clip-rule="evenodd" d="M9.01417 6.4027C9.09854 6.39266 9.15479 6.30227 9.14073 6.20686C9.13135 6.11144 9.05167 6.03612 8.97198 6.05118C8.8876 6.06122 8.83135 6.15162 8.84542 6.24703C8.85948 6.34244 8.93448 6.41275 9.01417 6.4027ZM9.00948 6.33742C9.05635 6.3324 9.08917 6.27716 9.08448 6.2169C9.0751 6.15664 9.03292 6.11144 8.98604 6.11646C8.93917 6.12149 8.90635 6.17673 8.91104 6.23699C8.91573 6.29725 8.95792 6.34244 9.00948 6.33742Z" fill="#3D9244"/>
<path fill-rule="evenodd" clip-rule="evenodd" d="M9.28613 6.36762L9.34707 6.3626L9.33769 6.23204L9.46895 6.22199C9.5252 6.21697 9.57207 6.16173 9.56738 6.10147C9.5627 6.04121 9.51582 5.99099 9.45488 5.99601L9.2627 6.01108L9.28613 6.36762ZM9.33769 6.16675L9.46426 6.15671C9.48769 6.15671 9.50644 6.1316 9.50176 6.10649C9.50176 6.08138 9.47832 6.0613 9.45488 6.06632L9.32832 6.07636L9.33769 6.16675Z" fill="#3D9244"/>
<path d="M9.56719 6.34745C9.5625 6.29723 9.55781 6.18173 9.4875 6.19178L9.39844 6.1968C9.50156 6.18676 9.51094 6.30226 9.51094 6.35247" fill="#3D9244"/>
<path fill-rule="evenodd" clip-rule="evenodd" d="M9.70781 6.34252L9.86719 6.3375C9.94688 6.3375 10.0078 6.2672 10.0078 6.18183V6.13161C10.0078 6.04624 9.94219 5.98096 9.8625 5.98096L9.70312 5.98598L9.70781 6.34252ZM9.76875 6.27222H9.85781C9.90938 6.27222 9.94687 6.22702 9.94687 6.17178V6.14165C9.94687 6.08641 9.90469 6.04624 9.85312 6.04624H9.76406L9.76875 6.27222Z" fill="#3D9244"/>
<path d="M10.1343 6.3375L10.4343 6.34755V6.28226L10.1905 6.27222L10.1952 6.18183L10.3874 6.18685V6.12659L10.1952 6.12157L10.1999 6.04624L10.4296 6.05628V5.991L10.1437 5.98096L10.1343 6.3375Z" fill="#3D9244"/>
<path d="M10.5562 6.35752L10.6124 6.36254L10.6312 6.11648L10.678 6.36757L10.7296 6.37259L10.8187 6.13656L10.7952 6.37761L10.8562 6.38263L10.8843 6.02609L10.7999 6.02106L10.7155 6.25709L10.6687 6.006L10.5843 6.00098L10.5562 6.35752Z" fill="#3D9244"/>
<path d="M11.2454 6.43789L11.4938 6.48309L11.5032 6.42283L11.311 6.38767L11.325 6.30733L11.4797 6.33746L11.4891 6.2772L11.3344 6.24707L11.3438 6.19183L11.5266 6.22698L11.536 6.16672L11.2969 6.12152L11.2454 6.43789Z" fill="#3D9244"/>
<path fill-rule="evenodd" clip-rule="evenodd" d="M11.8782 6.57347L11.9391 6.58854L11.9719 6.463L12.1032 6.49815C12.1594 6.51321 12.2157 6.47806 12.2297 6.4178C12.2438 6.35754 12.211 6.29728 12.1547 6.28221L11.9719 6.23199L11.8782 6.57347ZM11.986 6.39771L12.1125 6.43287C12.136 6.43789 12.1594 6.42282 12.1641 6.39771C12.1688 6.3726 12.1547 6.34749 12.1313 6.34247L12.0047 6.30732L11.986 6.39771Z" fill="#3D9244"/>
<path fill-rule="evenodd" clip-rule="evenodd" d="M12.2861 6.689L12.3471 6.70908L12.3846 6.58354L12.5111 6.62874C12.5674 6.64882 12.6236 6.61367 12.6424 6.55341C12.6611 6.49315 12.6283 6.43289 12.5721 6.4128L12.3893 6.35254L12.2861 6.689ZM12.4033 6.51826L12.5252 6.55843C12.5486 6.56848 12.5721 6.55341 12.5814 6.5283C12.5908 6.50319 12.5768 6.47808 12.5533 6.46804L12.4314 6.42787L12.4033 6.51826Z" fill="#3D9244"/>
<path d="M12.5578 6.77933C12.5718 6.72912 12.6046 6.62366 12.5343 6.59855L12.45 6.56842C12.5484 6.60357 12.5203 6.70903 12.5015 6.75925" fill="#3D9244"/>
<path fill-rule="evenodd" clip-rule="evenodd" d="M12.8298 6.88483C12.9095 6.91496 12.9985 6.86474 13.0267 6.77435C13.0595 6.68396 13.022 6.58352 12.9423 6.54837C12.8626 6.51824 12.7735 6.56846 12.7454 6.65885C12.7173 6.75426 12.7548 6.8547 12.8298 6.88483ZM12.8532 6.82457C12.9001 6.84466 12.9517 6.8095 12.9704 6.75426C12.9892 6.694 12.9704 6.63374 12.9235 6.61365C12.8767 6.59357 12.8251 6.62872 12.8064 6.68396C12.7876 6.74422 12.8064 6.80448 12.8532 6.82457Z" fill="#3D9244"/>
<path fill-rule="evenodd" clip-rule="evenodd" d="M13.2236 7.05557C13.2986 7.09072 13.3923 7.04553 13.4298 6.95513C13.4673 6.86474 13.4345 6.76431 13.3595 6.72916C13.2845 6.694 13.1908 6.7392 13.1533 6.82959C13.1158 6.91496 13.1486 7.02042 13.2236 7.05557ZM13.247 6.99531C13.2892 7.0154 13.3455 6.98527 13.3689 6.93003C13.3923 6.87479 13.3736 6.8095 13.3314 6.78942C13.2892 6.76933 13.233 6.79946 13.2095 6.8547C13.1861 6.90994 13.2048 6.97522 13.247 6.99531Z" fill="#3D9244"/>
<path d="M13.3125 6.8999L13.4296 6.95514L13.4062 7.00034L13.2937 6.9451L13.3125 6.8999Z" fill="#3D9244"/>
<path d="M13.3828 6.93506L13.4296 6.95515L13.3593 7.12086L13.3171 7.10078L13.3828 6.93506Z" fill="#3D9244"/>
<path fill-rule="evenodd" clip-rule="evenodd" d="M13.4717 7.17611L13.5279 7.20624L13.5842 7.08572L13.7014 7.151C13.7529 7.18113 13.8186 7.15603 13.842 7.10079C13.8654 7.04555 13.8467 6.98026 13.7951 6.95013L13.6264 6.85974L13.4717 7.17611ZM13.6123 7.02546L13.7295 7.08572C13.7529 7.09576 13.7764 7.08572 13.7857 7.06563C13.7951 7.04052 13.7857 7.01542 13.767 7.00537L13.6498 6.94511L13.6123 7.02546Z" fill="#3D9244"/>
<path d="M13.7249 7.31167C13.7483 7.26648 13.7905 7.16604 13.7296 7.13089L13.6499 7.08569C13.7437 7.13591 13.6968 7.23635 13.6733 7.28154" fill="#3D9244"/>
<path d="M13.8516 7.38197L14.1094 7.53764L14.1422 7.4824L13.9313 7.35184L13.9734 7.27149L14.1375 7.37192L14.1656 7.32171L14.0016 7.22127L14.0344 7.15599L14.2313 7.27651L14.2641 7.22127L14.0156 7.07062L13.8516 7.38197Z" fill="#3D9244"/>
<path d="M14.3345 7.55269C14.3157 7.58282 14.3345 7.61797 14.3766 7.64308C14.4188 7.66819 14.4423 7.66819 14.4563 7.64811C14.4938 7.58784 14.2829 7.49745 14.3485 7.392C14.4048 7.3016 14.4985 7.37191 14.536 7.39702C14.5735 7.42213 14.6298 7.48741 14.5829 7.55771L14.522 7.51754C14.5407 7.48741 14.522 7.45226 14.4891 7.43217C14.461 7.41208 14.4329 7.40204 14.4141 7.43217C14.3813 7.48239 14.5876 7.5778 14.5266 7.68326C14.4798 7.76361 14.4001 7.72845 14.3438 7.68828C14.297 7.65815 14.2266 7.58282 14.2735 7.5075L14.3345 7.55269Z" fill="#3D9244"/>
<path d="M14.6953 7.80881C14.6765 7.83894 14.6906 7.87409 14.7328 7.90423C14.7703 7.93436 14.7984 7.93436 14.8125 7.91427C14.85 7.85401 14.6437 7.75357 14.714 7.65314C14.775 7.56275 14.8687 7.64309 14.9015 7.6682C14.9344 7.69331 14.9906 7.76362 14.9437 7.83392L14.8828 7.78872C14.9015 7.75859 14.8828 7.72344 14.8547 7.70336C14.8265 7.67825 14.7984 7.6682 14.7797 7.69833C14.7469 7.74353 14.9484 7.85401 14.8781 7.95444C14.8265 8.02977 14.7469 7.9896 14.6953 7.95444C14.6531 7.91929 14.5875 7.84396 14.6344 7.76864L14.6953 7.80881Z" fill="#3D9244"/>
<path fill-rule="evenodd" clip-rule="evenodd" d="M15.0327 8.22064C15.0984 8.27588 15.1968 8.25579 15.2531 8.18046C15.3093 8.10514 15.3046 7.99466 15.239 7.93942C15.1734 7.88418 15.0749 7.89924 15.0187 7.97959C14.9624 8.05492 14.9671 8.1654 15.0327 8.22064ZM15.0702 8.1654C15.1077 8.19553 15.1687 8.18549 15.2062 8.13527C15.2437 8.08505 15.239 8.01977 15.2015 7.98964C15.164 7.9595 15.1031 7.96955 15.0656 8.01977C15.0327 8.06998 15.0327 8.13527 15.0702 8.1654Z" fill="#3D9244"/>
<path d="M9.14526 6.66388L9.09839 6.81453L9.1687 6.83964L9.14526 6.66388Z" fill="white"/>
<path d="M9.14531 6.66388L9.1875 6.81453L9.11719 6.83964L9.14531 6.66388Z" fill="white"/>
<path d="M9.28599 6.77435H9.13599V6.8547L9.28599 6.77435Z" fill="white"/>
<path d="M9.28589 6.77435L9.16401 6.86977L9.12183 6.80448L9.28589 6.77435Z" fill="white"/>
<path d="M9 6.77435L9.12188 6.86977L9.16406 6.80448L9 6.77435Z" fill="white"/>
<path d="M9 6.77435H9.15V6.8547L9 6.77435Z" fill="white"/>
<path d="M9.22974 6.95517L9.18286 6.7995L9.11255 6.82461L9.22974 6.95517Z" fill="white"/>
<path d="M9.22978 6.95513L9.10791 6.85972L9.15479 6.79443L9.22978 6.95513Z" fill="white"/>
<path d="M9.05615 6.95513L9.17803 6.85972L9.13115 6.79443L9.05615 6.95513Z" fill="white"/>
<path d="M9.05615 6.95517L9.10303 6.7995L9.17334 6.82461L9.05615 6.95517Z" fill="white"/>
<path d="M9.45483 8.24072L9.40796 8.39138L9.47827 8.41648L9.45483 8.24072Z" fill="white"/>
<path d="M9.45464 8.24072L9.49683 8.39138L9.42651 8.41648L9.45464 8.24072Z" fill="white"/>
<path d="M9.59531 8.3512H9.44531V8.43154L9.59531 8.3512Z" fill="white"/>
<path d="M9.59521 8.3512L9.47334 8.44661L9.43115 8.38133L9.59521 8.3512Z" fill="white"/>
<path d="M9.30957 8.3512L9.43144 8.44661L9.47363 8.38133L9.30957 8.3512Z" fill="white"/>
<path d="M9.30957 8.3512H9.45957V8.43154L9.30957 8.3512Z" fill="white"/>
<path d="M9.53906 8.53202L9.49219 8.37634L9.42188 8.40145L9.53906 8.53202Z" fill="white"/>
<path d="M9.53911 8.53203L9.41724 8.43662L9.46411 8.37134L9.53911 8.53203Z" fill="white"/>
<path d="M9.36572 8.53203L9.4876 8.43662L9.44072 8.37134L9.36572 8.53203Z" fill="white"/>
<path d="M9.36572 8.53202L9.4126 8.37634L9.48291 8.40145L9.36572 8.53202Z" fill="white"/>
<path d="M9.02381 8.62732L8.99512 8.73278L9.04293 8.74784L9.02381 8.62732Z" fill="white"/>
<path d="M9.02362 8.62732L9.05709 8.73278L9.00928 8.74784L9.02362 8.62732Z" fill="white"/>
<path d="M9.11724 8.70276H9.0188V8.758L9.11724 8.70276Z" fill="white"/>
<path d="M9.11709 8.70276L9.0374 8.76804L9.00928 8.72285L9.11709 8.70276Z" fill="white"/>
<path d="M8.92969 8.70276L9.00937 8.76804L9.0375 8.72285L8.92969 8.70276Z" fill="white"/>
<path d="M8.92969 8.70276H9.02813V8.758L8.92969 8.70276Z" fill="white"/>
<path d="M9.08457 8.82321L9.05176 8.72278L9.00488 8.73784L9.08457 8.82321Z" fill="white"/>
<path d="M9.08438 8.82323L9 8.75795L9.03281 8.71777L9.08438 8.82323Z" fill="white"/>
<path d="M8.96729 8.82323L9.04697 8.75795L9.01885 8.71777L8.96729 8.82323Z" fill="white"/>
<path d="M8.96729 8.82321L8.99541 8.72278L9.04228 8.73784L8.96729 8.82321Z" fill="white"/>
<path d="M9.79734 8.09509L9.77344 8.1654L9.80691 8.18046L9.79734 8.09509Z" fill="white"/>
<path d="M9.79706 8.09509L9.81618 8.1654L9.78271 8.18046L9.79706 8.09509Z" fill="white"/>
<path d="M9.86255 8.14526H9.79224V8.18544L9.86255 8.14526Z" fill="white"/>
<path d="M9.8624 8.14526L9.80615 8.19046L9.78271 8.16033L9.8624 8.14526Z" fill="white"/>
<path d="M9.72656 8.14526L9.78281 8.19046L9.80625 8.16033L9.72656 8.14526Z" fill="white"/>
<path d="M9.72656 8.14526H9.79688V8.18544L9.72656 8.14526Z" fill="white"/>
<path d="M9.83896 8.23064L9.81553 8.16034L9.78271 8.17038L9.83896 8.23064Z" fill="white"/>
<path d="M9.83901 8.23066L9.77808 8.18547L9.80151 8.15533L9.83901 8.23066Z" fill="white"/>
<path d="M9.75464 8.23066L9.81089 8.18547L9.79214 8.15533L9.75464 8.23066Z" fill="white"/>
<path d="M9.75464 8.23064L9.77339 8.16034L9.81089 8.17038L9.75464 8.23064Z" fill="white"/>
<path d="M10.1811 8.63739L10.1436 8.76795L10.1998 8.78804L10.1811 8.63739Z" fill="white"/>
<path d="M10.1813 8.63739L10.2188 8.76795L10.1626 8.78804L10.1813 8.63739Z" fill="white"/>
<path d="M10.2986 8.73285H10.1768V8.79813L10.2986 8.73285Z" fill="white"/>
<path d="M10.2985 8.73285L10.2001 8.80818L10.1626 8.75796L10.2985 8.73285Z" fill="white"/>
<path d="M10.064 8.73285L10.1624 8.80818L10.1999 8.75796L10.064 8.73285Z" fill="white"/>
<path d="M10.064 8.73285H10.1858V8.79813L10.064 8.73285Z" fill="white"/>
<path d="M10.2562 8.87847L10.214 8.75293L10.1577 8.77302L10.2562 8.87847Z" fill="white"/>
<path d="M10.2562 8.87849L10.1531 8.80316L10.1906 8.74792L10.2562 8.87849Z" fill="white"/>
<path d="M10.1062 8.87849L10.2093 8.80316L10.1718 8.74792L10.1062 8.87849Z" fill="white"/>
<path d="M10.1062 8.87847L10.1484 8.75293L10.2046 8.77302L10.1062 8.87847Z" fill="white"/>
<path d="M10.0781 9.00903L10.0359 9.1396L10.0968 9.15969L10.0781 9.00903Z" fill="white"/>
<path d="M10.0781 9.00903L10.1156 9.1396L10.0547 9.15969L10.0781 9.00903Z" fill="white"/>
<path d="M10.1952 9.10443H10.0686V9.16971L10.1952 9.10443Z" fill="white"/>
<path d="M10.1953 9.10443L10.0921 9.18478L10.0593 9.12954L10.1953 9.10443Z" fill="white"/>
<path d="M9.9563 9.10443L10.0594 9.18478L10.0969 9.12954L9.9563 9.10443Z" fill="white"/>
<path d="M9.9563 9.10443H10.0829V9.16971L9.9563 9.10443Z" fill="white"/>
<path d="M10.1485 9.25508L10.111 9.12451L10.05 9.1446L10.1485 9.25508Z" fill="white"/>
<path d="M10.1485 9.25509L10.05 9.17475L10.0875 9.11951L10.1485 9.25509Z" fill="white"/>
<path d="M10.0032 9.25509L10.1063 9.17475L10.0688 9.11951L10.0032 9.25509Z" fill="white"/>
<path d="M10.0032 9.25508L10.0407 9.12451L10.1016 9.1446L10.0032 9.25508Z" fill="white"/>
<path d="M13.0874 6.17175L13.0405 6.32743L13.1108 6.35254L13.0874 6.17175Z" fill="white"/>
<path d="M13.0875 6.17175L13.1343 6.32743L13.0593 6.35254L13.0875 6.17175Z" fill="white"/>
<path d="M13.2281 6.28223H13.0781V6.36257L13.2281 6.28223Z" fill="white"/>
<path d="M13.228 6.28223L13.1062 6.37764L13.064 6.31236L13.228 6.28223Z" fill="white"/>
<path d="M12.9421 6.28223L13.064 6.37764L13.1109 6.31236L12.9421 6.28223Z" fill="white"/>
<path d="M12.9421 6.28223H13.0921V6.36257L12.9421 6.28223Z" fill="white"/>
<path d="M13.1719 6.46297L13.1297 6.31232L13.0547 6.33743L13.1719 6.46297Z" fill="white"/>
<path d="M13.1719 6.463L13.0547 6.36759L13.0969 6.30231L13.1719 6.463Z" fill="white"/>
<path d="M12.9985 6.463L13.1204 6.36759L13.0735 6.30231L12.9985 6.463Z" fill="white"/>
<path d="M12.9985 6.46297L13.0454 6.31232L13.1157 6.33743L12.9985 6.46297Z" fill="white"/>
<path d="M14.4517 8.65247L14.4048 8.80814L14.4798 8.82823L14.4517 8.65247Z" fill="white"/>
<path d="M14.4517 8.65247L14.4985 8.80814L14.4282 8.82823L14.4517 8.65247Z" fill="white"/>
<path d="M14.5968 8.763H14.4468V8.84335L14.5968 8.763Z" fill="white"/>
<path d="M14.597 8.763L14.4751 8.85841L14.4282 8.79313L14.597 8.763Z" fill="white"/>
<path d="M14.311 8.763L14.4329 8.85841L14.4751 8.79313L14.311 8.763Z" fill="white"/>
<path d="M14.311 8.763H14.461V8.84335L14.311 8.763Z" fill="white"/>
<path d="M14.5405 8.94374L14.4937 8.79309L14.4233 8.81318L14.5405 8.94374Z" fill="white"/>
<path d="M14.5408 8.94378L14.4189 8.84836L14.4658 8.78308L14.5408 8.94378Z" fill="white"/>
<path d="M14.3623 8.94378L14.4842 8.84836L14.442 8.78308L14.3623 8.94378Z" fill="white"/>
<path d="M14.3623 8.94374L14.4092 8.79309L14.4795 8.81318L14.3623 8.94374Z" fill="white"/>
<path d="M14.9397 8.74286L14.9062 8.84329L14.9541 8.85836L14.9397 8.74286Z" fill="white"/>
<path d="M14.9395 8.74286L14.9682 8.84329L14.9204 8.85836L14.9395 8.74286Z" fill="white"/>
<path d="M15.0328 8.81818H14.9343V8.86839L15.0328 8.81818Z" fill="white"/>
<path d="M15.0326 8.81818L14.9529 8.87844L14.9248 8.83826L15.0326 8.81818Z" fill="white"/>
<path d="M14.8406 8.81818L14.925 8.87844L14.9531 8.83826L14.8406 8.81818Z" fill="white"/>
<path d="M14.8406 8.81818H14.9437V8.86839L14.8406 8.81818Z" fill="white"/>
<path d="M14.9954 8.93375L14.9673 8.83331L14.9204 8.84838L14.9954 8.93375Z" fill="white"/>
<path d="M14.9952 8.9337L14.9155 8.87344L14.9437 8.82825L14.9952 8.9337Z" fill="white"/>
<path d="M14.8782 8.9337L14.9579 8.87344L14.9297 8.82825L14.8782 8.9337Z" fill="white"/>
<path d="M14.8782 8.93375L14.911 8.83331L14.9579 8.84838L14.8782 8.93375Z" fill="white"/>
<path d="M14.5969 9.00903L14.5547 9.1396L14.6156 9.15969L14.5969 9.00903Z" fill="white"/>
<path d="M14.5969 9.00903L14.6344 9.1396L14.5735 9.15969L14.5969 9.00903Z" fill="white"/>
<path d="M14.714 9.10443H14.5874V9.16971L14.714 9.10443Z" fill="white"/>
<path d="M14.7141 9.10443L14.6109 9.18478L14.5781 9.12954L14.7141 9.10443Z" fill="white"/>
<path d="M14.4751 9.10443L14.5782 9.18478L14.6157 9.12954L14.4751 9.10443Z" fill="white"/>
<path d="M14.4751 9.10443H14.6017V9.16971L14.4751 9.10443Z" fill="white"/>
<path d="M14.667 9.25508L14.6295 9.12451L14.5686 9.1446L14.667 9.25508Z" fill="white"/>
<path d="M14.667 9.25509L14.5686 9.17475L14.6061 9.11951L14.667 9.25509Z" fill="white"/>
<path d="M14.522 9.25509L14.6251 9.17475L14.5876 9.11951L14.522 9.25509Z" fill="white"/>
<path d="M14.522 9.25508L14.5595 9.12451L14.6204 9.1446L14.522 9.25508Z" fill="white"/>
<path d="M13.7531 9.79742L13.7156 9.92297L13.7718 9.94306L13.7531 9.79742Z" fill="white"/>
<path d="M13.7529 9.79742L13.7904 9.92297L13.7295 9.94306L13.7529 9.79742Z" fill="white"/>
<path d="M13.8704 9.88782H13.7485V9.95812L13.8704 9.88782Z" fill="white"/>
<path d="M13.8703 9.88782L13.7719 9.96817L13.7344 9.91293L13.8703 9.88782Z" fill="white"/>
<path d="M13.636 9.88782L13.7344 9.96817L13.7719 9.91293L13.636 9.88782Z" fill="white"/>
<path d="M13.636 9.88782H13.7579V9.95812L13.636 9.88782Z" fill="white"/>
<path d="M13.8279 10.0385L13.7857 9.91296L13.7295 9.93305L13.8279 10.0385Z" fill="white"/>
<path d="M13.8282 10.0385L13.7251 9.95812L13.7626 9.9079L13.8282 10.0385Z" fill="white"/>
<path d="M13.678 10.0385L13.7811 9.95812L13.7436 9.9079L13.678 10.0385Z" fill="white"/>
<path d="M13.678 10.0385L13.7155 9.91296L13.7764 9.93305L13.678 10.0385Z" fill="white"/>
<path d="M13.749 10.1992L13.7156 10.3046L13.7634 10.3197L13.749 10.1992Z" fill="white"/>
<path d="M13.7486 10.1992L13.7773 10.3046L13.7295 10.3197L13.7486 10.1992Z" fill="white"/>
<path d="M13.8421 10.2745H13.7437V10.3297L13.8421 10.2745Z" fill="white"/>
<path d="M13.8422 10.2745L13.7625 10.3398L13.7344 10.2946L13.8422 10.2745Z" fill="white"/>
<path d="M13.6545 10.2745L13.7342 10.3398L13.7624 10.2946L13.6545 10.2745Z" fill="white"/>
<path d="M13.6545 10.2745H13.753V10.3297L13.6545 10.2745Z" fill="white"/>
<path d="M13.8045 10.3951L13.7764 10.2946L13.7295 10.3097L13.8045 10.3951Z" fill="white"/>
<path d="M13.8048 10.395L13.7251 10.3297L13.7532 10.2896L13.8048 10.395Z" fill="white"/>
<path d="M13.6875 10.395L13.7719 10.3297L13.7391 10.2896L13.6875 10.395Z" fill="white"/>
<path d="M13.6875 10.3951L13.7203 10.2946L13.7672 10.3097L13.6875 10.3951Z" fill="white"/>
<path d="M14.1002 9.52631L14.0674 9.63176L14.1189 9.64683L14.1002 9.52631Z" fill="white"/>
<path d="M14.0998 9.52631L14.1326 9.63176L14.0811 9.64683L14.0998 9.52631Z" fill="white"/>
<path d="M14.1937 9.60162H14.0952V9.65686L14.1937 9.60162Z" fill="white"/>
<path d="M14.1937 9.60162L14.1141 9.66691L14.0859 9.62171L14.1937 9.60162Z" fill="white"/>
<path d="M14.0063 9.60162L14.086 9.66691L14.1142 9.62171L14.0063 9.60162Z" fill="white"/>
<path d="M14.0063 9.60162H14.1048V9.65686L14.0063 9.60162Z" fill="white"/>
<path d="M14.1607 9.72208L14.1279 9.62164L14.0811 9.63671L14.1607 9.72208Z" fill="white"/>
<path d="M14.161 9.72209L14.0767 9.65681L14.1095 9.61664L14.161 9.72209Z" fill="white"/>
<path d="M14.0437 9.72209L14.1234 9.65681L14.0906 9.61664L14.0437 9.72209Z" fill="white"/>
<path d="M14.0437 9.72208L14.0718 9.62164L14.1187 9.63671L14.0437 9.72208Z" fill="white"/>
<path d="M14.3812 9.31036L14.3438 9.44093L14.4 9.46102L14.3812 9.31036Z" fill="white"/>
<path d="M14.3811 9.31036L14.4186 9.44093L14.3623 9.46102L14.3811 9.31036Z" fill="white"/>
<path d="M14.4983 9.40576H14.3765V9.47104L14.4983 9.40576Z" fill="white"/>
<path d="M14.4982 9.40576L14.3998 9.48109L14.3623 9.43087L14.4982 9.40576Z" fill="white"/>
<path d="M14.2639 9.40576L14.3624 9.48109L14.3999 9.43087L14.2639 9.40576Z" fill="white"/>
<path d="M14.2639 9.40576H14.3858V9.47104L14.2639 9.40576Z" fill="white"/>
<path d="M14.4563 9.55139L14.4142 9.42584L14.3579 9.44593L14.4563 9.55139Z" fill="white"/>
<path d="M14.4562 9.5514L14.353 9.47608L14.3905 9.42084L14.4562 9.5514Z" fill="white"/>
<path d="M14.3062 9.5514L14.4093 9.47608L14.3718 9.42084L14.3062 9.5514Z" fill="white"/>
<path d="M14.3062 9.55139L14.3483 9.42584L14.4046 9.44593L14.3062 9.55139Z" fill="white"/>
<path d="M13.7398 9.45593L13.7063 9.55637L13.7541 9.57645L13.7398 9.45593Z" fill="white"/>
<path d="M13.7393 9.45593L13.768 9.55637L13.7202 9.57645L13.7393 9.45593Z" fill="white"/>
<path d="M13.8328 9.53125H13.7344V9.58147L13.8328 9.53125Z" fill="white"/>
<path d="M13.8329 9.53125L13.7532 9.59151L13.7251 9.55134L13.8329 9.53125Z" fill="white"/>
<path d="M13.6453 9.53125L13.725 9.59151L13.7531 9.55134L13.6453 9.53125Z" fill="white"/>
<path d="M13.6453 9.53125H13.7437V9.58147L13.6453 9.53125Z" fill="white"/>
<path d="M13.7952 9.65178L13.7671 9.54633L13.7202 9.56139L13.7952 9.65178Z" fill="white"/>
<path d="M13.7953 9.65178L13.7156 9.5865L13.7437 9.54633L13.7953 9.65178Z" fill="white"/>
<path d="M13.678 9.65178L13.7624 9.5865L13.7295 9.54633L13.678 9.65178Z" fill="white"/>
<path d="M13.678 9.65178L13.7108 9.54633L13.7577 9.56139L13.678 9.65178Z" fill="white"/>
<path d="M10.6687 7.51758L10.6265 7.64312L10.6874 7.66321L10.6687 7.51758Z" fill="white"/>
<path d="M10.6687 7.51758L10.7062 7.64312L10.6453 7.66321L10.6687 7.51758Z" fill="white"/>
<path d="M10.786 7.60797H10.6594V7.67325L10.786 7.60797Z" fill="white"/>
<path d="M10.7858 7.60797L10.6827 7.68832L10.6499 7.63308L10.7858 7.60797Z" fill="white"/>
<path d="M10.5469 7.60797L10.65 7.68832L10.6875 7.63308L10.5469 7.60797Z" fill="white"/>
<path d="M10.5469 7.60797H10.6734V7.67325L10.5469 7.60797Z" fill="white"/>
<path d="M10.7391 7.7586L10.7016 7.63306L10.6406 7.65314L10.7391 7.7586Z" fill="white"/>
<path d="M10.7391 7.75864L10.6406 7.67829L10.6781 7.62305L10.7391 7.75864Z" fill="white"/>
<path d="M10.5938 7.75864L10.6922 7.67829L10.6594 7.62305L10.5938 7.75864Z" fill="white"/>
<path d="M10.5938 7.7586L10.6313 7.63306L10.6922 7.65314L10.5938 7.7586Z" fill="white"/>
<path d="M12.952 7.20123L12.9233 7.30167L12.9712 7.32175L12.952 7.20123Z" fill="white"/>
<path d="M12.9518 7.20123L12.9853 7.30167L12.9375 7.32175L12.9518 7.20123Z" fill="white"/>
<path d="M13.0452 7.27655H12.9468V7.32677L13.0452 7.27655Z" fill="white"/>
<path d="M13.0453 7.27655L12.9656 7.33681L12.9375 7.29664L13.0453 7.27655Z" fill="white"/>
<path d="M12.8579 7.27655L12.9376 7.33681L12.9657 7.29664L12.8579 7.27655Z" fill="white"/>
<path d="M12.8579 7.27655H12.9563V7.32677L12.8579 7.27655Z" fill="white"/>
<path d="M13.0125 7.39708L12.9797 7.29163L12.9329 7.31171L13.0125 7.39708Z" fill="white"/>
<path d="M13.0126 7.39704L12.9282 7.33176L12.961 7.28656L13.0126 7.39704Z" fill="white"/>
<path d="M12.8955 7.39704L12.9752 7.33176L12.9471 7.28656L12.8955 7.39704Z" fill="white"/>
<path d="M12.8955 7.39708L12.9236 7.29163L12.9705 7.31171L12.8955 7.39708Z" fill="white"/>
<path d="M12 9.0191L11.9531 9.17478L12.0234 9.19989L12 9.0191Z" fill="white"/>
<path d="M12 9.0191L12.0469 9.17478L11.9766 9.19989L12 9.0191Z" fill="white"/>
<path d="M12.1407 9.12952H11.9907V9.20987L12.1407 9.12952Z" fill="white"/>
<path d="M12.1406 9.12952L12.0234 9.22493L11.9766 9.15965L12.1406 9.12952Z" fill="white"/>
<path d="M11.8594 9.12952L11.9766 9.22493L12.0234 9.15965L11.8594 9.12952Z" fill="white"/>
<path d="M11.8594 9.12952H12.0094V9.20987L11.8594 9.12952Z" fill="white"/>
<path d="M12.0889 9.31038L12.042 9.15973L11.9717 9.18484L12.0889 9.31038Z" fill="white"/>
<path d="M12.0892 9.31036L11.9673 9.21494L12.0095 9.14966L12.0892 9.31036Z" fill="white"/>
<path d="M11.9109 9.31036L12.0328 9.21494L11.9906 9.14966L11.9109 9.31036Z" fill="white"/>
<path d="M11.9109 9.31038L11.9578 9.15973L12.0281 9.18484L11.9109 9.31038Z" fill="white"/>
<path d="M12.4032 8.30096L12.3657 8.42651L12.4267 8.45162L12.4032 8.30096Z" fill="white"/>
<path d="M12.4033 8.30096L12.4455 8.42651L12.3845 8.45162L12.4033 8.30096Z" fill="white"/>
<path d="M12.525 8.39636H12.3984V8.46165L12.525 8.39636Z" fill="white"/>
<path d="M12.5251 8.39636L12.422 8.47169L12.3845 8.41645L12.5251 8.39636Z" fill="white"/>
<path d="M12.2861 8.39636L12.3893 8.47169L12.4221 8.41645L12.2861 8.39636Z" fill="white"/>
<path d="M12.2861 8.39636H12.4127V8.46165L12.2861 8.39636Z" fill="white"/>
<path d="M12.4781 8.54199L12.4406 8.41644L12.3796 8.43653L12.4781 8.54199Z" fill="white"/>
<path d="M12.4781 8.542L12.375 8.46668L12.4125 8.41144L12.4781 8.542Z" fill="white"/>
<path d="M12.333 8.542L12.4314 8.46668L12.3939 8.41144L12.333 8.542Z" fill="white"/>
<path d="M12.333 8.54199L12.3705 8.41644L12.4314 8.43653L12.333 8.54199Z" fill="white"/>
<path d="M11.9999 7.96448L11.9624 8.09504L12.0187 8.11513L11.9999 7.96448Z" fill="white"/>
<path d="M12.0002 7.96448L12.0377 8.09504L11.9814 8.11513L12.0002 7.96448Z" fill="white"/>
<path d="M12.117 8.05994H11.9951V8.12522L12.117 8.05994Z" fill="white"/>
<path d="M12.1174 8.05994L12.0189 8.13526L11.9814 8.08002L12.1174 8.05994Z" fill="white"/>
<path d="M11.8828 8.05994L11.9813 8.13526L12.0187 8.08002L11.8828 8.05994Z" fill="white"/>
<path d="M11.8828 8.05994H12.0047V8.12522L11.8828 8.05994Z" fill="white"/>
<path d="M12.075 8.20556L12.0328 8.08002L11.9766 8.1001L12.075 8.20556Z" fill="white"/>
<path d="M12.0748 8.20552L11.9717 8.13019L12.0092 8.07495L12.0748 8.20552Z" fill="white"/>
<path d="M11.9248 8.20552L12.0279 8.13019L11.9904 8.07495L11.9248 8.20552Z" fill="white"/>
<path d="M11.9248 8.20556L11.967 8.08002L12.0232 8.1001L11.9248 8.20556Z" fill="white"/>
<path d="M11.6492 8.33112L11.6157 8.43155L11.6635 8.44662L11.6492 8.33112Z" fill="white"/>
<path d="M11.6488 8.33112L11.6775 8.43155L11.6296 8.44662L11.6488 8.33112Z" fill="white"/>
<path d="M11.742 8.40137H11.6436V8.45661L11.742 8.40137Z" fill="white"/>
<path d="M11.7421 8.40137L11.6624 8.46665L11.6343 8.42145L11.7421 8.40137Z" fill="white"/>
<path d="M11.5547 8.40137L11.6344 8.46665L11.6625 8.42145L11.5547 8.40137Z" fill="white"/>
<path d="M11.5547 8.40137H11.6531V8.45661L11.5547 8.40137Z" fill="white"/>
<path d="M11.7046 8.52194L11.6765 8.42151L11.6296 8.43657L11.7046 8.52194Z" fill="white"/>
<path d="M11.7047 8.5219L11.625 8.46164L11.6531 8.41644L11.7047 8.5219Z" fill="white"/>
<path d="M11.5874 8.5219L11.6718 8.46164L11.639 8.41644L11.5874 8.5219Z" fill="white"/>
<path d="M11.5874 8.52194L11.6202 8.42151L11.6671 8.43657L11.5874 8.52194Z" fill="white"/>
<path d="M11.8223 8.61737L11.8032 8.6927L11.8367 8.70274L11.8223 8.61737Z" fill="white"/>
<path d="M11.8221 8.61737L11.846 8.6927L11.8125 8.70274L11.8221 8.61737Z" fill="white"/>
<path d="M11.8923 8.67261H11.822V8.71278L11.8923 8.67261Z" fill="white"/>
<path d="M11.8922 8.67261L11.8359 8.7178L11.8125 8.68767L11.8922 8.67261Z" fill="white"/>
<path d="M11.7563 8.67261L11.8126 8.7178L11.836 8.68767L11.7563 8.67261Z" fill="white"/>
<path d="M11.7563 8.67261H11.8267V8.71278L11.7563 8.67261Z" fill="white"/>
<path d="M11.8641 8.75794L11.8454 8.68262L11.8079 8.69768L11.8641 8.75794Z" fill="white"/>
<path d="M11.8641 8.75794L11.8079 8.71275L11.8313 8.68262L11.8641 8.75794Z" fill="white"/>
<path d="M11.7798 8.75794L11.8407 8.71275L11.8173 8.68262L11.7798 8.75794Z" fill="white"/>
<path d="M11.7798 8.75794L11.8032 8.68262L11.836 8.69768L11.7798 8.75794Z" fill="white"/>
<path d="M13.05 9.88782L13.0078 10.0184L13.0687 10.0385L13.05 9.88782Z" fill="white"/>
<path d="M13.05 9.88782L13.0875 10.0184L13.0266 10.0385L13.05 9.88782Z" fill="white"/>
<path d="M13.1671 9.97827H13.0405V10.0486L13.1671 9.97827Z" fill="white"/>
<path d="M13.1672 9.97827L13.0641 10.0586L13.0266 10.0034L13.1672 9.97827Z" fill="white"/>
<path d="M12.9282 9.97827L13.0313 10.0586L13.0688 10.0034L12.9282 9.97827Z" fill="white"/>
<path d="M12.9282 9.97827H13.0548V10.0486L12.9282 9.97827Z" fill="white"/>
<path d="M13.1204 10.1289L13.0829 10.0034L13.022 10.0234L13.1204 10.1289Z" fill="white"/>
<path d="M13.1204 10.1289L13.022 10.0536L13.0548 9.99835L13.1204 10.1289Z" fill="white"/>
<path d="M12.9751 10.1289L13.0735 10.0536L13.0407 9.99835L12.9751 10.1289Z" fill="white"/>
<path d="M12.9751 10.1289L13.0126 10.0034L13.0735 10.0234L12.9751 10.1289Z" fill="white"/>
<path d="M13.3458 9.58154L13.3171 9.687L13.365 9.70206L13.3458 9.58154Z" fill="white"/>
<path d="M13.3456 9.58154L13.3791 9.687L13.3313 9.70206L13.3456 9.58154Z" fill="white"/>
<path d="M13.4437 9.65686H13.3406V9.7121L13.4437 9.65686Z" fill="white"/>
<path d="M13.4438 9.65686L13.3641 9.72214L13.3313 9.67695L13.4438 9.65686Z" fill="white"/>
<path d="M13.2515 9.65686L13.3312 9.72214L13.364 9.67695L13.2515 9.65686Z" fill="white"/>
<path d="M13.2515 9.65686H13.3546V9.7121L13.2515 9.65686Z" fill="white"/>
<path d="M13.4063 9.77738L13.3735 9.67694L13.3267 9.69201L13.4063 9.77738Z" fill="white"/>
<path d="M13.4063 9.77739L13.3267 9.71713L13.3548 9.67194L13.4063 9.77739Z" fill="white"/>
<path d="M13.2891 9.77739L13.3688 9.71713L13.3406 9.67194L13.2891 9.77739Z" fill="white"/>
<path d="M13.2891 9.77738L13.3219 9.67694L13.3688 9.69201L13.2891 9.77738Z" fill="white"/>
<path d="M12.7739 9.49115L12.7405 9.59159L12.7883 9.61167L12.7739 9.49115Z" fill="white"/>
<path d="M12.7738 9.49115L12.8025 9.59159L12.7546 9.61167L12.7738 9.49115Z" fill="white"/>
<path d="M12.8672 9.56647H12.7688V9.62171L12.8672 9.56647Z" fill="white"/>
<path d="M12.8671 9.56647L12.7875 9.62673L12.7546 9.58655L12.8671 9.56647Z" fill="white"/>
<path d="M12.675 9.56647L12.7594 9.62673L12.7875 9.58655L12.675 9.56647Z" fill="white"/>
<path d="M12.675 9.56647H12.7782V9.62171L12.675 9.56647Z" fill="white"/>
<path d="M12.8297 9.687L12.8016 9.58154L12.75 9.60163L12.8297 9.687Z" fill="white"/>
<path d="M12.8297 9.687L12.75 9.62172L12.7781 9.58154L12.8297 9.687Z" fill="white"/>
<path d="M12.7126 9.687L12.7923 9.62172L12.7642 9.58154L12.7126 9.687Z" fill="white"/>
<path d="M12.7126 9.687L12.7455 9.58154L12.7923 9.60163L12.7126 9.687Z" fill="white"/>
<path d="M10.5937 9.32544L10.5515 9.47609L10.6218 9.50622L10.5937 9.32544Z" fill="white"/>
<path d="M10.5938 9.32544L10.6406 9.47609L10.5703 9.50622L10.5938 9.32544Z" fill="white"/>
<path d="M10.7391 9.43591H10.5891V9.51626L10.7391 9.43591Z" fill="white"/>
<path d="M10.739 9.43591L10.6171 9.53133L10.575 9.46604L10.739 9.43591Z" fill="white"/>
<path d="M10.4531 9.43591L10.575 9.53133L10.6172 9.46604L10.4531 9.43591Z" fill="white"/>
<path d="M10.4531 9.43591H10.6031V9.51626L10.4531 9.43591Z" fill="white"/>
<path d="M10.6829 9.61666L10.636 9.466L10.5657 9.49111L10.6829 9.61666Z" fill="white"/>
<path d="M10.6829 9.61663L10.561 9.52121L10.6079 9.45593L10.6829 9.61663Z" fill="white"/>
<path d="M10.5049 9.61663L10.6268 9.52121L10.5846 9.45593L10.5049 9.61663Z" fill="white"/>
<path d="M10.5049 9.61666L10.5518 9.466L10.6268 9.49111L10.5049 9.61666Z" fill="white"/>
<path d="M12.0002 10.3749L11.9858 10.4302L12.0097 10.4352L12.0002 10.3749Z" fill="white"/>
<path d="M12.0003 10.3749L12.0146 10.4302L11.9907 10.4352L12.0003 10.3749Z" fill="white"/>
<path d="M12.0467 10.4152H11.9951V10.4403L12.0467 10.4152Z" fill="white"/>
<path d="M12.047 10.4152L12.0095 10.4453L11.9907 10.4252L12.047 10.4152Z" fill="white"/>
<path d="M11.9531 10.4152L11.9953 10.4453L12.0094 10.4252L11.9531 10.4152Z" fill="white"/>
<path d="M11.9531 10.4152H12.0047V10.4403L11.9531 10.4152Z" fill="white"/>
<path d="M12.029 10.4754L12.0146 10.4252L11.9907 10.4302L12.029 10.4754Z" fill="white"/>
<path d="M12.029 10.4754L11.9907 10.4403L12.0051 10.4202L12.029 10.4754Z" fill="white"/>
<path d="M11.9717 10.4754L12.0099 10.4403L11.9956 10.4202L11.9717 10.4754Z" fill="white"/>
<path d="M11.9717 10.4754L11.986 10.4252L12.0099 10.4302L11.9717 10.4754Z" fill="white"/>
<path d="M24 13.845H0V15H24V13.845Z" fill="#CB001C"/>
<path d="M24 12.69H0V13.845H24V12.69Z" fill="white"/>
<path d="M24 11.535H0V12.69H24V11.535Z" fill="#CB001C"/>
<path d="M24 10.38H0V11.535H24V10.38Z" fill="white"/>
<path d="M24 9.22998H0V10.385H24V9.22998Z" fill="#CB001C"/>
<path d="M24 8.07501H0V9.23002H24V8.07501Z" fill="white"/>
<path d="M24 6.91998H0V8.07499H24V6.91998Z" fill="#CB001C"/>
<path d="M24 5.76495H0V6.91996H24V5.76495Z" fill="white"/>
<path d="M24 4.61499H0V5.77H24V4.61499Z" fill="#CB001C"/>
<path d="M24 3.46002H0V4.61503H24V3.46002Z" fill="white"/>
<path d="M24 2.30499H0V3.46H24V2.30499Z" fill="#CB001C"/>
<path d="M24 1.14996H0V2.30497H24V1.14996Z" fill="white"/>
<path d="M24 0H0V1.155H24V0Z" fill="#CB001C"/>
<path d="M10.9594 0H0V8.07499H10.9594V0Z" fill="#2A3560"/>
<path d="M0.988965 0.888855L1.08271 1.19518H1.37803L1.13896 1.38099L1.22803 1.68732L0.988965 1.49649L0.745215 1.68732L0.838965 1.38099L0.595215 1.19518H0.895215L0.988965 0.888855Z" fill="white"/>
<path d="M0.988965 2.23468L1.08271 2.54101H1.37803L1.13896 2.73183L1.22803 3.03314L0.988965 2.84733L0.745215 3.03314L0.838965 2.73183L0.595215 2.54101H0.895215L0.988965 2.23468Z" fill="white"/>
<path d="M0.988965 3.58551L1.08271 3.89184H1.37803L1.13896 4.07764L1.22803 4.38397L0.988965 4.19314L0.745215 4.38397L0.838965 4.07764L0.595215 3.89184H0.895215L0.988965 3.58551Z" fill="white"/>
<path d="M0.988965 4.9314L1.08271 5.23772H1.37803L1.13896 5.42855L1.22803 5.72986L0.988965 5.54405L0.745215 5.72986L0.838965 5.42855L0.595215 5.23772H0.895215L0.988965 4.9314Z" fill="white"/>
<path d="M0.988965 6.28223L1.08271 6.58353H1.37803L1.13896 6.77436L1.22803 7.08069L0.988965 6.88986L0.745215 7.08069L0.838965 6.77436L0.595215 6.58353H0.895215L0.988965 6.28223Z" fill="white"/>
<path d="M1.86567 1.59692L1.95942 1.90325H2.25474L2.01567 2.09408L2.10474 2.39538L1.86567 2.20958L1.62192 2.39538L1.71567 2.09408L1.47192 1.90325H1.77192L1.86567 1.59692Z" fill="white"/>
<path d="M1.86567 2.94775L1.95942 3.24906H2.25474L2.01567 3.43989L2.10474 3.74621L1.86567 3.55539L1.62192 3.74621L1.71567 3.43989L1.47192 3.24906H1.77192L1.86567 2.94775Z" fill="white"/>
<path d="M1.86567 4.29358L1.95942 4.59991H2.25474L2.01567 4.79073L2.10474 5.09204L1.86567 4.90623L1.62192 5.09204L1.71567 4.79073L1.47192 4.59991H1.77192L1.86567 4.29358Z" fill="white"/>
<path d="M1.86567 5.64447L1.95942 5.94578H2.25474L2.01567 6.1366L2.10474 6.44293L1.86567 6.2521L1.62192 6.44293L1.71567 6.1366L1.47192 5.94578H1.77192L1.86567 5.64447Z" fill="white"/>
<path d="M2.75166 0.888855L2.84541 1.19518H3.14541L2.90166 1.38099L2.99541 1.68732L2.75166 1.49649L2.50791 1.68732L2.60166 1.38099L2.35791 1.19518H2.65791L2.75166 0.888855Z" fill="white"/>
<path d="M2.75166 2.23468L2.84541 2.54101H3.14541L2.90166 2.73183L2.99541 3.03314L2.75166 2.84733L2.50791 3.03314L2.60166 2.73183L2.35791 2.54101H2.65791L2.75166 2.23468Z" fill="white"/>
<path d="M2.75166 3.58551L2.84541 3.89184H3.14541L2.90166 4.07764L2.99541 4.38397L2.75166 4.19314L2.50791 4.38397L2.60166 4.07764L2.35791 3.89184H2.65791L2.75166 3.58551Z" fill="white"/>
<path d="M2.75166 4.9314L2.84541 5.23772H3.14541L2.90166 5.42855L2.99541 5.72986L2.75166 5.54405L2.50791 5.72986L2.60166 5.42855L2.35791 5.23772H2.65791L2.75166 4.9314Z" fill="white"/>
<path d="M2.75166 6.28223L2.84541 6.58353H3.14541L2.90166 6.77436L2.99541 7.08069L2.75166 6.88986L2.50791 7.08069L2.60166 6.77436L2.35791 6.58353H2.65791L2.75166 6.28223Z" fill="white"/>
<path d="M3.62813 1.59692L3.72188 1.90325H4.02188L3.77812 2.09408L3.87187 2.39538L3.62813 2.20958L3.38437 2.39538L3.47812 2.09408L3.23438 1.90325H3.53438L3.62813 1.59692Z" fill="white"/>
<path d="M3.62813 2.94775L3.72188 3.24906H4.02188L3.77812 3.43989L3.87187 3.74621L3.62813 3.55539L3.38437 3.74621L3.47812 3.43989L3.23438 3.24906H3.53438L3.62813 2.94775Z" fill="white"/>
<path d="M3.62813 4.29358L3.72188 4.59991H4.02188L3.77812 4.79073L3.87187 5.09204L3.62813 4.90623L3.38437 5.09204L3.47812 4.79073L3.23438 4.59991H3.53438L3.62813 4.29358Z" fill="white"/>
<path d="M3.62813 5.64447L3.72188 5.94578H4.02188L3.77812 6.1366L3.87187 6.44293L3.62813 6.2521L3.38437 6.44293L3.47812 6.1366L3.23438 5.94578H3.53438L3.62813 5.64447Z" fill="white"/>
<path d="M4.51406 0.888855L4.60781 1.19518H4.90781L4.66406 1.38099L4.75781 1.68732L4.51406 1.49649L4.275 1.68732L4.36875 1.38099L4.125 1.19518H4.425L4.51406 0.888855Z" fill="white"/>
<path d="M4.51406 2.23468L4.60781 2.54101H4.90781L4.66406 2.73183L4.75781 3.03314L4.51406 2.84733L4.275 3.03314L4.36875 2.73183L4.125 2.54101H4.425L4.51406 2.23468Z" fill="white"/>
<path d="M4.51406 3.58551L4.60781 3.89184H4.90781L4.66406 4.07764L4.75781 4.38397L4.51406 4.19314L4.275 4.38397L4.36875 4.07764L4.125 3.89184H4.425L4.51406 3.58551Z" fill="white"/>
<path d="M4.51406 4.9314L4.60781 5.23772H4.90781L4.66406 5.42855L4.75781 5.72986L4.51406 5.54405L4.275 5.72986L4.36875 5.42855L4.125 5.23772H4.425L4.51406 4.9314Z" fill="white"/>
<path d="M4.51406 6.28223L4.60781 6.58353H4.90781L4.66406 6.77436L4.75781 7.08069L4.51406 6.88986L4.275 7.08069L4.36875 6.77436L4.125 6.58353H4.425L4.51406 6.28223Z" fill="white"/>
<path d="M5.39053 1.59692L5.48428 1.90325H5.78428L5.54053 2.09408L5.63428 2.39538L5.39053 2.20958L5.15147 2.39538L5.24053 2.09408L5.00146 1.90325H5.30146L5.39053 1.59692Z" fill="white"/>
<path d="M5.39053 2.94775L5.48428 3.24906H5.78428L5.54053 3.43989L5.63428 3.74621L5.39053 3.55539L5.15147 3.74621L5.24053 3.43989L5.00146 3.24906H5.30146L5.39053 2.94775Z" fill="white"/>
<path d="M5.39053 4.29358L5.48428 4.59991H5.78428L5.54053 4.79073L5.63428 5.09204L5.39053 4.90623L5.15147 5.09204L5.24053 4.79073L5.00146 4.59991H5.30146L5.39053 4.29358Z" fill="white"/>
<path d="M5.39053 5.64447L5.48428 5.94578H5.78428L5.54053 6.1366L5.63428 6.44293L5.39053 6.2521L5.15147 6.44293L5.24053 6.1366L5.00146 5.94578H5.30146L5.39053 5.64447Z" fill="white"/>
<path d="M6.2812 0.888855L6.37495 1.19518H6.67026L6.4312 1.38099L6.52026 1.68732L6.2812 1.49649L6.03745 1.68732L6.1312 1.38099L5.88745 1.19518H6.18745L6.2812 0.888855Z" fill="white"/>
<path d="M6.2812 2.23468L6.37495 2.54101H6.67026L6.4312 2.73183L6.52026 3.03314L6.2812 2.84733L6.03745 3.03314L6.1312 2.73183L5.88745 2.54101H6.18745L6.2812 2.23468Z" fill="white"/>
<path d="M6.2812 3.58551L6.37495 3.89184H6.67026L6.4312 4.07764L6.52026 4.38397L6.2812 4.19314L6.03745 4.38397L6.1312 4.07764L5.88745 3.89184H6.18745L6.2812 3.58551Z" fill="white"/>
<path d="M6.2812 4.9314L6.37495 5.23772H6.67026L6.4312 5.42855L6.52026 5.72986L6.2812 5.54405L6.03745 5.72986L6.1312 5.42855L5.88745 5.23772H6.18745L6.2812 4.9314Z" fill="white"/>
<path d="M6.2812 6.28223L6.37495 6.58353H6.67026L6.4312 6.77436L6.52026 7.08069L6.2812 6.88986L6.03745 7.08069L6.1312 6.77436L5.88745 6.58353H6.18745L6.2812 6.28223Z" fill="white"/>
<path d="M7.15791 1.59692L7.24697 1.90325H7.54697L7.30791 2.09408L7.39697 2.39538L7.15791 2.20958L6.91416 2.39538L7.00791 2.09408L6.76416 1.90325H7.06416L7.15791 1.59692Z" fill="white"/>
<path d="M7.15791 2.94775L7.24697 3.24906H7.54697L7.30791 3.43989L7.39697 3.74621L7.15791 3.55539L6.91416 3.74621L7.00791 3.43989L6.76416 3.24906H7.06416L7.15791 2.94775Z" fill="white"/>
<path d="M7.15791 4.29358L7.24697 4.59991H7.54697L7.30791 4.79073L7.39697 5.09204L7.15791 4.90623L6.91416 5.09204L7.00791 4.79073L6.76416 4.59991H7.06416L7.15791 4.29358Z" fill="white"/>
<path d="M7.15791 5.64447L7.24697 5.94578H7.54697L7.30791 6.1366L7.39697 6.44293L7.15791 6.2521L6.91416 6.44293L7.00791 6.1366L6.76416 5.94578H7.06416L7.15791 5.64447Z" fill="white"/>
<path d="M8.04365 0.888855L8.1374 1.19518H8.4374L8.19365 1.38099L8.2874 1.68732L8.04365 1.49649L7.7999 1.68732L7.89365 1.38099L7.6499 1.19518H7.9499L8.04365 0.888855Z" fill="white"/>
<path d="M8.04365 2.23468L8.1374 2.54101H8.4374L8.19365 2.73183L8.2874 3.03314L8.04365 2.84733L7.7999 3.03314L7.89365 2.73183L7.6499 2.54101H7.9499L8.04365 2.23468Z" fill="white"/>
<path d="M8.04365 3.58551L8.1374 3.89184H8.4374L8.19365 4.07764L8.2874 4.38397L8.04365 4.19314L7.7999 4.38397L7.89365 4.07764L7.6499 3.89184H7.9499L8.04365 3.58551Z" fill="white"/>
<path d="M8.04365 4.9314L8.1374 5.23772H8.4374L8.19365 5.42855L8.2874 5.72986L8.04365 5.54405L7.7999 5.72986L7.89365 5.42855L7.6499 5.23772H7.9499L8.04365 4.9314Z" fill="white"/>
<path d="M8.04365 6.28223L8.1374 6.58353H8.4374L8.19365 6.77436L8.2874 7.08069L8.04365 6.88986L7.7999 7.08069L7.89365 6.77436L7.6499 6.58353H7.9499L8.04365 6.28223Z" fill="white"/>
<path d="M8.92036 1.59692L9.01411 1.90325H9.31411L9.07036 2.09408L9.16411 2.39538L8.92036 2.20958L8.67661 2.39538L8.77036 2.09408L8.52661 1.90325H8.82661L8.92036 1.59692Z" fill="white"/>
<path d="M8.92036 2.94775L9.01411 3.24906H9.31411L9.07036 3.43989L9.16411 3.74621L8.92036 3.55539L8.67661 3.74621L8.77036 3.43989L8.52661 3.24906H8.82661L8.92036 2.94775Z" fill="white"/>
<path d="M8.92036 4.29358L9.01411 4.59991H9.31411L9.07036 4.79073L9.16411 5.09204L8.92036 4.90623L8.67661 5.09204L8.77036 4.79073L8.52661 4.59991H8.82661L8.92036 4.29358Z" fill="white"/>
<path d="M8.92036 5.64447L9.01411 5.94578H9.31411L9.07036 6.1366L9.16411 6.44293L8.92036 6.2521L8.67661 6.44293L8.77036 6.1366L8.52661 5.94578H8.82661L8.92036 5.64447Z" fill="white"/>
<path d="M9.8063 0.888855L9.90005 1.19518H10.2L9.9563 1.38099L10.05 1.68732L9.8063 1.49649L9.56724 1.68732L9.6563 1.38099L9.41724 1.19518H9.71724L9.8063 0.888855Z" fill="white"/>
<path d="M9.8063 2.23468L9.90005 2.54101H10.2L9.9563 2.73183L10.05 3.03314L9.8063 2.84733L9.56724 3.03314L9.6563 2.73183L9.41724 2.54101H9.71724L9.8063 2.23468Z" fill="white"/>
<path d="M9.8063 3.58551L9.90005 3.89184H10.2L9.9563 4.07764L10.05 4.38397L9.8063 4.19314L9.56724 4.38397L9.6563 4.07764L9.41724 3.89184H9.71724L9.8063 3.58551Z" fill="white"/>
<path d="M9.8063 4.9314L9.90005 5.23772H10.2L9.9563 5.42855L10.05 5.72986L9.8063 5.54405L9.56724 5.72986L9.6563 5.42855L9.41724 5.23772H9.71724L9.8063 4.9314Z" fill="white"/>
<path d="M9.8063 6.28223L9.90005 6.58353H10.2L9.9563 6.77436L10.05 7.08069L9.8063 6.88986L9.56724 7.08069L9.6563 6.77436L9.41724 6.58353H9.71724L9.8063 6.28223Z" fill="white"/>
</svg>