<svg width="24" height="15" viewBox="0 0 24 15" fill="none" xmlns="http://www.w3.org/2000/svg">
<path d="M22 0H2C0.895431 0 0 0.89543 0 2V13C0 14.1046 0.89543 15 2 15H22C23.1046 15 24 14.1046 24 13V2C24 0.895431 23.1046 0 22 0Z" fill="#3D9244"/>
<path d="M3.69849 7.49748L12 13.1771L20.3016 7.49748L12 1.81787L3.69849 7.49748Z" fill="#EDC223"/>
<path d="M15.5017 7.49747C15.5017 9.56644 13.9313 11.2487 12.0001 11.2487C10.0688 11.2487 8.49854 9.57146 8.49854 7.49747C8.49854 5.42851 10.0642 3.74622 12.0001 3.74622C13.9313 3.74622 15.5017 5.42851 15.5017 7.49747Z" fill="#31276C"/>
<path d="M9.99834 5.8905C9.59053 5.8905 9.1874 5.92063 8.79834 5.98089C8.72334 6.1667 8.6624 6.35753 8.61084 6.55338C9.06084 6.46801 9.5249 6.42281 9.99834 6.42281C12.0515 6.42281 13.9218 7.2514 15.3374 8.6123C15.3937 8.42147 15.4358 8.2206 15.464 8.01973C13.9874 6.69398 12.0796 5.8905 9.99834 5.8905Z" fill="white"/>
<path fill-rule="evenodd" clip-rule="evenodd" d="M9.01417 6.40277C9.09854 6.39272 9.15479 6.30233 9.14073 6.20692C9.13135 6.1115 9.05167 6.03618 8.97198 6.05124C8.8876 6.06129 8.83135 6.15168 8.84542 6.24709C8.85948 6.3425 8.93448 6.41281 9.01417 6.40277ZM9.00948 6.33748C9.05635 6.33246 9.08917 6.27722 9.08448 6.21696C9.0751 6.1567 9.03292 6.1115 8.98604 6.11653C8.93917 6.12155 8.90635 6.17679 8.91104 6.23705C8.91573 6.29731 8.95792 6.3425 9.00948 6.33748Z" fill="#3D9244"/>
<path fill-rule="evenodd" clip-rule="evenodd" d="M9.28613 6.36768L9.34707 6.36266L9.33769 6.2321L9.46895 6.22205C9.5252 6.21703 9.57207 6.16179 9.56738 6.10153C9.5627 6.04127 9.51582 5.99105 9.45488 5.99607L9.2627 6.01114L9.28613 6.36768ZM9.33769 6.16681L9.46426 6.15677C9.48769 6.15677 9.50644 6.13166 9.50176 6.10655C9.50176 6.08144 9.47832 6.06136 9.45488 6.06638L9.32832 6.07642L9.33769 6.16681Z" fill="#3D9244"/>
<path d="M9.56719 6.34745C9.5625 6.29723 9.55781 6.18173 9.4875 6.19178L9.39844 6.1968C9.50156 6.18676 9.51094 6.30226 9.51094 6.35247" fill="#3D9244"/>
<path fill-rule="evenodd" clip-rule="evenodd" d="M9.70781 6.34252L9.86719 6.3375C9.94688 6.3375 10.0078 6.2672 10.0078 6.18183V6.13161C10.0078 6.04624 9.94219 5.98096 9.8625 5.98096L9.70312 5.98598L9.70781 6.34252ZM9.76875 6.27222H9.85781C9.90938 6.27222 9.94687 6.22702 9.94687 6.17178V6.14165C9.94687 6.08641 9.90469 6.04624 9.85312 6.04624H9.76406L9.76875 6.27222Z" fill="#3D9244"/>
<path d="M10.1343 6.3375L10.4343 6.34755V6.28226L10.1905 6.27222L10.1952 6.18183L10.3874 6.18685V6.12659L10.1952 6.12157L10.1999 6.04624L10.4296 6.05628V5.991L10.1437 5.98096L10.1343 6.3375Z" fill="#3D9244"/>
<path d="M10.5562 6.35752L10.6124 6.36254L10.6312 6.11648L10.678 6.36757L10.7296 6.37259L10.8187 6.13656L10.7952 6.37761L10.8562 6.38263L10.8843 6.02609L10.7999 6.02106L10.7155 6.25709L10.6687 6.006L10.5843 6.00098L10.5562 6.35752Z" fill="#3D9244"/>
<path d="M11.2454 6.43783L11.4938 6.48303L11.5032 6.42277L11.311 6.38761L11.325 6.30726L11.4797 6.3374L11.4891 6.27713L11.3344 6.247L11.3438 6.19176L11.5266 6.22692L11.536 6.16666L11.2969 6.12146L11.2454 6.43783Z" fill="#3D9244"/>
<path fill-rule="evenodd" clip-rule="evenodd" d="M11.8782 6.57354L11.9391 6.5886L11.9719 6.46306L12.1032 6.49821C12.1594 6.51327 12.2157 6.47812 12.2297 6.41786C12.2438 6.3576 12.211 6.29734 12.1547 6.28227L11.9719 6.23206L11.8782 6.57354ZM11.986 6.39777L12.1125 6.43293C12.136 6.43795 12.1594 6.42288 12.1641 6.39777C12.1688 6.37267 12.1547 6.34756 12.1313 6.34253L12.0047 6.30738L11.986 6.39777Z" fill="#3D9244"/>
<path fill-rule="evenodd" clip-rule="evenodd" d="M12.2861 6.689L12.3471 6.70908L12.3846 6.58354L12.5111 6.62874C12.5674 6.64882 12.6236 6.61367 12.6424 6.55341C12.6611 6.49315 12.6283 6.43289 12.5721 6.4128L12.3893 6.35254L12.2861 6.689ZM12.4033 6.51826L12.5252 6.55843C12.5486 6.56848 12.5721 6.55341 12.5814 6.5283C12.5908 6.50319 12.5768 6.47808 12.5533 6.46804L12.4314 6.42787L12.4033 6.51826Z" fill="#3D9244"/>
<path d="M12.5578 6.7794C12.5718 6.72918 12.6046 6.62372 12.5343 6.59861L12.45 6.56848C12.5484 6.60363 12.5203 6.70909 12.5015 6.75931" fill="#3D9244"/>
<path fill-rule="evenodd" clip-rule="evenodd" d="M12.8298 6.88477C12.9095 6.9149 12.9985 6.86468 13.0267 6.77429C13.0595 6.6839 13.022 6.58346 12.9423 6.54831C12.8626 6.51818 12.7735 6.5684 12.7454 6.65879C12.7173 6.7542 12.7548 6.85464 12.8298 6.88477ZM12.8532 6.82451C12.9001 6.84459 12.9517 6.80944 12.9704 6.7542C12.9892 6.69394 12.9704 6.63368 12.9235 6.61359C12.8767 6.59351 12.8251 6.62866 12.8064 6.6839C12.7876 6.74416 12.8064 6.80442 12.8532 6.82451Z" fill="#3D9244"/>
<path fill-rule="evenodd" clip-rule="evenodd" d="M13.2236 7.05563C13.2986 7.09078 13.3923 7.04559 13.4298 6.9552C13.4673 6.8648 13.4345 6.76437 13.3595 6.72922C13.2845 6.69406 13.1908 6.73926 13.1533 6.82965C13.1158 6.91502 13.1486 7.02048 13.2236 7.05563ZM13.247 6.99537C13.2892 7.01546 13.3455 6.98533 13.3689 6.93009C13.3923 6.87485 13.3736 6.80956 13.3314 6.78948C13.2892 6.76939 13.233 6.79952 13.2095 6.85476C13.1861 6.91 13.2048 6.97528 13.247 6.99537Z" fill="#3D9244"/>
<path d="M13.3125 6.8999L13.4296 6.95514L13.4062 7.00034L13.2937 6.9451L13.3125 6.8999Z" fill="#3D9244"/>
<path d="M13.3828 6.93506L13.4296 6.95515L13.3593 7.12086L13.3171 7.10078L13.3828 6.93506Z" fill="#3D9244"/>
<path fill-rule="evenodd" clip-rule="evenodd" d="M13.4717 7.17611L13.5279 7.20624L13.5842 7.08572L13.7014 7.151C13.7529 7.18113 13.8186 7.15603 13.842 7.10079C13.8654 7.04555 13.8467 6.98026 13.7951 6.95013L13.6264 6.85974L13.4717 7.17611ZM13.6123 7.02546L13.7295 7.08572C13.7529 7.09576 13.7764 7.08572 13.7857 7.06563C13.7951 7.04052 13.7857 7.01542 13.767 7.00537L13.6498 6.94511L13.6123 7.02546Z" fill="#3D9244"/>
<path d="M13.7249 7.31167C13.7483 7.26648 13.7905 7.16604 13.7296 7.13089L13.6499 7.08569C13.7437 7.13591 13.6968 7.23635 13.6733 7.28154" fill="#3D9244"/>
<path d="M13.8516 7.38203L14.1094 7.5377L14.1422 7.48246L13.9313 7.3519L13.9734 7.27155L14.1375 7.37198L14.1656 7.32177L14.0016 7.22133L14.0344 7.15605L14.2313 7.27657L14.2641 7.22133L14.0156 7.07068L13.8516 7.38203Z" fill="#3D9244"/>
<path d="M14.3345 7.55275C14.3157 7.58288 14.3345 7.61804 14.3766 7.64314C14.4188 7.66825 14.4423 7.66825 14.4563 7.64817C14.4938 7.58791 14.2829 7.49751 14.3485 7.39206C14.4048 7.30167 14.4985 7.37197 14.536 7.39708C14.5735 7.42219 14.6298 7.48747 14.5829 7.55778L14.522 7.5176C14.5407 7.48747 14.522 7.45232 14.4891 7.43223C14.461 7.41214 14.4329 7.4021 14.4141 7.43223C14.3813 7.48245 14.5876 7.57786 14.5266 7.68332C14.4798 7.76367 14.4001 7.72851 14.3438 7.68834C14.297 7.65821 14.2266 7.58288 14.2735 7.50756L14.3345 7.55275Z" fill="#3D9244"/>
<path d="M14.6953 7.80887C14.6765 7.839 14.6906 7.87416 14.7328 7.90429C14.7703 7.93442 14.7984 7.93442 14.8125 7.91433C14.85 7.85407 14.6437 7.75363 14.714 7.6532C14.775 7.56281 14.8687 7.64315 14.9015 7.66826C14.9344 7.69337 14.9906 7.76368 14.9437 7.83398L14.8828 7.78879C14.9015 7.75865 14.8828 7.7235 14.8547 7.70342C14.8265 7.67831 14.7984 7.66826 14.7797 7.69839C14.7469 7.74359 14.9484 7.85407 14.8781 7.9545C14.8265 8.02983 14.7469 7.98966 14.6953 7.9545C14.6531 7.91935 14.5875 7.84402 14.6344 7.7687L14.6953 7.80887Z" fill="#3D9244"/>
<path fill-rule="evenodd" clip-rule="evenodd" d="M15.0327 8.2207C15.0984 8.27594 15.1968 8.25585 15.2531 8.18052C15.3093 8.1052 15.3046 7.99472 15.239 7.93948C15.1734 7.88424 15.0749 7.89931 15.0187 7.97965C14.9624 8.05498 14.9671 8.16546 15.0327 8.2207ZM15.0702 8.16546C15.1077 8.19559 15.1687 8.18555 15.2062 8.13533C15.2437 8.08511 15.239 8.01983 15.2015 7.9897C15.164 7.95957 15.1031 7.96961 15.0656 8.01983C15.0327 8.07004 15.0327 8.13533 15.0702 8.16546Z" fill="#3D9244"/>
<path d="M9.14526 6.66394L9.09839 6.81459L9.1687 6.8397L9.14526 6.66394Z" fill="white"/>
<path d="M9.14531 6.66394L9.1875 6.81459L9.11719 6.8397L9.14531 6.66394Z" fill="white"/>
<path d="M9.28599 6.77429H9.13599V6.85464L9.28599 6.77429Z" fill="white"/>
<path d="M9.28589 6.77429L9.16401 6.86971L9.12183 6.80442L9.28589 6.77429Z" fill="white"/>
<path d="M9 6.77429L9.12188 6.86971L9.16406 6.80442L9 6.77429Z" fill="white"/>
<path d="M9 6.77429H9.15V6.85464L9 6.77429Z" fill="white"/>
<path d="M9.22974 6.95511L9.18286 6.79944L9.11255 6.82455L9.22974 6.95511Z" fill="white"/>
<path d="M9.22978 6.95513L9.10791 6.85972L9.15479 6.79443L9.22978 6.95513Z" fill="white"/>
<path d="M9.05615 6.95513L9.17803 6.85972L9.13115 6.79443L9.05615 6.95513Z" fill="white"/>
<path d="M9.05615 6.95511L9.10303 6.79944L9.17334 6.82455L9.05615 6.95511Z" fill="white"/>
<path d="M9.45483 8.24072L9.40796 8.39138L9.47827 8.41648L9.45483 8.24072Z" fill="white"/>
<path d="M9.45464 8.24072L9.49683 8.39138L9.42651 8.41648L9.45464 8.24072Z" fill="white"/>
<path d="M9.59531 8.3512H9.44531V8.43154L9.59531 8.3512Z" fill="white"/>
<path d="M9.59521 8.3512L9.47334 8.44661L9.43115 8.38133L9.59521 8.3512Z" fill="white"/>
<path d="M9.30957 8.3512L9.43144 8.44661L9.47363 8.38133L9.30957 8.3512Z" fill="white"/>
<path d="M9.30957 8.3512H9.45957V8.43154L9.30957 8.3512Z" fill="white"/>
<path d="M9.53906 8.53202L9.49219 8.37634L9.42188 8.40145L9.53906 8.53202Z" fill="white"/>
<path d="M9.53911 8.53203L9.41724 8.43662L9.46411 8.37134L9.53911 8.53203Z" fill="white"/>
<path d="M9.36572 8.53203L9.4876 8.43662L9.44072 8.37134L9.36572 8.53203Z" fill="white"/>
<path d="M9.36572 8.53202L9.4126 8.37634L9.48291 8.40145L9.36572 8.53202Z" fill="white"/>
<path d="M9.02381 8.62732L8.99512 8.73278L9.04293 8.74784L9.02381 8.62732Z" fill="white"/>
<path d="M9.02362 8.62732L9.05709 8.73278L9.00928 8.74784L9.02362 8.62732Z" fill="white"/>
<path d="M9.11724 8.70276H9.0188V8.758L9.11724 8.70276Z" fill="white"/>
<path d="M9.11709 8.70276L9.0374 8.76804L9.00928 8.72285L9.11709 8.70276Z" fill="white"/>
<path d="M8.92969 8.70276L9.00937 8.76804L9.0375 8.72285L8.92969 8.70276Z" fill="white"/>
<path d="M8.92969 8.70276H9.02813V8.758L8.92969 8.70276Z" fill="white"/>
<path d="M9.08457 8.82321L9.05176 8.72278L9.00488 8.73784L9.08457 8.82321Z" fill="white"/>
<path d="M9.08438 8.82323L9 8.75795L9.03281 8.71777L9.08438 8.82323Z" fill="white"/>
<path d="M8.96729 8.82323L9.04697 8.75795L9.01885 8.71777L8.96729 8.82323Z" fill="white"/>
<path d="M8.96729 8.82321L8.99541 8.72278L9.04228 8.73784L8.96729 8.82321Z" fill="white"/>
<path d="M9.79734 8.09509L9.77344 8.1654L9.80691 8.18046L9.79734 8.09509Z" fill="white"/>
<path d="M9.79706 8.09509L9.81618 8.1654L9.78271 8.18046L9.79706 8.09509Z" fill="white"/>
<path d="M9.86255 8.14526H9.79224V8.18544L9.86255 8.14526Z" fill="white"/>
<path d="M9.8624 8.14526L9.80615 8.19046L9.78271 8.16033L9.8624 8.14526Z" fill="white"/>
<path d="M9.72656 8.14526L9.78281 8.19046L9.80625 8.16033L9.72656 8.14526Z" fill="white"/>
<path d="M9.72656 8.14526H9.79688V8.18544L9.72656 8.14526Z" fill="white"/>
<path d="M9.83896 8.2307L9.81553 8.1604L9.78271 8.17044L9.83896 8.2307Z" fill="white"/>
<path d="M9.83901 8.23072L9.77808 8.18553L9.80151 8.1554L9.83901 8.23072Z" fill="white"/>
<path d="M9.75464 8.23072L9.81089 8.18553L9.79214 8.1554L9.75464 8.23072Z" fill="white"/>
<path d="M9.75464 8.2307L9.77339 8.1604L9.81089 8.17044L9.75464 8.2307Z" fill="white"/>
<path d="M10.1811 8.63745L10.1436 8.76802L10.1998 8.7881L10.1811 8.63745Z" fill="white"/>
<path d="M10.1813 8.63745L10.2188 8.76802L10.1626 8.7881L10.1813 8.63745Z" fill="white"/>
<path d="M10.2986 8.73291H10.1768V8.79819L10.2986 8.73291Z" fill="white"/>
<path d="M10.2985 8.73291L10.2001 8.80824L10.1626 8.75802L10.2985 8.73291Z" fill="white"/>
<path d="M10.064 8.73291L10.1624 8.80824L10.1999 8.75802L10.064 8.73291Z" fill="white"/>
<path d="M10.064 8.73291H10.1858V8.79819L10.064 8.73291Z" fill="white"/>
<path d="M10.2562 8.87847L10.214 8.75293L10.1577 8.77302L10.2562 8.87847Z" fill="white"/>
<path d="M10.2562 8.87849L10.1531 8.80316L10.1906 8.74792L10.2562 8.87849Z" fill="white"/>
<path d="M10.1062 8.87849L10.2093 8.80316L10.1718 8.74792L10.1062 8.87849Z" fill="white"/>
<path d="M10.1062 8.87847L10.1484 8.75293L10.2046 8.77302L10.1062 8.87847Z" fill="white"/>
<path d="M10.0781 9.00903L10.0359 9.1396L10.0968 9.15969L10.0781 9.00903Z" fill="white"/>
<path d="M10.0781 9.00903L10.1156 9.1396L10.0547 9.15969L10.0781 9.00903Z" fill="white"/>
<path d="M10.1952 9.10437H10.0686V9.16965L10.1952 9.10437Z" fill="white"/>
<path d="M10.1953 9.10437L10.0921 9.18472L10.0593 9.12948L10.1953 9.10437Z" fill="white"/>
<path d="M9.9563 9.10437L10.0594 9.18472L10.0969 9.12948L9.9563 9.10437Z" fill="white"/>
<path d="M9.9563 9.10437H10.0829V9.16965L9.9563 9.10437Z" fill="white"/>
<path d="M10.1485 9.25508L10.111 9.12451L10.05 9.1446L10.1485 9.25508Z" fill="white"/>
<path d="M10.1485 9.25509L10.05 9.17475L10.0875 9.11951L10.1485 9.25509Z" fill="white"/>
<path d="M10.0032 9.25509L10.1063 9.17475L10.0688 9.11951L10.0032 9.25509Z" fill="white"/>
<path d="M10.0032 9.25508L10.0407 9.12451L10.1016 9.1446L10.0032 9.25508Z" fill="white"/>
<path d="M13.0874 6.17175L13.0405 6.32743L13.1108 6.35254L13.0874 6.17175Z" fill="white"/>
<path d="M13.0875 6.17175L13.1343 6.32743L13.0593 6.35254L13.0875 6.17175Z" fill="white"/>
<path d="M13.2281 6.28223H13.0781V6.36257L13.2281 6.28223Z" fill="white"/>
<path d="M13.228 6.28223L13.1062 6.37764L13.064 6.31236L13.228 6.28223Z" fill="white"/>
<path d="M12.9421 6.28223L13.064 6.37764L13.1109 6.31236L12.9421 6.28223Z" fill="white"/>
<path d="M12.9421 6.28223H13.0921V6.36257L12.9421 6.28223Z" fill="white"/>
<path d="M13.1719 6.46303L13.1297 6.31238L13.0547 6.33749L13.1719 6.46303Z" fill="white"/>
<path d="M13.1719 6.46294L13.0547 6.36753L13.0969 6.30225L13.1719 6.46294Z" fill="white"/>
<path d="M12.9985 6.46294L13.1204 6.36753L13.0735 6.30225L12.9985 6.46294Z" fill="white"/>
<path d="M12.9985 6.46303L13.0454 6.31238L13.1157 6.33749L12.9985 6.46303Z" fill="white"/>
<path d="M14.4517 8.65247L14.4048 8.80814L14.4798 8.82823L14.4517 8.65247Z" fill="white"/>
<path d="M14.4517 8.65247L14.4985 8.80814L14.4282 8.82823L14.4517 8.65247Z" fill="white"/>
<path d="M14.5968 8.76294H14.4468V8.84329L14.5968 8.76294Z" fill="white"/>
<path d="M14.597 8.76294L14.4751 8.85835L14.4282 8.79307L14.597 8.76294Z" fill="white"/>
<path d="M14.311 8.76294L14.4329 8.85835L14.4751 8.79307L14.311 8.76294Z" fill="white"/>
<path d="M14.311 8.76294H14.461V8.84329L14.311 8.76294Z" fill="white"/>
<path d="M14.5405 8.94374L14.4937 8.79309L14.4233 8.81318L14.5405 8.94374Z" fill="white"/>
<path d="M14.5408 8.94378L14.4189 8.84836L14.4658 8.78308L14.5408 8.94378Z" fill="white"/>
<path d="M14.3623 8.94378L14.4842 8.84836L14.442 8.78308L14.3623 8.94378Z" fill="white"/>
<path d="M14.3623 8.94374L14.4092 8.79309L14.4795 8.81318L14.3623 8.94374Z" fill="white"/>
<path d="M14.9397 8.74292L14.9062 8.84336L14.9541 8.85842L14.9397 8.74292Z" fill="white"/>
<path d="M14.9395 8.74292L14.9682 8.84336L14.9204 8.85842L14.9395 8.74292Z" fill="white"/>
<path d="M15.0328 8.81824H14.9343V8.86845L15.0328 8.81824Z" fill="white"/>
<path d="M15.0326 8.81824L14.9529 8.8785L14.9248 8.83833L15.0326 8.81824Z" fill="white"/>
<path d="M14.8406 8.81824L14.925 8.8785L14.9531 8.83833L14.8406 8.81824Z" fill="white"/>
<path d="M14.8406 8.81824H14.9437V8.86845L14.8406 8.81824Z" fill="white"/>
<path d="M14.9954 8.93369L14.9673 8.83325L14.9204 8.84832L14.9954 8.93369Z" fill="white"/>
<path d="M14.9952 8.9337L14.9155 8.87344L14.9437 8.82825L14.9952 8.9337Z" fill="white"/>
<path d="M14.8782 8.9337L14.9579 8.87344L14.9297 8.82825L14.8782 8.9337Z" fill="white"/>
<path d="M14.8782 8.93369L14.911 8.83325L14.9579 8.84832L14.8782 8.93369Z" fill="white"/>
<path d="M14.5969 9.00903L14.5547 9.1396L14.6156 9.15969L14.5969 9.00903Z" fill="white"/>
<path d="M14.5969 9.00903L14.6344 9.1396L14.5735 9.15969L14.5969 9.00903Z" fill="white"/>
<path d="M14.714 9.10437H14.5874V9.16965L14.714 9.10437Z" fill="white"/>
<path d="M14.7141 9.10437L14.6109 9.18472L14.5781 9.12948L14.7141 9.10437Z" fill="white"/>
<path d="M14.4751 9.10437L14.5782 9.18472L14.6157 9.12948L14.4751 9.10437Z" fill="white"/>
<path d="M14.4751 9.10437H14.6017V9.16965L14.4751 9.10437Z" fill="white"/>
<path d="M14.667 9.25508L14.6295 9.12451L14.5686 9.1446L14.667 9.25508Z" fill="white"/>
<path d="M14.667 9.25509L14.5686 9.17475L14.6061 9.11951L14.667 9.25509Z" fill="white"/>
<path d="M14.522 9.25509L14.6251 9.17475L14.5876 9.11951L14.522 9.25509Z" fill="white"/>
<path d="M14.522 9.25508L14.5595 9.12451L14.6204 9.1446L14.522 9.25508Z" fill="white"/>
<path d="M13.7531 9.79749L13.7156 9.92303L13.7718 9.94312L13.7531 9.79749Z" fill="white"/>
<path d="M13.7529 9.79749L13.7904 9.92303L13.7295 9.94312L13.7529 9.79749Z" fill="white"/>
<path d="M13.8704 9.88782H13.7485V9.95812L13.8704 9.88782Z" fill="white"/>
<path d="M13.8703 9.88782L13.7719 9.96817L13.7344 9.91293L13.8703 9.88782Z" fill="white"/>
<path d="M13.636 9.88782L13.7344 9.96817L13.7719 9.91293L13.636 9.88782Z" fill="white"/>
<path d="M13.636 9.88782H13.7579V9.95812L13.636 9.88782Z" fill="white"/>
<path d="M13.8279 10.0385L13.7857 9.91296L13.7295 9.93305L13.8279 10.0385Z" fill="white"/>
<path d="M13.8282 10.0384L13.7251 9.95805L13.7626 9.90784L13.8282 10.0384Z" fill="white"/>
<path d="M13.678 10.0384L13.7811 9.95805L13.7436 9.90784L13.678 10.0384Z" fill="white"/>
<path d="M13.678 10.0385L13.7155 9.91296L13.7764 9.93305L13.678 10.0385Z" fill="white"/>
<path d="M13.749 10.1992L13.7156 10.3047L13.7634 10.3197L13.749 10.1992Z" fill="white"/>
<path d="M13.7486 10.1992L13.7773 10.3047L13.7295 10.3197L13.7486 10.1992Z" fill="white"/>
<path d="M13.8421 10.2745H13.7437V10.3298L13.8421 10.2745Z" fill="white"/>
<path d="M13.8422 10.2745L13.7625 10.3398L13.7344 10.2946L13.8422 10.2745Z" fill="white"/>
<path d="M13.6545 10.2745L13.7342 10.3398L13.7624 10.2946L13.6545 10.2745Z" fill="white"/>
<path d="M13.6545 10.2745H13.753V10.3298L13.6545 10.2745Z" fill="white"/>
<path d="M13.8045 10.3951L13.7764 10.2947L13.7295 10.3097L13.8045 10.3951Z" fill="white"/>
<path d="M13.8048 10.395L13.7251 10.3297L13.7532 10.2896L13.8048 10.395Z" fill="white"/>
<path d="M13.6875 10.395L13.7719 10.3297L13.7391 10.2896L13.6875 10.395Z" fill="white"/>
<path d="M13.6875 10.3951L13.7203 10.2947L13.7672 10.3097L13.6875 10.3951Z" fill="white"/>
<path d="M14.1002 9.52625L14.0674 9.6317L14.1189 9.64677L14.1002 9.52625Z" fill="white"/>
<path d="M14.0998 9.52625L14.1326 9.6317L14.0811 9.64677L14.0998 9.52625Z" fill="white"/>
<path d="M14.1937 9.60156H14.0952V9.6568L14.1937 9.60156Z" fill="white"/>
<path d="M14.1937 9.60156L14.1141 9.66685L14.0859 9.62165L14.1937 9.60156Z" fill="white"/>
<path d="M14.0063 9.60156L14.086 9.66685L14.1142 9.62165L14.0063 9.60156Z" fill="white"/>
<path d="M14.0063 9.60156H14.1048V9.6568L14.0063 9.60156Z" fill="white"/>
<path d="M14.1607 9.72214L14.1279 9.6217L14.0811 9.63677L14.1607 9.72214Z" fill="white"/>
<path d="M14.161 9.72215L14.0767 9.65687L14.1095 9.6167L14.161 9.72215Z" fill="white"/>
<path d="M14.0437 9.72215L14.1234 9.65687L14.0906 9.6167L14.0437 9.72215Z" fill="white"/>
<path d="M14.0437 9.72214L14.0718 9.6217L14.1187 9.63677L14.0437 9.72214Z" fill="white"/>
<path d="M14.3812 9.31042L14.3438 9.44099L14.4 9.46108L14.3812 9.31042Z" fill="white"/>
<path d="M14.3811 9.31042L14.4186 9.44099L14.3623 9.46108L14.3811 9.31042Z" fill="white"/>
<path d="M14.4983 9.40576H14.3765V9.47104L14.4983 9.40576Z" fill="white"/>
<path d="M14.4982 9.40576L14.3998 9.48109L14.3623 9.43087L14.4982 9.40576Z" fill="white"/>
<path d="M14.2639 9.40576L14.3624 9.48109L14.3999 9.43087L14.2639 9.40576Z" fill="white"/>
<path d="M14.2639 9.40576H14.3858V9.47104L14.2639 9.40576Z" fill="white"/>
<path d="M14.4563 9.55133L14.4142 9.42578L14.3579 9.44587L14.4563 9.55133Z" fill="white"/>
<path d="M14.4562 9.55134L14.353 9.47602L14.3905 9.42078L14.4562 9.55134Z" fill="white"/>
<path d="M14.3062 9.55134L14.4093 9.47602L14.3718 9.42078L14.3062 9.55134Z" fill="white"/>
<path d="M14.3062 9.55133L14.3483 9.42578L14.4046 9.44587L14.3062 9.55133Z" fill="white"/>
<path d="M13.7398 9.45593L13.7063 9.55637L13.7541 9.57645L13.7398 9.45593Z" fill="white"/>
<path d="M13.7393 9.45593L13.768 9.55637L13.7202 9.57645L13.7393 9.45593Z" fill="white"/>
<path d="M13.8328 9.53125H13.7344V9.58147L13.8328 9.53125Z" fill="white"/>
<path d="M13.8329 9.53125L13.7532 9.59151L13.7251 9.55134L13.8329 9.53125Z" fill="white"/>
<path d="M13.6453 9.53125L13.725 9.59151L13.7531 9.55134L13.6453 9.53125Z" fill="white"/>
<path d="M13.6453 9.53125H13.7437V9.58147L13.6453 9.53125Z" fill="white"/>
<path d="M13.7952 9.65184L13.7671 9.54639L13.7202 9.56145L13.7952 9.65184Z" fill="white"/>
<path d="M13.7953 9.65184L13.7156 9.58656L13.7437 9.54639L13.7953 9.65184Z" fill="white"/>
<path d="M13.678 9.65184L13.7624 9.58656L13.7295 9.54639L13.678 9.65184Z" fill="white"/>
<path d="M13.678 9.65184L13.7108 9.54639L13.7577 9.56145L13.678 9.65184Z" fill="white"/>
<path d="M10.6687 7.51758L10.6265 7.64312L10.6874 7.66321L10.6687 7.51758Z" fill="white"/>
<path d="M10.6687 7.51758L10.7062 7.64312L10.6453 7.66321L10.6687 7.51758Z" fill="white"/>
<path d="M10.786 7.60791H10.6594V7.67319L10.786 7.60791Z" fill="white"/>
<path d="M10.7858 7.60791L10.6827 7.68826L10.6499 7.63302L10.7858 7.60791Z" fill="white"/>
<path d="M10.5469 7.60791L10.65 7.68826L10.6875 7.63302L10.5469 7.60791Z" fill="white"/>
<path d="M10.5469 7.60791H10.6734V7.67319L10.5469 7.60791Z" fill="white"/>
<path d="M10.7391 7.7586L10.7016 7.63306L10.6406 7.65314L10.7391 7.7586Z" fill="white"/>
<path d="M10.7391 7.75864L10.6406 7.67829L10.6781 7.62305L10.7391 7.75864Z" fill="white"/>
<path d="M10.5938 7.75864L10.6922 7.67829L10.6594 7.62305L10.5938 7.75864Z" fill="white"/>
<path d="M10.5938 7.7586L10.6313 7.63306L10.6922 7.65314L10.5938 7.7586Z" fill="white"/>
<path d="M12.952 7.20117L12.9233 7.30161L12.9712 7.32169L12.952 7.20117Z" fill="white"/>
<path d="M12.9518 7.20117L12.9853 7.30161L12.9375 7.32169L12.9518 7.20117Z" fill="white"/>
<path d="M13.0452 7.27649H12.9468V7.32671L13.0452 7.27649Z" fill="white"/>
<path d="M13.0453 7.27649L12.9656 7.33675L12.9375 7.29658L13.0453 7.27649Z" fill="white"/>
<path d="M12.8579 7.27649L12.9376 7.33675L12.9657 7.29658L12.8579 7.27649Z" fill="white"/>
<path d="M12.8579 7.27649H12.9563V7.32671L12.8579 7.27649Z" fill="white"/>
<path d="M13.0125 7.39708L12.9797 7.29163L12.9329 7.31171L13.0125 7.39708Z" fill="white"/>
<path d="M13.0126 7.39698L12.9282 7.33169L12.961 7.2865L13.0126 7.39698Z" fill="white"/>
<path d="M12.8955 7.39698L12.9752 7.33169L12.9471 7.2865L12.8955 7.39698Z" fill="white"/>
<path d="M12.8955 7.39708L12.9236 7.29163L12.9705 7.31171L12.8955 7.39708Z" fill="white"/>
<path d="M12 9.01904L11.9531 9.17472L12.0234 9.19983L12 9.01904Z" fill="white"/>
<path d="M12 9.01904L12.0469 9.17472L11.9766 9.19983L12 9.01904Z" fill="white"/>
<path d="M12.1407 9.12952H11.9907V9.20987L12.1407 9.12952Z" fill="white"/>
<path d="M12.1406 9.12952L12.0234 9.22493L11.9766 9.15965L12.1406 9.12952Z" fill="white"/>
<path d="M11.8594 9.12952L11.9766 9.22493L12.0234 9.15965L11.8594 9.12952Z" fill="white"/>
<path d="M11.8594 9.12952H12.0094V9.20987L11.8594 9.12952Z" fill="white"/>
<path d="M12.0889 9.31044L12.042 9.15979L11.9717 9.1849L12.0889 9.31044Z" fill="white"/>
<path d="M12.0892 9.31036L11.9673 9.21494L12.0095 9.14966L12.0892 9.31036Z" fill="white"/>
<path d="M11.9109 9.31036L12.0328 9.21494L11.9906 9.14966L11.9109 9.31036Z" fill="white"/>
<path d="M11.9109 9.31044L11.9578 9.15979L12.0281 9.1849L11.9109 9.31044Z" fill="white"/>
<path d="M12.4032 8.30103L12.3657 8.42657L12.4267 8.45168L12.4032 8.30103Z" fill="white"/>
<path d="M12.4033 8.30103L12.4455 8.42657L12.3845 8.45168L12.4033 8.30103Z" fill="white"/>
<path d="M12.525 8.39636H12.3984V8.46165L12.525 8.39636Z" fill="white"/>
<path d="M12.5251 8.39636L12.422 8.47169L12.3845 8.41645L12.5251 8.39636Z" fill="white"/>
<path d="M12.2861 8.39636L12.3893 8.47169L12.4221 8.41645L12.2861 8.39636Z" fill="white"/>
<path d="M12.2861 8.39636H12.4127V8.46165L12.2861 8.39636Z" fill="white"/>
<path d="M12.4781 8.54193L12.4406 8.41638L12.3796 8.43647L12.4781 8.54193Z" fill="white"/>
<path d="M12.4781 8.54206L12.375 8.46674L12.4125 8.4115L12.4781 8.54206Z" fill="white"/>
<path d="M12.333 8.54206L12.4314 8.46674L12.3939 8.4115L12.333 8.54206Z" fill="white"/>
<path d="M12.333 8.54193L12.3705 8.41638L12.4314 8.43647L12.333 8.54193Z" fill="white"/>
<path d="M11.9999 7.96448L11.9624 8.09504L12.0187 8.11513L11.9999 7.96448Z" fill="white"/>
<path d="M12.0002 7.96448L12.0377 8.09504L11.9814 8.11513L12.0002 7.96448Z" fill="white"/>
<path d="M12.117 8.05994H11.9951V8.12522L12.117 8.05994Z" fill="white"/>
<path d="M12.1174 8.05994L12.0189 8.13526L11.9814 8.08002L12.1174 8.05994Z" fill="white"/>
<path d="M11.8828 8.05994L11.9813 8.13526L12.0187 8.08002L11.8828 8.05994Z" fill="white"/>
<path d="M11.8828 8.05994H12.0047V8.12522L11.8828 8.05994Z" fill="white"/>
<path d="M12.075 8.20562L12.0328 8.08008L11.9766 8.10016L12.075 8.20562Z" fill="white"/>
<path d="M12.0748 8.20552L11.9717 8.13019L12.0092 8.07495L12.0748 8.20552Z" fill="white"/>
<path d="M11.9248 8.20552L12.0279 8.13019L11.9904 8.07495L11.9248 8.20552Z" fill="white"/>
<path d="M11.9248 8.20562L11.967 8.08008L12.0232 8.10016L11.9248 8.20562Z" fill="white"/>
<path d="M11.6492 8.33118L11.6157 8.43161L11.6635 8.44668L11.6492 8.33118Z" fill="white"/>
<path d="M11.6488 8.33118L11.6775 8.43161L11.6296 8.44668L11.6488 8.33118Z" fill="white"/>
<path d="M11.742 8.40137H11.6436V8.45661L11.742 8.40137Z" fill="white"/>
<path d="M11.7421 8.40137L11.6624 8.46665L11.6343 8.42145L11.7421 8.40137Z" fill="white"/>
<path d="M11.5547 8.40137L11.6344 8.46665L11.6625 8.42145L11.5547 8.40137Z" fill="white"/>
<path d="M11.5547 8.40137H11.6531V8.45661L11.5547 8.40137Z" fill="white"/>
<path d="M11.7046 8.52194L11.6765 8.42151L11.6296 8.43657L11.7046 8.52194Z" fill="white"/>
<path d="M11.7047 8.52184L11.625 8.46158L11.6531 8.41638L11.7047 8.52184Z" fill="white"/>
<path d="M11.5874 8.52184L11.6718 8.46158L11.639 8.41638L11.5874 8.52184Z" fill="white"/>
<path d="M11.5874 8.52194L11.6202 8.42151L11.6671 8.43657L11.5874 8.52194Z" fill="white"/>
<path d="M11.8223 8.61731L11.8032 8.69264L11.8367 8.70268L11.8223 8.61731Z" fill="white"/>
<path d="M11.8221 8.61731L11.846 8.69264L11.8125 8.70268L11.8221 8.61731Z" fill="white"/>
<path d="M11.8923 8.67261H11.822V8.71278L11.8923 8.67261Z" fill="white"/>
<path d="M11.8922 8.67261L11.8359 8.7178L11.8125 8.68767L11.8922 8.67261Z" fill="white"/>
<path d="M11.7563 8.67261L11.8126 8.7178L11.836 8.68767L11.7563 8.67261Z" fill="white"/>
<path d="M11.7563 8.67261H11.8267V8.71278L11.7563 8.67261Z" fill="white"/>
<path d="M11.8641 8.75794L11.8454 8.68262L11.8079 8.69768L11.8641 8.75794Z" fill="white"/>
<path d="M11.8641 8.75794L11.8079 8.71275L11.8313 8.68262L11.8641 8.75794Z" fill="white"/>
<path d="M11.7798 8.75794L11.8407 8.71275L11.8173 8.68262L11.7798 8.75794Z" fill="white"/>
<path d="M11.7798 8.75794L11.8032 8.68262L11.836 8.69768L11.7798 8.75794Z" fill="white"/>
<path d="M13.05 9.88782L13.0078 10.0184L13.0687 10.0385L13.05 9.88782Z" fill="white"/>
<path d="M13.05 9.88782L13.0875 10.0184L13.0266 10.0385L13.05 9.88782Z" fill="white"/>
<path d="M13.1671 9.97827H13.0405V10.0486L13.1671 9.97827Z" fill="white"/>
<path d="M13.1672 9.97827L13.0641 10.0586L13.0266 10.0034L13.1672 9.97827Z" fill="white"/>
<path d="M12.9282 9.97827L13.0313 10.0586L13.0688 10.0034L12.9282 9.97827Z" fill="white"/>
<path d="M12.9282 9.97827H13.0548V10.0486L12.9282 9.97827Z" fill="white"/>
<path d="M13.1204 10.1288L13.0829 10.0033L13.022 10.0234L13.1204 10.1288Z" fill="white"/>
<path d="M13.1204 10.1289L13.022 10.0535L13.0548 9.99829L13.1204 10.1289Z" fill="white"/>
<path d="M12.9751 10.1289L13.0735 10.0535L13.0407 9.99829L12.9751 10.1289Z" fill="white"/>
<path d="M12.9751 10.1288L13.0126 10.0033L13.0735 10.0234L12.9751 10.1288Z" fill="white"/>
<path d="M13.3458 9.58154L13.3171 9.687L13.365 9.70206L13.3458 9.58154Z" fill="white"/>
<path d="M13.3456 9.58154L13.3791 9.687L13.3313 9.70206L13.3456 9.58154Z" fill="white"/>
<path d="M13.4437 9.65686H13.3406V9.7121L13.4437 9.65686Z" fill="white"/>
<path d="M13.4438 9.65686L13.3641 9.72214L13.3313 9.67695L13.4438 9.65686Z" fill="white"/>
<path d="M13.2515 9.65686L13.3312 9.72214L13.364 9.67695L13.2515 9.65686Z" fill="white"/>
<path d="M13.2515 9.65686H13.3546V9.7121L13.2515 9.65686Z" fill="white"/>
<path d="M13.4063 9.77732L13.3735 9.67688L13.3267 9.69195L13.4063 9.77732Z" fill="white"/>
<path d="M13.4063 9.77733L13.3267 9.71707L13.3548 9.67188L13.4063 9.77733Z" fill="white"/>
<path d="M13.2891 9.77733L13.3688 9.71707L13.3406 9.67188L13.2891 9.77733Z" fill="white"/>
<path d="M13.2891 9.77732L13.3219 9.67688L13.3688 9.69195L13.2891 9.77732Z" fill="white"/>
<path d="M12.7739 9.49109L12.7405 9.59152L12.7883 9.61161L12.7739 9.49109Z" fill="white"/>
<path d="M12.7738 9.49109L12.8025 9.59152L12.7546 9.61161L12.7738 9.49109Z" fill="white"/>
<path d="M12.8672 9.56653H12.7688V9.62177L12.8672 9.56653Z" fill="white"/>
<path d="M12.8671 9.56653L12.7875 9.62679L12.7546 9.58662L12.8671 9.56653Z" fill="white"/>
<path d="M12.675 9.56653L12.7594 9.62679L12.7875 9.58662L12.675 9.56653Z" fill="white"/>
<path d="M12.675 9.56653H12.7782V9.62177L12.675 9.56653Z" fill="white"/>
<path d="M12.8297 9.687L12.8016 9.58154L12.75 9.60163L12.8297 9.687Z" fill="white"/>
<path d="M12.8297 9.687L12.75 9.62172L12.7781 9.58154L12.8297 9.687Z" fill="white"/>
<path d="M12.7126 9.687L12.7923 9.62172L12.7642 9.58154L12.7126 9.687Z" fill="white"/>
<path d="M12.7126 9.687L12.7455 9.58154L12.7923 9.60163L12.7126 9.687Z" fill="white"/>
<path d="M10.5937 9.32544L10.5515 9.47609L10.6218 9.50622L10.5937 9.32544Z" fill="white"/>
<path d="M10.5938 9.32544L10.6406 9.47609L10.5703 9.50622L10.5938 9.32544Z" fill="white"/>
<path d="M10.7391 9.43591H10.5891V9.51626L10.7391 9.43591Z" fill="white"/>
<path d="M10.739 9.43591L10.6171 9.53133L10.575 9.46604L10.739 9.43591Z" fill="white"/>
<path d="M10.4531 9.43591L10.575 9.53133L10.6172 9.46604L10.4531 9.43591Z" fill="white"/>
<path d="M10.4531 9.43591H10.6031V9.51626L10.4531 9.43591Z" fill="white"/>
<path d="M10.6829 9.61672L10.636 9.46606L10.5657 9.49117L10.6829 9.61672Z" fill="white"/>
<path d="M10.6829 9.61663L10.561 9.52121L10.6079 9.45593L10.6829 9.61663Z" fill="white"/>
<path d="M10.5049 9.61663L10.6268 9.52121L10.5846 9.45593L10.5049 9.61663Z" fill="white"/>
<path d="M10.5049 9.61672L10.5518 9.46606L10.6268 9.49117L10.5049 9.61672Z" fill="white"/>
<path d="M12.0002 10.375L11.9858 10.4302L12.0097 10.4353L12.0002 10.375Z" fill="white"/>
<path d="M12.0003 10.375L12.0146 10.4302L11.9907 10.4353L12.0003 10.375Z" fill="white"/>
<path d="M12.0467 10.4152H11.9951V10.4403L12.0467 10.4152Z" fill="white"/>
<path d="M12.047 10.4152L12.0095 10.4453L11.9907 10.4252L12.047 10.4152Z" fill="white"/>
<path d="M11.9531 10.4152L11.9953 10.4453L12.0094 10.4252L11.9531 10.4152Z" fill="white"/>
<path d="M11.9531 10.4152H12.0047V10.4403L11.9531 10.4152Z" fill="white"/>
<path d="M12.029 10.4754L12.0146 10.4252L11.9907 10.4302L12.029 10.4754Z" fill="white"/>
<path d="M12.029 10.4754L11.9907 10.4403L12.0051 10.4202L12.029 10.4754Z" fill="white"/>
<path d="M11.9717 10.4754L12.0099 10.4403L11.9956 10.4202L11.9717 10.4754Z" fill="white"/>
<path d="M11.9717 10.4754L11.986 10.4252L12.0099 10.4302L11.9717 10.4754Z" fill="white"/>
</svg>